<svg width="222" height="38" viewBox="0 0 222 38" fill="none" xmlns="http://www.w3.org/2000/svg">
<path d="M47.0551 16.3122C47.0551 16.3122 47.9848 24.5105 33.2785 26.877C24.0659 28.3984 21.6994 20.5381 21.1078 20.9607C20.6007 21.3833 0.147115 26.708 0.0625963 27.4687C-0.0219226 28.1448 -0.275495 36.0896 1.4994 37.2728C3.35882 38.4561 48.7455 37.6954 58.5496 35.5825C68.3538 33.554 68.9455 29.4126 69.1145 25.9474C69.2835 22.5666 64.2124 13.7766 64.2124 13.7766C64.2124 13.7766 52.2107 17.0728 47.0551 16.3122Z" fill="#504987"/>
<path d="M25.249 19.6084C25.249 19.6084 27.4465 18.9322 28.3762 19.0167L39.1946 27.3841L36.6591 28.6519L25.249 19.6084Z" fill="#504987"/>
<path d="M35.3913 18.6788L25.249 27.8914L27.2775 28.483L38.3495 18.8478C38.3495 19.0169 36.4055 18.5943 35.3913 18.6788Z" fill="#504987"/>
<path d="M47.0553 16.3121C46.8018 15.5514 57.2821 1.69031 57.2821 1.69031C57.2821 1.69031 58.0428 3.63426 58.4654 4.14138L48.4076 17.4108L47.0553 16.3121Z" fill="#504987"/>
<path d="M42.3223 3.6344L43.252 6.08547L62.4378 14.2838L64.2127 13.8612L42.3223 3.6344Z" fill="#504987"/>
<path d="M57.2825 1.69038C57.2825 1.69038 43.1678 3.54978 42.3227 3.6343L41.6465 1.94392C41.6465 1.94392 55.4231 0.676151 55.9302 0L57.2825 1.69038Z" fill="#504987"/>
<path d="M174.171 16.4812C174.171 16.4812 173.241 24.6796 187.948 27.0461C197.16 28.5674 199.527 20.7072 200.118 21.1298C200.625 21.5524 221.079 26.8771 221.163 27.6377C221.248 28.3984 221.502 36.2587 219.727 37.4419C217.867 38.6252 172.481 37.8645 162.676 35.7515C152.872 33.7231 152.281 29.5817 152.112 26.1164C151.943 22.6511 157.014 13.9457 157.014 13.9457C157.014 13.9457 169.015 17.2419 174.171 16.4812Z" fill="#504987"/>
<path d="M195.977 19.8619C195.977 19.8619 193.779 19.1857 192.85 19.2703L182.031 27.6376L184.567 28.9054L195.977 19.8619Z" fill="#504987"/>
<path d="M185.835 18.9323L195.977 28.1448L193.949 28.7365L182.877 19.1013C182.877 19.1858 184.821 18.7632 185.835 18.9323Z" fill="#504987"/>
<path d="M174.172 16.4811C174.425 15.7205 163.945 1.85938 163.945 1.85938C163.945 1.85938 163.184 3.80328 162.762 4.31039L172.819 17.5799L174.172 16.4811Z" fill="#504987"/>
<path d="M178.905 3.80334L177.975 6.25441L158.79 14.5373L157.015 14.0301L178.905 3.80334Z" fill="#504987"/>
<path d="M163.944 1.85945C163.944 1.85945 178.059 3.71885 178.904 3.80337L179.58 2.11299C179.58 2.11299 165.804 0.845218 165.297 0.169067L163.944 1.85945Z" fill="#504987"/>
</svg>
