<svg width="256" height="65" viewBox="0 0 256 65" fill="none" xmlns="http://www.w3.org/2000/svg">
<path d="M0.596205 49.5178C0.596205 49.5178 -0.19228 53.7757 0.0442699 54.1699C0.35967 54.5642 8.4812 60.2414 21.176 61.7396C33.8709 63.3166 38.523 62.3704 38.523 62.3704V60.5568C38.523 60.5568 54.6084 59.5318 56.1854 58.5856V61.8973C56.1854 61.8973 71.9554 61.2665 78.8942 59.2164C85.7541 57.1663 86.1484 56.0624 86.1484 56.0624C86.1484 56.0624 87.0946 48.887 84.8868 47.7043C82.679 46.5215 47.0388 48.6505 47.0388 48.6505L0.596205 49.5178Z" fill="#184C89"/>
<path d="M47.5912 2.91741C47.5912 2.91741 47.8278 16.1642 37.5773 26.1781C27.3268 36.1921 5.48538 39.2672 3.43528 41.475C1.46403 43.6828 0.59668 49.5177 0.59668 49.5177C0.59668 49.5177 11.6357 58.7432 30.4808 57.5604C49.3259 56.3777 59.5764 53.1448 68.0134 52.514C76.4503 51.8832 84.8873 47.7042 84.8873 47.7042C84.8873 47.7042 85.2815 38.6364 83.7045 34.2208C82.1275 29.8052 79.3678 22.7088 79.1312 18.7663C78.8947 14.8238 77.0811 0 77.0811 0C77.0811 0 50.5875 0.946161 47.5912 2.91741Z" fill="#FEBC2A"/>
<path d="M47.5912 43.9983C40.337 42.027 33.004 45.1022 28.5884 43.2098C25.671 41.9482 25.119 37.0595 25.0402 33.9055C15.2628 38.0846 4.77573 39.9769 3.43528 41.4751C1.46403 43.6829 0.59668 49.5178 0.59668 49.5178C0.59668 49.5178 11.6357 58.7432 30.4808 57.5605C42.5449 56.772 51.0606 55.195 57.8417 54.0122C56.4224 51.0159 52.953 45.4176 47.5912 43.9983Z" fill="#F8972D"/>
<path d="M44.1211 16.243C44.3577 16.3219 43.9634 16.1641 44.2 16.3218C44.2788 16.3218 44.3577 16.4007 44.3577 16.4007C44.5154 16.4796 44.5942 16.4796 44.6731 16.5584C44.9096 16.7161 45.1462 16.795 45.3827 16.9527C45.6193 17.1104 45.8558 17.2681 46.0924 17.4258C46.0924 17.4258 46.2501 17.5046 46.1712 17.4258C46.2501 17.5046 46.2501 17.5046 46.3289 17.5835C46.4078 17.6623 46.5655 17.7411 46.6443 17.8988C47.0386 18.2931 47.4328 18.6085 47.7482 19.0816C47.8271 19.1604 47.8271 19.1604 47.9059 19.2393C47.8271 19.1604 47.9848 19.3182 47.9848 19.3182C48.0636 19.397 48.1425 19.5547 48.2213 19.6335C48.379 19.8701 48.5367 20.1067 48.6944 20.3432C48.931 20.7375 49.4829 20.8951 49.7983 20.6586C50.1926 20.422 50.3503 19.949 50.1137 19.5547C48.8521 17.3469 46.8809 15.691 44.5942 14.7448C44.2 14.5871 43.648 14.9025 43.5692 15.2968C43.4115 15.7699 43.648 16.0853 44.1211 16.243Z" fill="#184C89"/>
<path d="M40.8887 22.078C40.9676 22.078 41.0464 22.1568 41.0464 22.1568C41.1253 22.1568 40.9676 22.1568 41.1253 22.1568C41.283 22.2356 41.3618 22.2357 41.5195 22.3145C41.7561 22.3934 41.9926 22.5511 42.2292 22.7088C42.4657 22.8665 42.7023 23.0241 42.9388 23.1818C43.0177 23.2607 43.1754 23.3395 43.2542 23.4184C43.3331 23.4972 43.2542 23.4184 43.3331 23.4973C43.4119 23.5761 43.4119 23.5761 43.4908 23.655C43.885 23.9704 44.2793 24.3646 44.6735 24.7588C45.0678 25.2319 45.3043 25.4685 45.6197 25.9416C45.8563 26.3358 46.3294 26.4936 46.7236 26.257C47.1179 26.0205 47.2756 25.5473 47.039 25.1531C45.6986 23.103 43.7273 21.526 41.4407 20.5798C41.0464 20.4221 40.4945 20.7375 40.4156 21.1318C40.2579 21.526 40.4945 21.9203 40.8887 22.078Z" fill="#184C89"/>
<path d="M36.7886 26.3358C37.2617 26.6512 37.5771 26.8878 37.9713 27.2032C38.3656 27.5975 38.8387 27.9128 39.1541 28.3071C39.5483 28.7013 39.8637 29.0956 40.258 29.4898C40.3368 29.5687 40.3368 29.5687 40.4156 29.6476C40.3368 29.5687 40.4156 29.6475 40.4945 29.7264C40.5733 29.8052 40.6522 29.963 40.7311 30.0418C40.8888 30.2784 41.0464 30.5149 41.2041 30.7515C41.4407 31.1457 41.9138 31.3034 42.3081 31.0668C42.7023 30.8303 42.86 30.3572 42.6235 29.963C41.3619 27.9129 39.6271 26.257 37.6559 24.9166C37.3405 24.68 36.7097 24.8377 36.552 25.232C36.3155 25.6262 36.3943 26.0993 36.7886 26.3358Z" fill="#184C89"/>
<path d="M30.4809 31.067C30.8752 31.3035 31.2694 31.5401 31.6637 31.8555C31.6637 31.8555 31.8214 32.0132 31.7425 31.9343C31.6637 31.8555 31.8214 32.0132 31.8214 32.0132C31.9002 32.092 31.9791 32.1709 32.1368 32.2497C32.2945 32.4074 32.531 32.5651 32.6887 32.7228C33.0041 33.0382 33.3195 33.3536 33.6349 33.7479C33.6349 33.8267 33.7138 33.8267 33.7138 33.9056C33.7138 33.9056 33.8715 34.1421 33.7926 33.9844C33.8715 34.0633 33.9503 34.1421 34.0292 34.2209C34.1869 34.4575 34.3446 34.6152 34.4234 34.8517C34.66 35.246 35.1331 35.4037 35.5273 35.1672C35.9216 34.9306 36.0793 34.4575 35.8427 34.0632C34.7388 32.2497 33.1618 30.7515 31.3483 29.7265C30.954 29.4899 30.4021 29.6477 30.2444 30.0419C30.0078 30.2785 30.0867 30.8304 30.4809 31.067Z" fill="#184C89"/>
<path d="M254.754 51.5177C254.754 51.5177 255.542 55.7756 255.306 56.1699C254.99 56.5641 246.869 62.2413 234.174 63.7394C221.479 65.3164 216.827 64.3702 216.827 64.3702V62.5567C216.827 62.5567 200.742 61.5316 199.165 60.5854V63.8972C199.165 63.8972 183.395 63.2663 176.456 61.2162C169.596 59.1661 169.202 58.0622 169.202 58.0622C169.202 58.0622 168.255 50.8869 170.463 49.7042C172.671 48.5214 208.311 50.6504 208.311 50.6504L254.754 51.5177Z" fill="#184C89"/>
<path d="M207.759 4.91746C207.759 4.91746 207.522 18.1642 217.773 28.1782C228.023 38.271 249.865 41.2672 251.915 43.475C253.886 45.6828 254.753 51.5177 254.753 51.5177C254.753 51.5177 243.714 60.7432 224.869 59.5604C206.024 58.3777 195.774 55.1448 187.337 54.514C178.9 53.8832 170.463 49.7042 170.463 49.7042C170.463 49.7042 170.069 40.6364 171.645 36.2208C173.222 31.8052 175.982 24.7876 176.219 20.7663C176.455 16.7449 178.269 2 178.269 2C178.269 2 204.762 2.94621 207.759 4.91746Z" fill="#FEBC2A"/>
<path d="M207.759 45.9982C215.013 44.0269 222.347 47.1021 226.762 45.2097C229.68 43.9481 230.232 39.0594 230.31 35.9054C240.088 40.0844 250.575 41.9768 251.915 43.475C253.886 45.6828 254.754 51.5177 254.754 51.5177C254.754 51.5177 243.715 60.7431 224.87 59.5604C212.806 58.7719 204.29 57.1949 197.509 56.0121C198.928 53.0947 202.397 47.4175 207.759 45.9982Z" fill="#F8972D"/>
<path d="M210.835 16.6661C208.548 17.6123 206.577 19.2682 205.315 21.476C205.079 21.8702 205.236 22.4221 205.631 22.5798C206.025 22.8164 206.498 22.6587 206.735 22.2645C206.892 22.0279 207.05 21.7914 207.129 21.5548C207.208 21.3971 207.286 21.3182 207.365 21.2394C207.365 21.2394 207.523 21.0817 207.444 21.1606C207.365 21.2394 207.523 21.0817 207.523 21.0817C207.838 20.6875 208.233 20.2932 208.627 19.899C208.706 19.8201 208.785 19.7412 208.942 19.6624C209.021 19.5835 209.021 19.5836 209.1 19.5047C209.179 19.4259 209.021 19.5836 209.179 19.5047C209.415 19.347 209.652 19.1893 209.889 19.0316C210.125 18.8739 210.362 18.7162 210.598 18.6373C210.677 18.5585 210.835 18.4796 210.914 18.4796C210.992 18.4796 211.071 18.4008 211.15 18.4008C211.308 18.322 211.071 18.4008 211.229 18.322C211.623 18.1643 211.939 17.77 211.781 17.2969C211.702 16.9026 211.229 16.5084 210.835 16.6661Z" fill="#184C89"/>
<path d="M213.989 22.501C211.702 23.3683 209.731 24.9453 208.39 27.0743C208.154 27.4685 208.312 28.0205 208.706 28.1782C209.1 28.4147 209.573 28.257 209.81 27.8628C209.967 27.6262 210.125 27.3897 210.283 27.232C210.204 27.3108 210.283 27.232 210.362 27.1531C210.441 27.0743 210.441 27.0743 210.519 26.9954C210.598 26.9166 210.677 26.7589 210.756 26.68C211.15 26.2858 211.544 25.8915 211.939 25.5761C212.018 25.5761 212.018 25.4973 212.096 25.4973C212.333 25.3396 211.939 25.5761 212.175 25.4184C212.254 25.3396 212.412 25.2607 212.491 25.1819C212.727 25.0242 212.885 24.8665 213.121 24.7876C213.358 24.6299 213.595 24.5511 213.831 24.3934C213.989 24.3145 214.068 24.3145 214.225 24.2357C214.304 24.2357 214.383 24.1568 214.304 24.2357C214.383 24.2357 214.462 24.1568 214.541 24.1568C214.935 23.9991 215.25 23.6049 215.093 23.1318C214.856 22.6587 214.462 22.3433 213.989 22.501Z" fill="#184C89"/>
<path d="M217.694 26.9954C215.723 28.3359 214.067 30.0705 212.726 32.0418C212.49 32.436 212.648 32.988 213.042 33.1457C213.436 33.3822 213.909 33.2245 214.146 32.8303C214.303 32.5937 214.461 32.3572 214.619 32.1207C214.698 32.0418 214.776 31.8841 214.855 31.8052C214.855 31.8052 215.013 31.5687 214.934 31.7264C214.934 31.6476 215.013 31.6475 215.013 31.5687C215.328 31.1744 215.723 30.7013 216.117 30.3071C216.511 29.9128 216.905 29.5186 217.3 29.2032C217.379 29.1243 217.536 29.0455 217.615 28.9667C217.694 28.8878 217.694 28.8878 217.773 28.8089C217.852 28.7301 217.773 28.8089 217.852 28.7301C218.088 28.5724 218.325 28.4147 218.561 28.257C218.877 28.0204 219.113 27.5473 218.877 27.1531C218.64 26.9165 218.088 26.68 217.694 26.9954Z" fill="#184C89"/>
<path d="M224.081 31.6475C222.268 32.6726 220.691 34.1707 219.587 35.9843C219.35 36.3785 219.508 36.9305 219.902 37.0882C220.296 37.3247 220.77 37.167 221.006 36.7728C221.164 36.5362 221.243 36.3785 221.4 36.142C221.479 36.0631 221.558 35.9054 221.637 35.8266C221.637 35.7477 221.716 35.7477 221.716 35.6689C222.031 35.2746 222.346 34.9592 222.662 34.6438C222.82 34.4861 222.977 34.3284 223.135 34.1707C223.214 34.0919 223.293 34.013 223.45 33.9342C223.529 33.9342 223.529 33.8553 223.608 33.8553C224.002 33.5399 224.397 33.3034 224.87 33.0668C225.264 32.8303 225.422 32.3572 225.185 31.9629C224.949 31.5687 224.475 31.411 224.081 31.6475Z" fill="#184C89"/>
</svg>
