<svg width="255" height="64" viewBox="0 0 255 64" fill="none" xmlns="http://www.w3.org/2000/svg">
<path d="M0.0238198 46.6617C0.0238198 46.6617 -0.333882 56.3202 1.72303 58.1983C3.77994 60.0763 27.658 64.4584 46.8857 63.743C66.0239 63.0275 97.8613 53.8161 98.0402 53.1007C98.2191 52.3852 98.3085 43.1739 95.715 42.0113C93.1215 40.8487 0.0238198 46.6617 0.0238198 46.6617Z" fill="#184C89"/>
<path d="M87.1306 8.47467C87.3989 13.0357 92.4965 24.3039 94.3745 29.3121C96.1631 34.3202 95.716 44.5153 95.716 44.6048C95.6266 46.3039 85.6997 48.182 84.3583 48.4503C68.0818 52.3853 50.7322 54.6211 34.0086 55.6942C12.6346 57.0357 0.114258 46.5723 0.114258 46.5723C0.114258 46.5723 1.00857 39.9543 3.33378 37.4503C5.56955 34.9462 30.4314 31.5479 42.0574 20.1007C45.5452 16.6129 48.0493 12.8568 49.659 9.27952C49.659 9.27952 53.5046 13.3039 66.1144 12.4991C78.7241 11.6942 87.1306 8.47467 87.1306 8.47467Z" fill="#E9667E"/>
<path d="M77.5614 42.0113C81.6609 42.0113 84.9842 38.688 84.9842 34.5885C84.9842 30.489 81.6609 27.1657 77.5614 27.1657C73.4619 27.1657 70.1387 30.489 70.1387 34.5885C70.1387 38.688 73.4619 42.0113 77.5614 42.0113Z" fill="white"/>
<path d="M19.4294 39.4178C19.4294 39.4178 37.5839 37.0031 45.9904 29.4015C54.397 21.7998 62.8035 9.4584 58.9579 2.66164C55.1124 -4.04568 50.7303 3.28765 49.2099 9.63725C47.6896 15.9869 28.9091 29.0438 16.8359 32.7999L19.4294 39.4178Z" fill="#EFE1E8"/>
<path d="M0.0234375 46.6617C0.0234375 46.6617 7.53565 52.9219 20.7714 55.1576C22.2918 49.3446 21.8446 42.1901 19.9666 37.808C19.1617 35.9299 17.9991 34.3202 16.8365 32.9787C9.86086 35.125 4.2267 36.4665 3.24296 37.6291C0.917753 40.0438 0.0234375 46.6617 0.0234375 46.6617Z" fill="#E8C6D7"/>
<path d="M45.7225 15.5397C45.8119 15.5397 45.9014 15.6292 45.9014 15.6292C45.9908 15.6292 45.8119 15.6292 45.9908 15.6292C46.1697 15.7186 46.2591 15.7186 46.438 15.808C46.7063 15.8975 46.9745 16.0763 47.2428 16.2552C47.5111 16.4341 47.7794 16.6129 48.0477 16.7918C48.1371 16.8812 48.316 16.9706 48.4054 17.06C48.4949 17.1495 48.4054 17.0601 48.4949 17.1495C48.5843 17.2389 48.5843 17.2389 48.6737 17.3283C49.1209 17.6861 49.568 18.1332 50.0152 18.5804C50.4624 19.117 50.7306 19.3853 51.0884 19.9219C51.3567 20.369 51.8932 20.5479 52.3404 20.2796C52.7875 20.0113 52.9664 19.4747 52.6981 19.0275C51.1778 16.7023 48.942 14.9137 46.3485 13.8406C45.9014 13.6617 45.2753 14.0194 45.1859 14.4666C45.007 14.9137 45.2753 15.3608 45.7225 15.5397Z" fill="#184C89"/>
<path d="M39.6419 20.369C40.1785 20.7267 40.5362 20.995 40.9833 21.3527C41.4305 21.7999 41.9671 22.1576 42.3248 22.6048C42.772 23.0519 43.1297 23.4991 43.5768 23.9462C43.6663 24.0357 43.6663 24.0357 43.7557 24.1251C43.6663 24.0357 43.7557 24.1251 43.8451 24.2145C43.9345 24.3039 44.024 24.4828 44.1134 24.5723C44.2923 24.8406 44.4712 25.1088 44.65 25.3771C44.9183 25.8243 45.4549 26.0031 45.902 25.7349C46.3492 25.4666 46.5281 24.9299 46.2598 24.4828C44.8289 22.1576 42.8614 20.2796 40.6256 18.7592C40.2679 18.491 39.5524 18.6698 39.3736 19.1169C39.1053 19.5641 39.1947 20.1007 39.6419 20.369Z" fill="#184C89"/>
<path d="M33.9182 25.7349C34.3654 26.0032 34.8126 26.2715 35.2597 26.6292C35.2597 26.6292 35.4385 26.808 35.3491 26.7186C35.2597 26.6292 35.4386 26.8081 35.4386 26.8081C35.528 26.8975 35.6174 26.9869 35.7963 27.0764C35.9751 27.2552 36.2434 27.4341 36.4223 27.6129C36.78 27.9706 37.1378 28.3284 37.4955 28.7756C37.4955 28.865 37.5849 28.865 37.5849 28.9544C37.5849 28.9544 37.7638 29.2227 37.6743 29.0438C37.7638 29.1333 37.8532 29.2227 37.9426 29.3121C38.1215 29.5804 38.3004 29.7593 38.3898 30.0276C38.6581 30.4747 39.1947 30.6536 39.6418 30.3853C40.089 30.117 40.2678 29.5804 39.9995 29.1333C38.7475 27.0763 36.9589 25.3772 34.902 24.2146C34.4548 23.9463 33.8288 24.1251 33.6499 24.5723C33.3816 24.8406 33.4711 25.4666 33.9182 25.7349Z" fill="#184C89"/>
<path d="M26.1371 28.6861C26.6737 29.0438 27.2997 29.4015 27.7468 29.7593C27.6574 29.6698 27.8363 29.8487 27.8363 29.8487C27.9257 29.9381 27.9257 29.9381 28.0152 30.0276C28.1046 30.117 28.2834 30.2064 28.3729 30.3853C28.6412 30.5642 28.82 30.8324 29.0883 31.1007C29.5355 31.5479 29.9826 32.0845 30.4298 32.6211C30.5192 32.7105 30.4298 32.6211 30.5192 32.7105C30.6086 32.7999 30.6087 32.8893 30.6981 32.9788C30.7875 33.0682 30.8769 33.2471 30.9664 33.3365C31.1452 33.6048 31.3241 33.8731 31.503 34.2308C31.7712 34.678 32.3078 34.8569 32.755 34.5886C33.2021 34.3203 33.381 33.7837 33.1127 33.3365C31.5924 30.8324 29.5355 28.7755 27.0314 27.2552C26.5843 26.9869 25.9582 27.1658 25.7794 27.6129C25.5111 27.8812 25.6899 28.4178 26.1371 28.6861Z" fill="#184C89"/>
<path d="M19.8775 31.8161C19.967 31.9056 20.0564 31.995 20.2352 32.0844C20.2352 32.0844 20.4141 32.2633 20.3247 32.1739C20.2353 32.0844 20.4141 32.2633 20.4141 32.2633C20.593 32.4421 20.8613 32.621 21.0401 32.7999C21.4873 33.1576 21.845 33.5153 22.2027 33.9625C22.2922 34.0519 22.3816 34.1413 22.471 34.3202L22.5605 34.4096C22.7393 34.5885 22.471 34.2308 22.6499 34.4991C22.8288 34.6779 22.9182 34.9462 23.0971 35.1251C23.3653 35.5722 23.7231 36.1088 23.9019 36.556C24.0808 37.0031 24.7962 37.182 25.154 36.9137C25.6011 36.6454 25.6905 36.1088 25.5117 35.6616C24.4385 33.5153 22.8288 31.7267 20.8613 30.2958C20.5036 30.0275 19.7881 30.2064 19.6092 30.6535C19.2515 31.0113 19.4304 31.5478 19.8775 31.8161Z" fill="#184C89"/>
<path d="M254.094 46.5723C254.094 46.5723 254.452 56.2309 252.395 58.1089C250.338 59.987 226.46 64.3691 207.232 63.6536C188.094 62.9382 156.257 53.7268 156.078 53.0113C155.899 52.2959 155.809 43.0845 158.403 41.9219C160.996 40.7593 254.094 46.5723 254.094 46.5723Z" fill="#184C89"/>
<path d="M167.078 8.47467C166.81 13.0357 161.713 24.3039 159.835 29.3121C158.046 34.3202 158.493 44.5154 158.493 44.6048C158.582 46.304 168.509 48.182 169.851 48.4503C186.127 52.3853 203.477 54.6211 220.2 55.6942C241.574 57.0357 254.095 46.5723 254.095 46.5723C254.095 46.5723 253.2 39.9544 250.875 37.4503C248.55 34.9463 223.778 31.5479 212.152 20.1007C208.664 16.6129 206.16 12.8568 204.55 9.27957C204.55 9.27957 200.705 13.3039 188.095 12.4991C175.485 11.6942 167.078 8.47467 167.078 8.47467Z" fill="#E9667E"/>
<path d="M176.647 42.0113C180.747 42.0113 184.07 38.688 184.07 34.5885C184.07 30.489 180.747 27.1658 176.647 27.1658C172.548 27.1658 169.225 30.489 169.225 34.5885C169.225 38.688 172.548 42.0113 176.647 42.0113Z" fill="white"/>
<path d="M234.777 39.4178C234.777 39.4178 216.622 37.0032 208.216 29.4015C199.809 21.7999 191.403 9.4584 195.248 2.66164C199.094 -4.04568 203.476 3.28765 204.996 9.63725C206.517 15.9869 225.297 29.0438 237.37 32.7999L234.777 39.4178Z" fill="#EFE1E8"/>
<path d="M254.094 46.5723C254.094 46.5723 246.582 52.8324 233.346 55.0682C231.826 49.2552 232.273 42.1008 234.151 37.7186C234.956 35.8406 236.119 34.2308 237.281 32.8893C244.257 35.0357 249.891 36.3772 250.875 37.5398C253.2 39.9544 254.094 46.5723 254.094 46.5723Z" fill="#E8C6D7"/>
<path d="M207.949 13.6616C205.356 14.6453 203.12 16.4339 201.6 18.8486C201.331 19.2957 201.51 19.9218 201.957 20.1006C202.405 20.3689 202.941 20.1901 203.209 19.7429C203.388 19.4746 203.567 19.2063 203.746 19.0275C203.657 19.1169 203.746 19.0275 203.835 18.938C203.925 18.8486 203.925 18.8486 204.014 18.7592C204.104 18.6697 204.193 18.4909 204.283 18.4014C204.73 17.9543 205.177 17.5072 205.624 17.1494C205.714 17.1494 205.714 17.06 205.803 17.06C206.071 16.8811 205.624 17.1494 205.892 16.9706C205.982 16.8811 206.161 16.7917 206.25 16.7023C206.518 16.5234 206.697 16.3446 206.966 16.2551C207.234 16.0763 207.502 15.9868 207.77 15.808C207.949 15.7185 208.039 15.7185 208.218 15.6291C208.307 15.6291 208.396 15.5397 208.307 15.6291C208.396 15.6291 208.486 15.5397 208.575 15.5397C209.022 15.3608 209.38 14.9136 209.201 14.377C208.933 13.9299 208.396 13.4827 207.949 13.6616Z" fill="#184C89"/>
<path d="M213.583 18.7592C211.348 20.2796 209.47 22.2471 207.949 24.4828C207.681 24.93 207.86 25.556 208.307 25.7348C208.754 26.0031 209.291 25.8243 209.559 25.3772C209.738 25.1089 209.917 24.8405 210.096 24.5723C210.185 24.4828 210.275 24.3039 210.364 24.2145C210.364 24.2145 210.543 23.9462 210.453 24.1251C210.453 24.0357 210.543 24.0357 210.543 23.9462C210.901 23.4991 211.348 22.9625 211.795 22.5154C212.242 22.0682 212.689 21.621 213.136 21.2633C213.226 21.1739 213.405 21.0844 213.494 20.995C213.583 20.9056 213.583 20.9056 213.673 20.8161C213.762 20.7267 213.673 20.8162 213.762 20.7267C214.031 20.5479 214.299 20.369 214.567 20.1901C214.925 19.9218 215.193 19.3853 214.925 18.9381C214.567 18.6698 214.031 18.4909 213.583 18.7592Z" fill="#184C89"/>
<path d="M219.308 24.0357C217.251 25.1983 215.462 26.8975 214.21 28.9544C213.942 29.4015 214.121 30.0275 214.568 30.2064C215.015 30.4747 215.552 30.2958 215.82 29.8487C215.999 29.5804 216.088 29.4015 216.267 29.1332C216.356 29.0438 216.446 28.8649 216.535 28.7755C216.535 28.6861 216.625 28.6861 216.625 28.5966C216.982 28.1495 217.34 27.7918 217.698 27.434C217.877 27.2552 218.056 27.0763 218.234 26.8974C218.324 26.808 218.413 26.7186 218.592 26.6291C218.682 26.6291 218.682 26.5397 218.771 26.5397C219.218 26.182 219.665 25.9137 220.202 25.6454C220.649 25.3771 220.828 24.8405 220.56 24.3934C220.291 23.9462 219.755 23.7674 219.308 24.0357Z" fill="#184C89"/>
<path d="M227.085 27.0763C224.581 28.5072 222.435 30.6535 221.004 33.1576C220.736 33.6048 220.915 34.2308 221.362 34.4097C221.809 34.678 222.345 34.4991 222.614 34.0519C222.793 33.7836 222.971 33.4259 223.15 33.1576C223.24 33.0682 223.329 32.8893 223.419 32.7999C223.508 32.7105 223.508 32.7105 223.597 32.621C223.597 32.621 223.687 32.4422 223.687 32.5316C224.134 31.995 224.581 31.4584 225.028 31.0113C225.476 30.5641 226.012 30.117 226.459 29.7592C226.906 29.4015 227.532 28.9543 228.069 28.6861C228.516 28.4178 228.695 27.8812 228.427 27.4341C228.158 26.9869 227.532 26.808 227.085 27.0763Z" fill="#184C89"/>
<path d="M233.435 30.2064C231.468 31.5478 229.858 33.4259 228.785 35.5722C228.606 36.0194 228.695 36.556 229.142 36.8243C229.589 37.0031 230.216 36.9137 230.394 36.4665C230.663 36.0194 230.931 35.4828 231.199 35.0356C231.378 34.7674 231.468 34.5885 231.646 34.4096C231.646 34.3202 231.736 34.3202 231.736 34.2307C231.825 34.1413 231.915 34.0519 232.004 33.8731C232.362 33.5153 232.72 33.0681 233.077 32.7104C233.256 32.5315 233.524 32.3527 233.703 32.1738C233.793 32.1738 233.793 32.0844 233.882 32.0844C233.972 31.995 234.15 31.9055 234.24 31.8161C234.598 31.5478 234.866 31.0113 234.598 30.5641C234.419 30.1169 233.793 29.8486 233.435 30.2064Z" fill="#184C89"/>
</svg>
