<svg width="535" height="180" viewBox="0 0 535 180" fill="none" xmlns="http://www.w3.org/2000/svg">
<path d="M2.24603 138.994C2.93712 143.745 4.23291 149.188 7.94749 152.557C12.6123 156.617 20.0415 155.926 23.4105 150.57C25.3974 147.46 25.3974 143.4 23.6697 140.204C22.2875 137.612 18.0546 139.426 18.9184 142.19C19.9551 145.473 21.2509 148.842 23.065 151.866C24.7063 154.716 27.1251 157.135 30.4077 157.654C33.604 158.085 36.973 156.79 39.1327 154.371C41.5515 151.779 42.5017 148.41 42.9336 145.041C41.2059 145.041 39.4782 145.041 37.7505 145.041C36.973 151.434 42.3289 158.258 48.8942 158.172C55.2868 158.085 60.9882 151.088 58.5694 144.868C58.0511 143.573 56.8417 142.622 55.3732 143.054C53.9046 143.486 53.3863 144.868 53.5591 146.251C54.0774 149.62 54.7684 153.075 56.7553 155.839C58.6558 158.604 61.5065 160.504 64.8756 160.85C71.2681 161.454 76.0193 153.939 71.8728 148.756C70.4042 146.942 67.3807 148.497 67.4671 150.57C67.5535 157.567 74.0324 162.405 80.5113 163.096C83.794 163.441 87.7677 162.577 90.0137 159.986C92.3461 157.308 92.6917 152.816 89.841 150.224C88.8043 149.274 87.163 149.188 86.2128 150.224C85.2625 151.175 85.1761 152.902 86.2128 153.853C86.2128 153.853 86.7311 154.457 86.5583 154.198C86.8175 154.544 86.5583 154.112 86.7311 154.544C86.8175 154.976 86.7311 154.544 86.7311 154.803C86.7311 154.889 86.7311 155.407 86.7311 155.062C86.6447 155.926 86.2992 156.444 85.7808 156.876C84.2259 158.085 81.7207 158.085 80.0794 157.74C78.0925 157.308 76.2784 156.444 74.8963 155.148C73.5141 153.766 72.7366 152.211 72.6503 150.483C71.1817 151.088 69.7131 151.693 68.2446 152.298C68.331 152.557 67.9854 151.952 68.2446 152.298C68.1582 152.038 68.331 152.643 68.331 152.643C68.5038 153.075 68.331 152.557 68.331 152.816C68.331 152.902 68.331 153.507 68.331 152.989C68.331 153.161 68.2446 153.421 68.1582 153.593C68.1582 153.68 67.899 154.198 68.0718 153.853C67.9854 154.025 67.899 154.198 67.8127 154.284C67.8127 154.284 67.3807 154.889 67.6399 154.63C67.5535 154.803 67.3807 154.889 67.2943 154.976C66.776 155.494 67.4671 154.889 67.1216 155.148C66.9488 155.235 66.776 155.407 66.6033 155.494C66.9488 155.321 66.4305 155.494 66.3441 155.58C65.5666 155.753 64.8756 155.667 64.0117 155.407C59.9516 153.939 59.0877 148.756 58.483 144.868C56.8417 145.3 55.114 145.819 53.4727 146.251C53.559 146.51 53.6454 146.769 53.7318 147.028C53.9046 147.719 53.7318 146.683 53.8182 147.46C53.8182 147.719 53.8182 147.978 53.8182 148.237C53.8182 148.669 53.8182 148.237 53.8182 148.497C53.7318 148.756 53.7318 148.929 53.6454 149.188C53.6454 149.188 53.3863 149.965 53.4727 149.62C53.2135 150.138 52.9543 150.656 52.6088 151.088C52.7816 150.829 52.436 151.261 52.3497 151.347C52.1769 151.52 51.9177 151.779 51.7449 151.952C51.5722 152.125 51.745 151.952 51.4858 152.125C51.2266 152.298 51.0539 152.47 50.7947 152.557C50.1036 152.989 49.3262 153.161 48.4623 153.075C46.9938 152.989 45.1796 151.952 44.2294 150.743C42.8472 149.015 42.5017 147.287 42.7609 145.128C42.9336 143.745 41.4651 142.536 40.1693 142.536C38.6144 142.536 37.7505 143.745 37.5777 145.128C37.3186 147.201 36.6275 149.447 35.1589 150.915C34.5542 151.52 33.7767 152.038 32.9993 152.384C32.1354 152.73 31.2716 152.816 30.4077 152.557C28.68 152.038 27.6434 150.138 26.7795 148.497C25.4838 146.078 24.4471 143.573 23.6697 140.895C22.1147 141.586 20.4734 142.19 18.9184 142.882C19.9551 144.868 19.6095 147.46 17.8818 148.929C17.1907 149.533 15.9813 150.052 15.2039 150.138C14.0809 150.224 13.0442 149.965 12.2668 149.533C11.7484 149.274 11.4893 149.015 11.3165 148.842C11.0574 148.669 10.8846 148.41 10.7118 148.237C10.6254 148.151 10.1935 147.546 10.3663 147.806C10.0207 147.374 9.76158 146.942 9.50243 146.423C9.24327 145.905 8.98411 145.3 8.81134 144.955C7.94749 142.622 7.42917 140.117 7.08363 137.698C6.91086 136.316 5.09677 135.539 3.88737 135.884C2.5052 136.23 1.98688 137.612 2.24603 138.994Z" fill="#F6EAAF"/>
<path d="M88.6311 151.002C89.2358 156.617 91.3954 162.664 97.356 164.564C102.885 166.292 108.932 161.714 107.722 155.753C106.167 156.444 104.526 157.049 102.971 157.74C105.303 163.182 108.673 168.884 115.324 169.316C118.175 169.488 120.939 168.106 122.494 165.601C123.963 163.355 124.222 160.245 122.667 157.999C121.198 158.863 119.643 159.727 118.175 160.591C121.544 165.256 126.554 170.093 132.774 169.229C135.452 168.797 137.871 167.242 139.512 165.083C141.24 162.664 141.499 159.813 140.29 157.135C138.821 157.999 137.266 158.863 135.798 159.727C139.08 165.256 144.523 170.439 151.347 170.525C157.48 170.525 163.7 165.86 163.787 159.468C162.145 159.9 160.59 160.332 158.949 160.763C161.454 166.551 167.415 170.957 173.721 171.389C179.163 171.821 186.247 168.106 185.728 161.8C184.001 162.059 182.359 162.232 180.632 162.491C183.05 168.365 188.406 172.339 194.713 173.117C197.65 173.462 200.932 173.117 203.524 171.475C206.634 169.488 208.621 165.947 206.893 162.318C206.288 161.195 204.733 160.763 203.697 161.282C202.487 161.8 201.969 163.009 202.228 164.305C203.265 169.748 208.016 174.412 213.458 175.19C219.246 176.054 225.293 172.944 227.798 167.588C228.403 166.292 228.144 164.824 226.848 164.046C225.725 163.355 223.911 163.701 223.306 164.996C222.442 166.811 221.233 168.106 219.505 169.056C217.95 169.92 216.05 170.352 214.495 170.093C210.694 169.575 207.843 166.551 207.152 162.837C205.597 163.528 203.956 164.133 202.401 164.824C202.401 164.91 202.401 164.996 202.401 165.083C202.314 165.428 202.228 165.601 202.055 165.86C201.451 166.638 200.587 167.156 199.809 167.415C197.995 168.02 196.008 168.02 194.281 167.674C192.38 167.242 190.566 166.465 189.184 165.342C188.406 164.737 187.629 163.96 187.024 163.182C186.938 163.01 186.592 162.491 186.333 162.146C186.16 161.886 186.074 161.627 185.901 161.368C185.901 161.282 185.556 160.677 185.642 160.936C185.124 159.727 184.174 158.863 182.791 159.122C181.582 159.295 180.459 160.332 180.545 161.627C180.545 161.887 180.545 162.146 180.545 162.405C180.545 163.01 180.718 162.146 180.459 162.664C180.459 162.664 180.2 163.441 180.373 162.923C180.286 163.182 180.113 163.355 180.027 163.528C179.768 163.96 180.2 163.355 179.854 163.787C179.681 163.96 179.595 164.046 179.422 164.219C179.163 164.478 179.077 164.478 178.558 164.824C177.608 165.342 177.004 165.601 175.88 165.774C175.621 165.86 175.362 165.86 174.757 165.86C174.498 165.86 174.239 165.86 173.98 165.86C173.807 165.86 173.721 165.86 173.548 165.86C173.721 165.86 173.721 165.86 173.548 165.86C168.97 165.083 165.255 162.059 163.441 157.74C163.009 156.703 161.54 156.271 160.504 156.531C159.381 156.876 158.603 157.913 158.603 159.036C158.603 160.072 158.431 160.504 157.999 161.368C157.653 162.059 156.876 162.837 156.357 163.269C155.493 163.96 154.63 164.305 153.766 164.564C152.556 164.91 152.038 164.996 150.829 164.91C150.138 164.91 148.842 164.564 148.064 164.219C147.028 163.787 145.905 163.096 145.041 162.405C143.054 160.85 141.499 158.863 140.29 156.703C139.599 155.494 137.957 155.062 136.748 155.753C135.452 156.531 135.279 157.999 135.798 159.295C135.884 159.468 135.884 160.159 135.798 160.504C135.625 161.109 135.279 161.627 134.934 162.059C134.329 162.664 133.984 163.01 133.12 163.355C132.601 163.614 131.737 163.787 131.219 163.787C127.677 163.701 124.654 160.418 122.667 157.654C121.89 156.531 120.421 155.926 119.125 156.703C118.002 157.394 117.397 159.122 118.175 160.245C118.175 160.332 118.52 160.85 118.434 160.591C118.348 160.418 118.52 160.85 118.52 160.85C118.607 161.109 118.607 160.591 118.52 161.023C118.52 161.195 118.52 161.368 118.52 161.541C118.607 161.023 118.261 162.232 118.348 162.059C118.434 161.887 117.829 162.837 118.089 162.578C117.657 163.182 117.225 163.441 116.793 163.528C116.015 163.701 115.324 163.701 114.547 163.441C110.746 162.318 109.018 157.999 107.55 154.63C107.031 153.421 105.39 153.075 104.353 153.594C103.144 154.112 102.626 155.321 102.885 156.617C102.798 156.185 102.798 157.394 102.885 156.963C102.798 157.394 102.798 157.394 102.626 157.654C102.366 158.172 101.934 158.517 101.503 158.863C100.552 159.468 99.4293 159.381 98.2199 158.777C95.1964 157.222 94.2461 153.593 93.9006 150.484C93.7278 149.101 92.7776 147.892 91.309 147.892C89.9269 148.41 88.4583 149.533 88.6311 151.002Z" fill="#F6EAAF"/>
<path d="M224.256 167.07C227.28 171.994 230.649 178.04 237.214 178.127C240.065 178.127 242.743 176.658 244.039 174.153C245.421 171.562 245.248 168.797 243.434 166.551C241.879 164.564 238.164 166.724 239.115 169.056C241.188 174.326 245.335 179.682 251.641 179.423C254.578 179.336 257.169 177.954 258.724 175.449C260.193 173.117 260.279 170.093 258.983 167.674C257.515 165.083 253.455 166.81 254.232 169.661C255.701 174.844 260.798 178.818 266.24 178.559C271.682 178.3 276.606 174.067 277.556 168.711C276.088 169.056 274.706 169.488 273.237 169.834C277.124 174.758 282.135 180.2 289.046 179.682C292.242 179.423 295.093 177.954 296.82 175.19C298.462 172.685 298.634 169.488 297.252 166.81C295.956 164.219 291.637 166.033 292.501 168.797C294.229 174.499 299.671 179.941 306.064 179.25C311.938 178.645 317.38 172.339 315.048 166.378C313.838 163.269 309.433 164.478 310.037 167.761C311.074 173.635 316.257 178.472 322.131 179.25C325.5 179.682 329.215 178.904 331.634 176.399C333.966 173.98 334.83 170.784 334.312 167.501C334.139 166.119 332.325 165.342 331.115 165.687C329.647 166.119 329.128 167.502 329.301 168.884C329.388 169.488 329.301 170.352 328.956 171.13C328.697 171.734 328.178 172.512 327.574 173.03C326.191 174.24 323.686 174.412 322.045 173.98C318.417 173.117 315.652 170.093 314.961 166.378C313.32 166.81 311.592 167.329 309.951 167.761C310.037 168.02 310.124 168.279 310.21 168.538C310.296 168.97 310.21 168.538 310.296 168.797C310.296 169.056 310.296 169.229 310.296 169.488C310.296 169.92 310.296 169.488 310.296 169.748C310.124 170.611 309.864 171.13 309.26 171.994C308.914 172.425 308.137 173.117 307.532 173.462C306.841 173.808 306.064 174.067 305.459 174.153C303.731 174.24 302.09 173.548 300.708 172.425C299.153 171.043 298.03 169.402 297.425 167.415C295.87 168.106 294.229 168.711 292.674 169.402C293.019 170.179 292.587 169.229 292.76 169.661C292.847 169.747 292.933 170.266 292.847 169.92C292.847 170.179 292.847 170.439 292.847 170.698C292.847 170.871 292.76 171.13 292.847 170.784C292.76 171.216 292.587 171.821 292.501 171.907C292.328 172.253 292.069 172.685 291.983 172.771C290.86 174.153 289.132 174.671 287.145 174.412C282.567 173.721 279.37 169.575 276.692 166.119C275.483 164.651 272.632 165.428 272.373 167.242C271.855 170.439 269.177 173.203 266.067 173.289C262.871 173.376 259.847 171.302 259.07 168.193C257.515 168.884 255.874 169.488 254.319 170.179C254.491 170.525 254.664 170.871 254.578 171.389C254.491 171.821 254.319 172.339 253.973 172.857C253.8 173.117 253.368 173.548 252.936 173.721C252.245 174.067 251.381 174.153 250.69 174.067C247.321 173.721 245.162 170.439 244.039 167.501C242.57 168.365 241.188 169.143 239.719 170.007C239.547 169.748 239.719 170.007 239.719 170.093C239.633 169.661 239.719 170.179 239.719 170.266C239.719 170.698 239.719 169.92 239.719 170.352C239.719 170.439 239.719 170.871 239.719 170.611C239.719 170.352 239.374 171.475 239.547 171.13C239.46 171.302 239.374 171.475 239.288 171.562C238.942 172.253 239.46 171.475 239.115 171.734C239.028 171.907 238.856 171.994 238.769 172.08C238.424 172.339 239.201 171.821 238.596 172.253C238.424 172.339 238.337 172.425 238.164 172.512C238.424 172.339 238.078 172.512 237.992 172.512C237.214 172.685 236.696 172.685 235.832 172.425C232.204 171.302 230.39 167.156 228.576 164.132C227.021 161.627 222.529 164.219 224.256 167.07Z" fill="#F6EAAF"/>
<path d="M332.065 170.093C333.62 172.857 335.262 175.535 337.767 177.522C340.186 179.423 343.641 180.459 346.665 179.509C352.798 177.609 353.575 170.352 351.157 165.256C349.688 166.119 348.133 166.983 346.665 167.847C349.429 173.635 354.871 178.473 361.696 177.436C364.719 177.004 367.484 175.19 368.779 172.339C370.075 169.661 370.162 166.379 368.52 163.787C366.706 161.023 362.473 163.441 364.028 166.379C366.533 171.13 371.803 175.881 377.591 174.326C382.342 173.03 386.316 166.81 383.033 162.318C381.305 159.9 377.85 161.368 378.282 164.305C379.318 170.871 386.748 174.326 392.794 174.067C396.25 173.894 399.792 172.512 401.692 169.488C403.506 166.551 403.42 162.664 401.001 160.072C399.014 157.913 395.213 160.763 396.941 163.182C400.396 168.106 406.357 172.857 412.836 171.216C418.451 169.748 422.598 163.269 419.66 157.826C419.056 156.703 417.587 156.271 416.464 156.79C415.255 157.308 414.736 158.517 414.996 159.813C416.119 166.206 422.943 170.611 429.249 169.316C435.728 168.02 439.702 161.109 438.492 154.889C438.233 153.507 436.592 152.73 435.296 153.075C433.828 153.507 433.223 154.889 433.482 156.271C433.828 157.913 433.309 159.727 432.273 161.368C431.236 162.837 429.681 163.96 427.867 164.305C428.213 164.219 427.608 164.305 427.522 164.305C427.262 164.305 426.917 164.305 426.658 164.305C426.226 164.305 426.053 164.305 425.448 164.133C424.412 163.873 423.807 163.614 422.857 162.923C421.302 161.886 420.352 160.245 419.92 158.345C418.365 159.036 416.723 159.64 415.168 160.332C415.514 161.023 415.168 160.159 415.255 160.591C415.341 160.763 415.341 161.023 415.428 161.195C415.341 160.763 415.428 161.455 415.428 161.541C415.428 161.714 415.428 161.886 415.428 162.059C415.514 161.541 415.341 162.405 415.341 162.405C415.341 162.491 415.082 163.096 415.168 162.837C415.255 162.664 414.909 163.269 414.996 163.269C414.909 163.441 414.736 163.701 414.65 163.873C413.873 164.996 412.49 166.033 410.849 166.206C411.195 166.119 410.676 166.206 410.504 166.206C410.244 166.206 409.985 166.206 409.726 166.206C409.381 166.206 408.949 166.119 408.517 165.947C407.566 165.687 406.789 165.342 405.925 164.824C404.111 163.701 402.642 162.146 401.433 160.418C400.051 161.455 398.755 162.491 397.373 163.528C397.632 163.787 397.632 163.701 397.718 164.133C397.805 164.564 397.891 164.651 397.805 165.256C397.805 164.91 397.718 165.428 397.718 165.515C397.632 165.774 397.632 165.947 397.459 166.206C397.546 165.947 397.2 166.638 397.2 166.638C397.027 166.897 397.114 166.81 397.027 166.897C395.645 168.452 393.399 168.711 391.499 168.625C389.685 168.538 387.784 167.933 386.143 166.897C384.588 165.86 383.638 164.564 383.292 162.664C381.737 163.355 380.096 163.96 378.541 164.651C378.627 164.824 378.8 164.996 378.886 165.169C379.059 165.515 378.714 164.824 378.886 165.256C378.973 165.342 379.059 165.86 378.973 165.428C378.973 165.601 378.973 165.774 378.973 165.947C378.973 166.292 378.973 166.119 378.973 165.947C378.973 166.119 378.886 166.379 378.8 166.551C378.8 166.638 378.627 167.07 378.714 166.81C378.8 166.551 378.541 167.156 378.455 167.156C378.195 167.588 378.282 167.502 378.023 167.761C377.936 167.847 377.763 168.02 377.677 168.106C377.591 168.193 377.245 168.452 377.504 168.279C376.813 168.797 376.554 168.97 375.69 169.056C376.036 169.056 375.085 169.056 374.913 168.97C375.085 168.97 374.567 168.884 374.481 168.884C374.308 168.797 374.049 168.797 373.876 168.711C373.271 168.538 372.494 168.106 371.889 167.588C370.421 166.465 369.298 164.91 368.434 163.269C366.965 164.133 365.41 164.996 363.942 165.86C364.719 167.07 364.719 168.365 363.942 169.661C363.164 170.957 361.696 171.821 359.882 171.821C355.562 171.907 352.712 168.279 350.984 164.651C350.379 163.355 348.565 163.096 347.442 163.701C346.146 164.478 345.887 165.947 346.492 167.242C346.578 167.502 346.665 167.674 346.837 168.193C346.924 168.452 346.924 168.625 347.01 168.884C347.01 168.97 347.097 169.488 347.097 169.143C347.183 169.575 347.183 170.007 347.183 170.439C347.183 170.698 347.183 170.871 347.097 171.13C347.183 170.784 347.097 171.303 347.01 171.389C346.924 171.648 346.924 171.821 346.837 172.08C346.837 172.166 346.665 172.426 346.837 172.166C346.751 172.426 346.578 172.598 346.492 172.857C346.405 172.944 346.233 173.203 346.405 172.944C345.887 173.549 345.455 173.808 344.505 173.98C343.9 174.067 343.036 173.894 342.259 173.635C341.568 173.376 340.79 172.857 340.186 172.253C338.544 170.698 337.421 168.711 336.385 166.81C334.916 164.564 330.424 167.156 332.065 170.093Z" fill="#F6EAAF"/>
<path d="M435.815 156.444C437.974 162.75 443.417 168.106 450.587 167.069C453.696 166.638 456.461 164.737 457.756 161.8C458.966 159.036 459.052 155.58 457.152 153.161C456.374 152.125 455.165 151.52 453.956 152.125C452.832 152.643 452.055 153.939 452.487 155.148C454.215 160.504 460.434 164.737 466.049 162.491C471.146 160.504 473.997 153.939 470.973 149.101C469.505 149.965 467.95 150.829 466.481 151.693C469.764 156.358 475.811 160.245 481.685 158.172C484.19 157.308 486.35 155.494 487.646 153.161C489.028 150.57 489.114 147.806 487.991 145.128C487.473 143.918 485.832 143.573 484.795 144.091C483.759 144.523 482.808 145.905 483.327 147.114C485.486 152.211 491.447 155.235 496.716 152.989C501.986 150.743 504.059 144.436 501.899 139.253C500.431 140.117 498.876 140.981 497.407 141.845C500.085 146.855 506.651 149.533 512.007 147.546C517.708 145.473 520.991 139.167 519.609 133.293C518.054 133.984 516.412 134.589 514.857 135.28C517.708 140.722 523.841 144.955 530.061 142.277C532.912 141.067 534.812 138.476 534.985 135.366C535.158 132.602 533.776 129.578 531.184 128.369C529.975 127.764 528.42 128.023 527.642 129.319C526.951 130.442 527.297 132.256 528.593 132.861C528.679 132.861 529.197 133.206 529.025 133.034C528.852 132.947 529.284 133.293 529.37 133.293C529.457 133.379 529.543 133.552 529.457 133.379C529.457 133.379 529.802 133.984 529.716 133.725C529.629 133.466 529.802 134.07 529.888 134.157C529.888 134.243 530.061 134.848 529.975 134.589C529.975 134.329 529.975 135.02 529.975 135.02C529.975 135.193 529.975 135.366 529.975 135.539C530.061 135.02 529.629 136.403 529.888 135.971C529.716 136.403 529.543 136.575 529.37 136.748C528.852 137.266 528.42 137.526 527.642 137.785C527.211 137.958 527.038 137.958 526.692 137.958C526.433 137.958 526.174 137.958 525.915 137.958C525.828 137.958 525.31 137.871 525.569 137.958C524.619 137.871 523.928 137.526 523.15 137.007C521.509 135.971 520.386 134.416 519.436 132.688C518.054 130.01 514.08 131.911 514.685 134.675C515.03 136.143 514.771 137.958 513.993 139.426C513.216 140.895 511.92 142.19 510.452 142.709C507.255 143.832 503.627 142.363 501.986 139.34C501.295 138.13 499.653 137.698 498.444 138.389C497.148 139.167 496.976 140.636 497.494 141.931C497.407 141.759 497.667 142.536 497.667 142.795C497.753 143.054 497.667 142.622 497.667 143.054C497.667 143.227 497.667 143.4 497.667 143.573C497.667 143.659 497.667 144.264 497.667 144.091C497.667 143.918 497.58 144.35 497.58 144.436C497.494 144.868 497.407 145.214 497.235 145.646C497.321 145.387 497.148 145.905 497.062 145.905C496.976 146.078 496.889 146.251 496.803 146.423C496.544 146.855 496.544 146.942 496.284 147.114C495.68 147.719 495.334 148.065 494.643 148.324C493.52 148.756 492.138 148.669 490.929 148.237C490.41 148.065 489.633 147.546 489.287 147.201C489.114 147.028 488.596 146.423 488.683 146.596C488.596 146.423 488.51 146.251 488.423 146.164C488.423 146.164 488.078 145.473 488.164 145.819C486.609 146.51 484.968 147.114 483.413 147.806C483.327 147.546 483.586 148.583 483.499 148.41C483.499 148.237 483.499 149.447 483.499 149.015C483.413 149.965 483.24 150.311 482.808 151.002C482.117 152.211 480.908 153.075 479.612 153.421C478.23 153.766 476.416 153.507 475.034 152.73C473.392 151.866 471.924 150.656 470.887 149.101C470.11 147.978 468.641 147.46 467.345 148.151C466.136 148.842 465.704 150.483 466.395 151.693C466.481 151.866 466.654 152.038 466.741 152.298C466.913 152.643 466.654 151.779 466.827 152.47C466.913 152.643 466.913 152.816 466.913 152.989C466.827 152.557 466.913 153.075 466.913 153.161C466.913 153.334 466.913 153.593 466.913 153.766C466.913 153.939 466.913 154.112 466.913 153.853C466.827 154.284 466.741 154.716 466.568 155.148C466.654 154.803 466.481 155.235 466.481 155.407C466.395 155.58 466.309 155.753 466.222 155.839C466.136 156.012 465.963 156.185 465.877 156.358C466.05 156.099 465.79 156.444 465.704 156.53C465.531 156.703 465.358 156.876 465.272 156.962C465.186 157.049 464.926 157.222 465.186 157.049C465.013 157.135 464.84 157.308 464.667 157.394C464.581 157.394 464.063 157.653 464.495 157.481C463.112 157.999 461.817 157.826 460.521 157.049C459.139 156.271 458.016 154.976 457.584 153.593C456.029 154.284 454.387 154.889 452.833 155.58C453.005 155.753 453.092 155.926 453.264 156.185C453.351 156.271 453.524 156.703 453.437 156.444C453.524 156.703 453.61 156.962 453.696 157.222C453.61 156.962 453.696 157.222 453.696 157.308C453.696 157.567 453.696 157.826 453.696 158.172C453.696 158.258 453.696 158.345 453.696 158.431C453.696 158.258 453.696 158.258 453.696 158.431C453.61 158.776 453.437 159.381 453.437 159.381C452.746 160.85 451.364 161.714 449.636 161.8C445.49 162.059 442.553 158.517 441.257 154.803C440.825 153.507 439.443 152.643 438.061 152.989C436.333 153.593 435.296 155.062 435.815 156.444Z" fill="#F6EAAF"/>
<path d="M517.104 45.1797C515.808 30.3213 514.426 15.2039 512.18 0C511.662 0.259157 405.062 54.5093 265.895 55.2004C129.319 55.8914 23.9288 22.7194 23.4969 22.5466C23.4969 22.5466 10.2799 119.73 0 139.426C0 139.426 143.4 165.774 289.737 169.402C436.074 173.03 533.431 131.392 533.431 131.392C533.431 131.392 519.004 66.6033 517.104 45.1797Z" fill="#F1572B"/>
<path d="M98.0468 82.5846C147.114 92.3462 265.894 55.2004 265.894 55.2004C265.894 55.2004 362.214 99.257 417.328 84.8306C472.442 70.4042 512.179 0 512.179 0C511.661 0.259157 405.061 54.5093 265.894 55.2004C129.318 55.8914 23.928 22.7194 23.4961 22.5466C23.4961 22.5466 48.9798 72.823 98.0468 82.5846Z" fill="#F6EAAF"/>
</svg>
