<svg width="259" height="152" viewBox="0 0 259 152" fill="none" xmlns="http://www.w3.org/2000/svg">
<path d="M248.9 84.1C248.9 84.1 243.1 97.2 234.9 97.6C226.7 98 219.1 55.8 219.1 55.8C219.1 55.8 211.2 90.7 182.4 85.9C153.6 81.1 129.5 10.5 129.5 10.5C129.5 10.5 105.4 81.1 76.6002 85.9C47.8002 90.7 39.9002 55.8 39.9002 55.8C39.9002 55.8 32.4002 98 24.1002 97.6C15.9002 97.2 10.1002 84.1 10.1002 84.1L7.7002 141.9C7.7002 141.9 63.5002 128.4 129.5 128.4C195.5 128.4 251.3 141.9 251.3 141.9L248.9 84.1Z" fill="#FDB93C"/>
<path d="M129.503 69.9673L101.077 98.3927L129.503 126.818L157.928 98.3927L129.503 69.9673Z" fill="#F39925"/>
<path d="M129.503 77.1831L108.36 98.3254L129.503 119.468L150.645 98.3254L129.503 77.1831Z" fill="#FFD992"/>
<path d="M129.432 82.3523L113.381 98.4034L129.432 114.455L145.483 98.4034L129.432 82.3523Z" fill="#DC71AC"/>
<path d="M214.497 87.9177L190.668 111.747L214.497 135.576L238.327 111.747L214.497 87.9177Z" fill="#F39925"/>
<path d="M214.568 94.0693L196.819 111.818L214.568 129.566L232.316 111.818L214.568 94.0693Z" fill="#FFD992"/>
<path d="M214.568 98.314L201.062 111.82L214.568 125.325L228.074 111.82L214.568 98.314Z" fill="#DC71AC"/>
<path d="M44.4142 87.9572L20.585 111.786L44.4142 135.616L68.2435 111.787L44.4142 87.9572Z" fill="#F39925"/>
<path d="M44.4845 94.1101L26.7363 111.858L44.4845 129.606L62.2327 111.858L44.4845 94.1101Z" fill="#FFD992"/>
<path d="M44.4861 98.3434L30.9805 111.849L44.4861 125.355L57.9917 111.849L44.4861 98.3434Z" fill="#DC71AC"/>
<path d="M259 145C259 144.8 259 144.6 259 144.3C259 144.1 258.9 143.9 258.9 143.6C258.9 143.4 258.8 143.2 258.7 143C258.7 142.9 258.6 142.8 258.6 142.7C258.6 142.6 258.5 142.5 258.5 142.4C258.4 142.2 258.3 142 258.2 141.8C258.1 141.6 258 141.4 257.8 141.3C257.7 141.1 257.5 140.9 257.4 140.7C257.3 140.5 257.1 140.4 256.9 140.2C256.7 140 256.6 139.9 256.4 139.7C256.2 139.6 256 139.4 255.8 139.3C255.6 139.2 255.4 139 255.2 138.9C255 138.8 254.8 138.7 254.6 138.6C254.4 138.5 254.3 138.4 254.1 138.4C252 137.8 229.8 131.1 194.6 126.6C194.2 126.5 193.8 126.5 193.3 126.4C193.2 126.4 193.1 126.4 193 126.4C171.1 123.6 150.2 122.5 130.8 122.4C130.4 122.4 130.1 122.4 129.7 122.4C128.9 122.4 128.2 122.4 127.4 122.4C108.5 122.5 88.1 123.6 66.8 126.3C66.3 126.4 65.7 126.4 65.2 126.5C65 126.5 64.8 126.5 64.7 126.6C29.3 131.1 6.89999 137.8 4.89999 138.4C4.69999 138.5 4.59999 138.5 4.39999 138.6C4.19999 138.7 3.90001 138.8 3.70001 138.9C3.50001 139 3.30001 139.1 3.10001 139.3C2.90001 139.4 2.7 139.5 2.5 139.7C2.3 139.8 2.2 140 2 140.2C1.8 140.4 1.7 140.5 1.5 140.7C1.4 140.9 1.20001 141.1 1.10001 141.2C1.00001 141.4 0.800012 141.6 0.700012 141.8C0.600012 142 0.499994 142.2 0.399994 142.4C0.399994 142.5 0.299988 142.6 0.299988 142.7C0.299988 142.8 0.200012 142.9 0.200012 143C0.100012 143.2 0.100006 143.4 0.100006 143.6C6.10203e-06 143.8 0 144.1 0 144.3C0 144.5 0 144.7 0 144.9C0 145.1 0 145.4 0 145.6C0 145.8 0.100006 146 0.100006 146.2C0.100006 146.4 0.100012 146.6 0.200012 146.8C0.200012 146.8 0.199988 146.9 0.299988 146.9V147C0.299988 147.1 0.399994 147.2 0.399994 147.3C0.499994 147.6 0.599988 147.9 0.799988 148.2C0.899988 148.3 0.9 148.4 1 148.6C1.1 148.9 1.3 149.1 1.5 149.3C1.6 149.4 1.69999 149.5 1.79999 149.6C1.99999 149.8 2.2 150 2.5 150.2C2.6 150.3 2.70001 150.4 2.70001 150.4C3.40001 150.9 4.09999 151.3 4.89999 151.6C4.99999 151.6 5.10001 151.6 5.20001 151.7C5.50001 151.8 5.80001 151.9 6.10001 151.9C6.20001 151.9 6.4 151.9 6.5 151.9C6.7 151.9 6.8 151.9 7 151.9C7.1 151.9 7.19999 151.9 7.29999 151.9C7.69999 151.9 8.1 151.8 8.5 151.7C8.6 151.7 8.69999 151.7 8.79999 151.7C18 149.2 27.2 147.1 36.2 145.3C57.9 141.1 91.2 136.4 131 136.5C169.5 136.7 201.7 141.3 222.8 145.3C231.9 147.1 241.1 149.2 250.3 151.7C250.4 151.7 250.5 151.7 250.6 151.7C251 151.8 251.4 151.8 251.8 151.9C251.9 151.9 252 151.9 252.1 151.9C252.3 151.9 252.4 151.9 252.6 151.9C252.7 151.9 252.8 151.9 252.9 151.9C253.3 151.9 253.6 151.8 253.9 151.7C254 151.7 254 151.7 254.1 151.7C254.9 151.4 255.7 151 256.3 150.5C256.4 150.4 256.4 150.4 256.5 150.3C256.7 150.1 257 149.9 257.2 149.6C257.3 149.5 257.4 149.4 257.4 149.3C257.6 149.1 257.7 148.8 257.9 148.6C258 148.5 258 148.4 258.1 148.2C258.2 147.9 258.4 147.6 258.5 147.3C258.5 147.2 258.6 147.1 258.6 147V146.9V146.8C258.7 146.6 258.7 146.4 258.7 146.2C258.7 146 258.8 145.8 258.8 145.5C259 145.5 259 145.2 259 145Z" fill="#FFD992"/>
<path d="M10.6996 86.8999C14.6208 86.8999 17.7996 83.7212 17.7996 79.8C17.7996 75.8787 14.6208 72.7 10.6996 72.7C6.77839 72.7 3.59961 75.8787 3.59961 79.8C3.59961 83.7212 6.77839 86.8999 10.6996 86.8999Z" fill="#FFD992"/>
<path d="M40.3002 59.8999C44.2214 59.8999 47.4002 56.7212 47.4002 52.8C47.4002 48.8787 44.2214 45.7 40.3002 45.7C36.3789 45.7 33.2002 48.8787 33.2002 52.8C33.2002 56.7212 36.3789 59.8999 40.3002 59.8999Z" fill="#FFD992"/>
<path d="M129.5 14.2C133.422 14.2 136.6 11.0212 136.6 7.10001C136.6 3.17878 133.422 0 129.5 0C125.579 0 122.4 3.17878 122.4 7.10001C122.4 11.0212 125.579 14.2 129.5 14.2Z" fill="#FFD992"/>
<path d="M219.7 59.8999C223.621 59.8999 226.8 56.7212 226.8 52.8C226.8 48.8787 223.621 45.7 219.7 45.7C215.778 45.7 212.6 48.8787 212.6 52.8C212.6 56.7212 215.778 59.8999 219.7 59.8999Z" fill="#FFD992"/>
<path d="M248.9 86.8999C252.821 86.8999 256 83.7212 256 79.8C256 75.8787 252.821 72.7 248.9 72.7C244.979 72.7 241.8 75.8787 241.8 79.8C241.8 83.7212 244.979 86.8999 248.9 86.8999Z" fill="#FFD992"/>
</svg>
