<svg width="461" height="136" viewBox="0 0 461 136" fill="none" xmlns="http://www.w3.org/2000/svg">
<path d="M448.019 4.88818C431.903 1.87149 365.933 -5.82899 306.79 7.90485C250.585 20.9242 253.601 30.6094 230.5 31.0857C207.399 30.53 210.415 20.9242 154.21 7.90485C95.0668 -5.82899 29.0967 1.87149 12.9813 4.88818C-1.0701 7.50793 -4.16616 20.051 5.91591 37.1984C15.998 54.3459 69.5044 123.968 111.817 134.05C154.21 144.132 187.473 110.869 198.587 94.6742C209.542 78.7175 217.639 54.8222 230.5 54.3459C243.361 54.8222 251.458 78.7175 262.413 94.6742C273.527 110.79 306.79 144.132 349.183 134.05C391.575 123.968 445.002 54.3459 455.084 37.1984C465.166 19.9716 462.07 7.50793 448.019 4.88818ZM131.981 116.823C97.6866 116.823 60.375 81.496 48.2288 59.3472C36.1621 37.119 43.1481 22.0356 88.5571 19.0189C133.966 16.0023 188.663 26.4813 195.491 44.2638C207.637 75.4627 166.276 116.823 131.981 116.823ZM412.692 59.3472C400.625 81.5754 363.234 116.823 328.939 116.823C294.644 116.823 253.284 75.4627 265.351 44.1844C272.257 26.4019 326.875 15.9229 372.284 18.9396C417.772 22.0356 424.838 37.119 412.692 59.3472Z" fill="#504987"/>
<path opacity="0.47" d="M195.57 44.1844C188.664 26.4019 134.046 15.9229 88.6368 18.9395C43.2278 21.9562 36.1624 37.119 48.3085 59.2678C60.4546 81.496 97.7663 116.744 132.061 116.744C166.277 116.823 207.637 75.4627 195.57 44.1844Z" fill="#504987"/>
<path opacity="0.47" d="M265.429 44.1844C272.335 26.4019 326.953 15.9229 372.362 18.9395C417.771 21.9562 424.837 37.119 412.691 59.2678C400.544 81.496 363.233 116.744 328.938 116.744C294.722 116.823 253.283 75.4627 265.429 44.1844Z" fill="#504987"/>
<path opacity="0.15" d="M121.186 115.791L165.245 26.0049C160.323 24.5759 154.925 23.3852 149.288 22.3531C135.316 48.1537 116.819 82.1311 102.133 109.122C108.404 112.219 114.835 114.521 121.186 115.791Z" fill="white"/>
<path opacity="0.15" d="M84.5081 98.4847C98.1626 73.1604 115.151 41.4059 126.9 19.4953C123.725 19.2571 120.55 19.0189 117.295 18.8602L76.8076 92.5307C79.348 94.5154 81.8884 96.5794 84.5081 98.4847Z" fill="white"/>
<path opacity="0.15" d="M372.999 19.0189L322.668 116.347C324.811 116.664 326.955 116.823 329.019 116.823C331.48 116.823 333.941 116.664 336.402 116.267C350.612 87.2118 369.665 48.2331 383.399 19.9716C380.144 19.654 376.651 19.2571 372.999 19.0189Z" fill="white"/>
</svg>
