<svg width="544" height="263" viewBox="0 0 544 263" fill="none" xmlns="http://www.w3.org/2000/svg">
<path d="M43.2167 59.117C43.2167 59.117 18.5166 50.717 2.81665 73.117C-12.8834 95.517 40.6167 125.217 75.1167 134.917C109.617 144.617 169.617 140.317 169.617 140.317L148.117 101.517L43.2167 59.117Z" fill="#EA6D85"/>
<path d="M43.2168 59.1169L176.217 90.9169C176.217 90.9169 362.617 166.517 389.317 165.617C389.317 165.617 536.717 220.517 543.917 222.217C543.917 222.217 488.617 270.017 400.717 261.317C312.817 252.617 217.317 199.417 173.917 164.017C130.517 128.617 85.3168 68.5169 43.2168 59.1169Z" fill="#392E14"/>
<path d="M176.217 90.917C176.217 90.917 195.017 57.917 205.017 35.617C215.017 13.317 251.617 -5.38304 294.617 1.41696C337.617 8.11696 382.117 31.917 388.717 64.317C395.317 96.717 382.517 127.017 384.417 141.517C386.217 156.017 389.417 165.817 389.417 165.817C389.417 165.817 201.317 133.117 176.217 90.917Z" fill="#392E14"/>
<path d="M176.217 90.917C176.217 90.917 250.817 139.217 304.917 149.817L310.116 140.617C310.116 140.617 218.817 115.017 180.517 83.017C180.617 83.117 175.017 84.817 176.217 90.917Z" fill="#FFC6BD"/>
<path d="M402.317 150.617C402.317 150.617 401.317 162.817 350.417 158.517C354.417 156.017 358.817 152.817 359.917 151.417C369.617 151.517 384.217 142.317 392.217 143.617C400.417 145.017 402.817 148.517 402.317 150.617Z" fill="#E9667E"/>
<path d="M395.917 185.517C396.417 180.117 399.517 175.517 400.917 168.217C402.017 162.217 402.317 156.217 402.517 150.117C402.017 152.017 399.817 152.817 397.817 153.017C391.017 153.717 384.117 151.317 377.317 151.517C371.117 151.717 364.917 153.417 358.717 152.117C358.217 153.017 356.917 154.017 355.317 155.117C355.217 155.117 355.217 155.217 355.117 155.217C353.617 156.217 352.017 157.317 350.417 158.517C356.517 161.217 363.017 175.617 377.917 182.217C382.617 184.017 394.917 189.917 395.917 185.517Z" fill="#E9667E"/>
<path d="M308.617 124.717C308.617 124.717 303.317 135.817 349.417 157.817C347.217 153.717 345.017 148.617 344.817 146.917C336.417 142.117 328.417 126.717 320.917 123.817C313.017 120.817 309.217 122.617 308.617 124.717Z" fill="#E9667E"/>
<path d="M296.417 158.017C299.117 152.317 299.417 145.817 301.317 139.817C303.117 134.317 306.017 129.217 308.717 124.117C307.317 129.517 317.517 132.217 320.917 133.617C325.517 135.517 329.917 138.017 334.017 140.917C336.017 142.317 337.817 144.017 339.917 145.417C340.417 145.817 345.517 148.017 345.517 148.117C345.517 149.217 346.117 150.717 346.917 152.417C346.917 152.517 347.017 152.517 347.017 152.617C347.717 154.217 348.617 156.017 349.417 157.817C342.817 157.117 329.917 166.217 313.717 164.217C308.517 163.517 295.017 162.317 296.417 158.017Z" fill="#E9667E"/>
<path d="M352.616 147.417C356.116 148.717 359.016 147.817 359.916 150.117C360.416 151.517 356.416 163.917 354.716 165.017C353.016 166.117 340.316 161.217 339.816 159.817C339.316 158.417 343.216 146.117 345.016 144.917C346.616 143.917 349.216 146.217 352.616 147.417Z" fill="#FFC6BD"/>
</svg>
