<svg width="486" height="320" viewBox="0 0 486 320" fill="none" xmlns="http://www.w3.org/2000/svg">
<path d="M419.098 121.69C399.459 99.9077 452.715 28.9003 476.556 30.6155C476.556 30.6155 479.557 6.0888 469.266 0C469.266 0 421.928 12.1776 395.086 57.1146C368.244 102.052 367.472 123.834 367.472 123.834L238.492 126.664L109.513 123.834C109.513 123.834 108.827 102.052 81.8986 57.1146C55.0564 12.1776 7.71819 0 7.71819 0C-2.57273 6.17456 0.428789 30.6155 0.428789 30.6155C24.2694 28.9003 77.525 99.9077 57.8865 121.69C38.2479 143.473 0 142.787 0 142.787C14.2358 196.471 44.5083 254.529 99.1359 274.51C160.367 296.893 228.887 305.64 293.291 295.092C341.83 287.203 401.518 274.682 437.193 238.749C460.09 215.766 475.527 185.151 483.502 153.849C483.588 153.335 485.474 144.416 485.56 144.416C485.732 144.502 438.651 143.473 419.098 121.69Z" fill="#6FCCDC"/>
<path d="M147.503 282.057L160.195 314.13C160.195 314.13 188.667 327.337 197.671 314.13L190.639 280.342L147.503 282.057Z" fill="#6FCCDC"/>
<path d="M329.909 281.371L317.217 313.444C317.217 313.444 288.746 326.651 279.741 313.444L286.773 279.656L329.909 281.371Z" fill="#6FCCDC"/>
<path d="M157.709 170.143C157.709 213.537 192.87 248.697 236.263 248.697C279.656 248.697 314.817 213.537 314.817 170.143H157.709Z" fill="#BAEDEF"/>
<path d="M81.9837 57.1146C55.1415 12.1776 7.80327 0 7.80327 0C-2.48766 6.17455 0.51385 30.6155 0.51385 30.6155C19.0375 29.3291 55.1415 71.6077 61.3161 100.851C61.4876 101.794 61.6591 102.823 61.8306 103.767C63.5458 113.629 68.6055 146.131 63.9746 160.71C63.9746 160.71 100.422 173.059 110.884 160.71C110.884 160.71 110.541 140.3 109.598 123.834V123.748C109.512 122.119 107.797 100.336 81.9837 57.1146Z" fill="#BAEDEF"/>
<path d="M409.407 167.656C409.407 167.656 409.835 113.972 416.525 97.5065C424.586 68.5204 458.717 29.3291 476.555 30.6155C476.555 30.6155 479.556 6.0888 469.266 0C469.266 0 421.927 12.1776 395.085 57.1146C368.243 102.052 367.471 123.834 367.471 123.834C367.471 123.834 361.64 156.336 362.326 166.027C362.326 166.027 398.172 173.488 409.407 167.656Z" fill="#BAEDEF"/>
<path d="M85.5858 151.191C91.7903 151.191 96.8201 146.161 96.8201 139.957C96.8201 133.752 91.7903 128.722 85.5858 128.722C79.3813 128.722 74.3516 133.752 74.3516 139.957C74.3516 146.161 79.3813 151.191 85.5858 151.191Z" fill="#FEBC2A"/>
<path d="M384.967 156.422C391.171 156.422 396.201 151.392 396.201 145.188C396.201 138.983 391.171 133.953 384.967 133.953C378.762 133.953 373.732 138.983 373.732 145.188C373.732 151.392 378.762 156.422 384.967 156.422Z" fill="#FEBC2A"/>
</svg>
