<svg width="296" height="151" viewBox="0 0 296 151" fill="none" xmlns="http://www.w3.org/2000/svg">
<path d="M0.134361 142.363C0.134361 142.363 54.2551 59.619 143.098 61.1072C229.768 62.6435 284.664 138.082 293.818 150.373C293.818 150.373 204.263 88.745 140.908 83.7739C77.5533 78.8027 0.134361 142.363 0.134361 142.363Z" fill="#F1572B"/>
<path d="M107.085 68.6188C107.085 68.6188 116.964 53.9554 114.985 40.9663C113.004 28.0577 122.333 23.2064 131.744 12.8828C141.236 2.56034 151.705 2.23377 151.705 2.23377C151.705 2.23377 145.694 16.6329 145.981 24.3646C146.268 32.0964 131.158 52.1551 122.676 59.5144C114.115 66.8724 107.085 68.6188 107.085 68.6188Z" fill="#F1572B"/>
<path d="M85.8121 70.1523C85.8121 70.1523 76.6475 69.3714 65.8361 65.6682C55.0235 62.0454 36.7555 56.3794 21.1094 58.3995C5.46221 60.5 1.20774 65.1051 1.20774 65.1051C1.20774 65.1051 7.79588 71.3211 20.1891 76.8993C32.5824 82.4776 42.2766 90.9133 60.2481 84.0983C78.2196 77.2833 85.8121 70.1523 85.8121 70.1523Z" fill="#F1572B"/>
<path d="M76.2087 66.467C76.2087 66.467 76.623 71.0614 78.218 77.4442C79.7326 83.8259 82.608 90.7109 85.9232 89.714C89.2383 88.7171 90.4323 84.2273 94.6243 83.8069C98.8955 83.4683 114.438 82.976 115.806 77.6033C117.175 72.2306 112.237 57.9094 106.109 58.6228C99.8988 59.4155 79.4038 62.7316 76.2087 66.467Z" fill="#DD4D2C"/>
</svg>
