<svg width="398" height="102" viewBox="0 0 398 102" fill="none" xmlns="http://www.w3.org/2000/svg">
<path d="M202.092 16.4341C155.637 16.5155 109.182 13.5053 62.8892 9.2747C42.2244 7.40349 19.9325 6.34587 0 0C0 0 17.3291 36.6921 80.137 65.0045L98.9305 94.6999C98.9305 94.6999 143.677 106.822 164.911 99.7441V90.0625L198.268 90.7134L233.089 90.0625V99.7441C254.323 106.822 299.069 94.6999 299.069 94.6999L317.863 65.0045C380.671 36.6921 398 0 398 0C377.661 6.58994 354.799 7.48485 333.728 9.43743C305.659 11.9595 277.428 13.7493 249.279 15.2138C233.496 16.0274 217.794 16.3528 202.092 16.4341Z" fill="#B0D353"/>
<mask id="mask0_424_382" style="mask-type:luminance" maskUnits="userSpaceOnUse" x="0" y="0" width="398" height="102">
<path d="M202.092 16.4341C155.637 16.5155 109.182 13.5053 62.8892 9.2747C42.2244 7.40349 19.9325 6.34587 0 0C0 0 17.3291 36.6921 80.137 65.0045L98.9305 94.6999C98.9305 94.6999 143.677 106.822 164.911 99.7441V90.0625L198.268 90.7134L233.089 90.0625V99.7441C254.323 106.822 299.069 94.6999 299.069 94.6999L317.863 65.0045C380.671 36.6921 398 0 398 0C377.661 6.58994 354.799 7.48485 333.728 9.43743C305.659 11.9595 277.428 13.7493 249.279 15.2138C233.496 16.0274 217.794 16.3528 202.092 16.4341Z" fill="white"/>
</mask>
<g mask="url(#mask0_424_382)">
<path d="M20.0138 -9.68155C24.7326 0.406757 30.9971 9.68151 38.4006 17.8986C46.1295 26.4411 55.1602 33.4378 64.9231 39.4583C70.2113 42.7126 75.5809 45.8855 80.7064 49.3838C85.4251 52.5568 89.8998 56.1365 94.1303 59.9603C102.673 67.6892 109.832 76.6385 115.934 86.4014C123.094 97.7101 129.277 109.588 137.901 119.921C138.714 120.897 140.504 120.816 141.318 119.921C142.294 118.944 142.131 117.48 141.318 116.504C133.833 107.554 128.3 97.2219 122.199 87.3777C116.097 77.3708 109.181 68.0147 100.802 59.7976C96.6524 55.7298 92.1778 51.9059 87.459 48.4889C82.4962 44.8279 77.2894 41.6549 72.0825 38.482C66.8756 35.3091 61.5874 32.0547 56.706 28.3937C52.394 25.2207 48.4075 21.641 44.6651 17.8172C36.1226 9.11198 29.2072 -0.976307 24.0817 -11.9595C23.5122 -13.1799 21.8037 -13.424 20.746 -12.8545C19.6884 -12.285 19.4443 -10.8206 20.0138 -9.68155Z" fill="#E9FCAE"/>
<path d="M79.2422 3.01007C87.0525 19.4442 101.859 30.8343 115.202 42.4684C122.199 48.5702 128.789 54.9974 134.728 62.1568C140.667 69.3977 145.874 77.208 150.267 85.5064C155.23 94.8625 159.216 104.707 161.983 114.958C162.796 117.968 167.515 116.666 166.701 113.656C161.657 95.1879 152.952 77.7775 141.318 62.645C135.541 55.0788 129.033 48.2448 121.955 41.8989C115.202 35.8785 108.124 30.1834 101.534 23.9189C94.2933 17.0849 87.7847 9.60001 83.4727 0.56935C82.9032 -0.651009 81.1947 -0.895062 80.1371 -0.32556C78.8354 0.406656 78.6727 1.87107 79.2422 3.01007Z" fill="#E9FCAE"/>
<path d="M144.49 9.68138C149.209 22.6986 155.311 35.2276 161.738 47.4312C168.328 59.9602 175.324 72.3265 182.077 84.7742C186.064 92.015 189.969 99.1744 193.955 106.415C195.501 109.181 199.65 106.741 198.186 103.975C191.27 91.2828 184.274 78.6724 177.358 65.9807C170.768 53.9398 164.097 41.8989 158.158 29.5326C154.822 22.6172 151.812 15.5391 149.209 8.37968C148.721 7.15932 147.582 6.34572 146.199 6.67115C144.978 7.07794 144.083 8.46102 144.49 9.68138Z" fill="#E9FCAE"/>
<path d="M197.21 0.894888C201.197 14.9697 204.288 29.2886 206.322 43.7702C208.356 58.1705 209.414 72.652 209.576 87.215C209.658 95.5134 209.414 103.812 208.844 112.029C208.763 113.331 210.064 114.47 211.285 114.47C212.668 114.47 213.644 113.331 213.726 112.029C214.702 97.3033 214.783 82.5776 213.726 67.8519C212.749 53.0449 210.715 38.3192 207.786 23.7563C206.159 15.6205 204.207 7.56621 201.929 -0.406809C201.034 -3.41703 196.315 -2.19669 197.21 0.894888Z" fill="#E9FCAE"/>
<path d="M260.587 5.12553C262.296 20.9902 261.076 36.9362 256.926 52.3128C253.021 66.713 247.082 80.5438 242.933 94.8626C240.574 102.998 238.784 111.297 238.296 119.758C238.214 121.06 239.516 122.199 240.736 122.199C242.119 122.199 243.096 121.06 243.177 119.758C244.153 104.951 249.197 90.7948 254.079 76.8827C256.601 69.8046 259.042 62.8079 261.076 55.5671C263.272 47.9195 264.737 40.1905 265.55 32.2988C266.445 23.2682 266.445 14.1562 265.469 5.12553C265.306 3.82382 264.411 2.68481 263.028 2.68481C261.889 2.68481 260.506 3.82382 260.587 5.12553Z" fill="#E9FCAE"/>
<path d="M307.693 0.0812854C305.985 17.1663 300.615 33.8446 291.991 48.733C287.435 56.5433 282.228 63.9468 278.079 72.0012C274.093 79.6488 270.838 87.7031 268.398 96.0016C265.632 105.358 263.923 115.121 263.272 124.883C263.191 126.185 264.493 127.324 265.713 127.324C267.096 127.324 268.072 126.185 268.154 124.883C269.293 107.88 273.849 91.1201 281.496 75.9877C285.564 67.9333 290.69 60.5298 295.246 52.8008C299.72 45.2346 303.381 37.2616 306.229 29.0445C309.402 19.6884 311.517 10.0069 312.493 0.24401C312.656 -1.05771 311.273 -2.19671 310.053 -2.19671C308.67 -2.35942 307.775 -1.30179 307.693 0.0812854Z" fill="#E9FCAE"/>
<path d="M370.908 -6.18316C368.305 9.68151 357.159 22.0478 346.338 33.1124C340.562 39.0515 334.623 44.8279 329.579 51.3365C324.372 58.0078 320.141 65.2486 317.213 73.2216C314.04 82.0082 312.494 91.4456 312.738 100.802C312.819 103.975 317.701 103.975 317.619 100.802C317.131 84.4489 322.501 68.5842 332.345 55.5671C342.189 42.6312 355.288 32.4616 364.807 19.2003C370.013 12.0409 374.081 3.90517 375.546 -4.88142C375.79 -6.18313 375.22 -7.48486 373.837 -7.89165C372.698 -8.21708 371.071 -7.48488 370.908 -6.18316Z" fill="#E9FCAE"/>
</g>
</svg>
