<svg width="197" height="157" viewBox="0 0 197 157" fill="none" xmlns="http://www.w3.org/2000/svg">
<path d="M196.439 93.7764C196.439 93.7764 188.856 115.495 98.3301 83.7595C106.662 81.1383 116.304 77.3937 118.925 75.4278C136.525 80.2022 167.418 70.3726 181.366 76.4576C195.596 82.7298 198.311 90.1254 196.439 93.7764Z" fill="#92BD41"/>
<path d="M168.353 154.158C171.817 144.516 179.681 137.682 185.485 125.044C190.259 114.652 193.629 103.887 197 92.9338C195.221 96.1167 190.821 96.4911 187.17 95.9294C174.438 93.9635 163.111 86.3807 150.567 83.4787C139.239 80.8575 127.069 81.0447 116.491 75.8022C115.087 77.2065 112.278 78.4234 109.002 79.6404C108.908 79.6404 108.721 79.7341 108.627 79.7341C105.538 80.8575 101.98 82.0745 98.6104 83.4787C108.346 91.2487 113.495 120.55 137.461 139.367C145.043 145.358 164.515 161.741 168.353 154.158Z" fill="#B0D353"/>
<path d="M38.2297 2.68902C38.2297 2.68902 23.345 20.2886 96.739 82.0745C94.6795 73.5555 93.088 63.3515 93.4625 60.075C80.45 47.3433 73.148 15.7015 60.7909 6.90169C48.2465 -2.27257 40.4764 -0.774729 38.2297 2.68902Z" fill="#92BD41"/>
<path d="M0.59599 57.5474C8.27241 48.3731 11.7361 36.7649 18.0083 26.7481C23.8125 17.5738 31.4889 9.61657 38.7908 1.6593C33.7356 10.8336 50.9608 20.4759 56.4841 24.5949C64.0669 30.2118 70.8071 36.7649 76.9857 43.9732C79.9814 47.437 82.509 51.3688 85.5047 54.8325C86.3472 55.7687 94.3981 62.2282 94.3981 62.4154C93.93 64.3813 94.3045 67.377 94.9598 70.8407C94.9598 70.9343 95.0534 71.1215 95.0534 71.2152C95.7087 74.4917 96.4576 78.1427 96.9257 81.7C85.2238 77.3001 57.5138 87.6914 28.9613 76.6448C20.0679 73.1811 -4.08475 64.7557 0.59599 57.5474Z" fill="#B0D353"/>
<path d="M107.598 64.5685C113.402 68.5939 119.019 68.313 119.487 72.9002C119.768 75.8022 106.662 96.3976 103.105 97.5209C99.5474 98.6443 78.7649 83.8532 78.484 81.1383C78.2032 78.4235 91.0284 57.7346 94.8666 56.5176C98.3304 55.4878 101.981 60.7303 107.598 64.5685Z" fill="#92BD41"/>
</svg>
