<svg width="573" height="239" viewBox="0 0 573 239" fill="none" xmlns="http://www.w3.org/2000/svg">
<path d="M509.837 0C509.347 0.244824 405.786 42.4363 277.172 52.1476C148.476 61.9406 48.5875 21.4629 48.1794 21.2997C47.3633 48.6385 51.0357 75.8956 62.216 99.8067C89.3915 157.749 182.914 226.707 296.595 223.933C353.802 222.545 409.703 203.776 453.772 170.235C470.502 157.504 484.701 142.814 497.187 126.493C515.304 102.663 516.529 70.9175 514.57 42.6811C513.509 28.5629 511.958 14.363 509.837 0Z" fill="#6FCCDC"/>
<path d="M497.514 125.595C497.514 125.595 575.858 208.835 572.594 212.916C569.329 216.996 510.572 222.709 496.698 214.548C482.825 206.387 450.998 212.1 431.412 224.341C411.826 236.582 385.711 239.03 369.39 233.318C353.068 227.605 313.08 222.709 294.31 233.318C275.54 243.927 229.84 238.214 214.252 228.176C198.665 218.139 150.68 206.387 127.829 217.812C104.979 229.237 80.4967 208.019 59.2786 203.123C38.0605 198.226 -8.45615 209.651 1.33683 198.226C11.1298 186.801 78.3749 125.758 78.3749 125.758C78.0485 125.595 136.806 148.445 285.333 146.813C433.86 145.181 497.514 125.595 497.514 125.595Z" fill="#6FCCDC"/>
<mask id="mask0_424_433" style="mask-type:luminance" maskUnits="userSpaceOnUse" x="48" y="0" width="468" height="225">
<path d="M509.839 0C509.349 0.244824 405.788 42.4363 277.174 52.1476C148.478 61.9406 48.5894 21.4629 48.1814 21.2997C47.3653 48.6385 51.0377 75.8956 62.218 99.8067C89.3935 157.749 182.916 226.707 296.597 223.933C353.804 222.545 409.705 203.776 453.774 170.235C470.503 157.504 484.703 142.814 497.189 126.493C515.306 102.663 516.53 70.9175 514.572 42.6811C513.511 28.5629 511.96 14.363 509.839 0Z" fill="white"/>
</mask>
<g mask="url(#mask0_424_433)">
<path d="M100.818 59.982C108.255 59.982 114.283 53.9533 114.283 46.5166C114.283 39.0799 108.255 33.0513 100.818 33.0513C93.3812 33.0513 87.3525 39.0799 87.3525 46.5166C87.3525 53.9533 93.3812 59.982 100.818 59.982Z" fill="#BAEDEF"/>
<path d="M206.664 64.8784C214.1 64.8784 220.129 58.8498 220.129 51.4131C220.129 43.9764 214.1 37.9478 206.664 37.9478C199.227 37.9478 193.198 43.9764 193.198 51.4131C193.198 58.8498 199.227 64.8784 206.664 64.8784Z" fill="#BAEDEF"/>
<path d="M148.721 102.173C156.158 102.173 162.187 96.1447 162.187 88.708C162.187 81.2713 156.158 75.2427 148.721 75.2427C141.284 75.2427 135.256 81.2713 135.256 88.708C135.256 96.1447 141.284 102.173 148.721 102.173Z" fill="#BAEDEF"/>
<path d="M105.062 128.696C112.499 128.696 118.527 122.667 118.527 115.231C118.527 107.794 112.499 101.765 105.062 101.765C97.6253 101.765 91.5967 107.794 91.5967 115.231C91.5967 122.667 97.6253 128.696 105.062 128.696Z" fill="#BAEDEF"/>
<path d="M253.344 105.683C260.781 105.683 266.81 99.6539 266.81 92.2172C266.81 84.7805 260.781 78.7518 253.344 78.7518C245.908 78.7518 239.879 84.7805 239.879 92.2172C239.879 99.6539 245.908 105.683 253.344 105.683Z" fill="#BAEDEF"/>
<path d="M337.237 105.764C344.674 105.764 350.702 99.7355 350.702 92.2988C350.702 84.8621 344.674 78.8335 337.237 78.8335C329.8 78.8335 323.771 84.8621 323.771 92.2988C323.771 99.7355 329.8 105.764 337.237 105.764Z" fill="#BAEDEF"/>
<path d="M425.537 93.6861C432.973 93.6861 439.002 87.6575 439.002 80.2208C439.002 72.7841 432.973 66.7554 425.537 66.7554C418.1 66.7554 412.071 72.7841 412.071 80.2208C412.071 87.6575 418.1 93.6861 425.537 93.6861Z" fill="#BAEDEF"/>
<path d="M498.004 85.3621C505.441 85.3621 511.47 79.3335 511.47 71.8968C511.47 64.4601 505.441 58.4314 498.004 58.4314C490.568 58.4314 484.539 64.4601 484.539 71.8968C484.539 79.3335 490.568 85.3621 498.004 85.3621Z" fill="#BAEDEF"/>
<path d="M464.627 37.8662C472.064 37.8662 478.093 31.8375 478.093 24.4008C478.093 16.9641 472.064 10.9355 464.627 10.9355C457.191 10.9355 451.162 16.9641 451.162 24.4008C451.162 31.8375 457.191 37.8662 464.627 37.8662Z" fill="#BAEDEF"/>
<path d="M383.917 51.3315C391.353 51.3315 397.382 45.3029 397.382 37.8662C397.382 30.4295 391.353 24.4008 383.917 24.4008C376.48 24.4008 370.451 30.4295 370.451 37.8662C370.451 45.3029 376.48 51.3315 383.917 51.3315Z" fill="#BAEDEF"/>
<path d="M387.589 132.695C395.026 132.695 401.055 126.666 401.055 119.23C401.055 111.793 395.026 105.764 387.589 105.764C380.153 105.764 374.124 111.793 374.124 119.23C374.124 126.666 380.153 132.695 387.589 132.695Z" fill="#BAEDEF"/>
<path d="M464.627 125.595C472.064 125.595 478.093 119.566 478.093 112.13C478.093 104.693 472.064 98.6642 464.627 98.6642C457.191 98.6642 451.162 104.693 451.162 112.13C451.162 119.566 457.191 125.595 464.627 125.595Z" fill="#BAEDEF"/>
<path d="M299.779 64.8784C307.216 64.8784 313.244 58.8498 313.244 51.4131C313.244 43.9764 307.216 37.9478 299.779 37.9478C292.342 37.9478 286.313 43.9764 286.313 51.4131C286.313 58.8498 292.342 64.8784 299.779 64.8784Z" fill="#BAEDEF"/>
<path d="M299.779 142.161C307.216 142.161 313.244 136.133 313.244 128.696C313.244 121.259 307.216 115.231 299.779 115.231C292.342 115.231 286.313 121.259 286.313 128.696C286.313 136.133 292.342 142.161 299.779 142.161Z" fill="#BAEDEF"/>
<path d="M206.011 139.06C213.448 139.06 219.477 133.032 219.477 125.595C219.477 118.158 213.448 112.13 206.011 112.13C198.575 112.13 192.546 118.158 192.546 125.595C192.546 133.032 198.575 139.06 206.011 139.06Z" fill="#BAEDEF"/>
<path d="M57.4849 88.708C64.9216 88.708 70.9502 82.6794 70.9502 75.2427C70.9502 67.806 64.9216 61.7773 57.4849 61.7773C50.0482 61.7773 44.0195 67.806 44.0195 75.2427C44.0195 82.6794 50.0482 88.708 57.4849 88.708Z" fill="#BAEDEF"/>
</g>
<path d="M78.0484 125.595C78.0484 125.595 147.415 142.733 285.333 146.813C423.251 150.893 497.514 125.595 497.514 125.595C497.514 125.595 504.369 121.188 505.838 111.966C505.838 111.966 413.784 130.981 291.046 129.675C170.021 128.37 78.0484 111.722 78.0484 111.722L67.7658 110.171C67.6842 110.171 69.8876 123.963 78.0484 125.595Z" fill="#FFD992"/>
</svg>
