<svg width="92" height="92" viewBox="0 0 92 92" fill="none" xmlns="http://www.w3.org/2000/svg">
<path d="M45.8618 91.7237C71.1913 91.7237 91.7237 71.1913 91.7237 45.8618C91.7237 20.5323 71.1913 0 45.8618 0C20.5323 0 0 20.5323 0 45.8618C0 71.1913 20.5323 91.7237 45.8618 91.7237Z" fill="#8C86B3"/>
<path d="M62.2819 42.2661H37.9246L45.9967 34.0324C47.3577 32.6441 47.3577 30.3463 45.9967 28.9581C45.3344 28.2904 44.4406 27.916 43.5094 27.916C42.5781 27.916 41.6844 28.2904 41.022 28.9581L26.9426 43.3193C25.5816 44.7075 25.5816 47.0053 26.9426 48.3935L41.022 62.7547C41.726 63.4727 42.6177 63.8078 43.5094 63.8078C44.4011 63.8078 45.2928 63.4727 45.9967 62.7547C47.3577 61.3664 47.3577 59.0687 45.9967 57.6804L37.9246 49.4467H62.2819C64.2061 49.4467 65.8017 47.8191 65.8017 45.8564C65.8017 43.8937 64.2061 42.2661 62.2819 42.2661Z" fill="white"/>
</svg>
