<svg width="1440" height="521" viewBox="0 0 1440 521" fill="none" xmlns="http://www.w3.org/2000/svg">
<ellipse cx="-37.14" cy="374.466" rx="439.898" ry="267.288" transform="rotate(-3.61131 -37.14 374.466)" fill="#514886"/>
<ellipse cx="226.398" cy="426.498" rx="439.898" ry="267.288" transform="rotate(-3.61131 226.398 426.498)" fill="#514886"/>
<ellipse cx="699.86" cy="374.466" rx="439.898" ry="267.288" transform="rotate(-3.61131 699.86 374.466)" fill="#514886"/>
<ellipse cx="1235.86" cy="398.466" rx="439.898" ry="267.288" transform="rotate(-3.61131 1235.86 398.466)" fill="#514886"/>
<g clip-path="url(#clip0_427_5445)">
<path d="M1357.14 305.329C1357.14 329.678 1336.87 349.427 1311.85 349.427C1286.83 349.427 1266.56 329.693 1266.56 305.329C1266.56 280.965 1286.83 261.231 1311.85 261.231C1336.87 261.231 1357.14 280.965 1357.14 305.329Z" fill="white"/>
<path d="M1218.74 331.985C1220.91 331.739 1222.88 330.047 1223.07 327.77C1223.21 326.002 1224.43 318.234 1224.43 318.234C1224.43 318.234 1225.47 326.032 1225.79 327.77C1226.26 330.354 1227.84 331.677 1230.12 331.985C1231.92 332.216 1239.91 333.308 1239.91 333.308C1239.91 333.308 1231.92 334.4 1230.12 334.63C1227.24 335 1226.07 336.799 1225.8 338.845C1225.57 340.598 1224.43 348.381 1224.43 348.381C1224.43 348.381 1223.24 340.598 1223.07 338.845C1222.82 336.492 1221.05 334.876 1218.76 334.63C1216.94 334.43 1208.96 333.308 1208.96 333.308C1208.96 333.308 1216.96 332.185 1218.76 331.985H1218.74Z" fill="white"/>
<path d="M968.74 302.884C970.336 302.699 971.773 301.469 971.915 299.792C972.026 298.5 972.911 292.809 972.911 292.809C972.911 292.809 973.669 298.531 973.906 299.792C974.253 301.684 975.422 302.653 977.081 302.884C978.408 303.068 984.268 303.853 984.268 303.853C984.268 303.853 978.408 304.652 977.081 304.822C974.964 305.099 974.127 306.406 973.906 307.913C973.732 309.205 972.911 314.896 972.911 314.896C972.911 314.896 972.042 309.19 971.915 307.913C971.726 306.175 970.43 305.006 968.756 304.822C967.429 304.683 961.568 303.853 961.568 303.853C961.568 303.853 967.429 303.037 968.756 302.884H968.74Z" fill="white"/>
<path d="M748.737 361.332C750.332 361.148 751.77 359.917 751.912 358.241C752.022 356.948 752.907 351.257 752.907 351.257C752.907 351.257 753.665 356.979 753.902 358.241C754.25 360.132 755.419 361.101 757.078 361.332C758.404 361.517 764.265 362.301 764.265 362.301C764.265 362.301 758.404 363.101 757.078 363.27C754.961 363.547 754.123 364.854 753.902 366.362C753.729 367.638 752.907 373.345 752.907 373.345C752.907 373.345 752.038 367.638 751.912 366.362C751.722 364.624 750.427 363.455 748.753 363.27C747.426 363.132 741.565 362.301 741.565 362.301C741.565 362.301 747.426 361.486 748.753 361.332H748.737Z" fill="white"/>
<path d="M1377.9 212.135C1380.3 211.858 1382.49 209.981 1382.7 207.459C1382.86 205.505 1384.2 196.876 1384.2 196.876C1384.2 196.876 1385.35 205.521 1385.71 207.459C1386.25 210.335 1388.01 211.796 1390.52 212.135C1392.51 212.396 1401.39 213.611 1401.39 213.611C1401.39 213.611 1392.51 214.826 1390.52 215.088C1387.33 215.503 1386.03 217.487 1385.71 219.764C1385.45 221.717 1384.2 230.346 1384.2 230.346C1384.2 230.346 1382.89 221.717 1382.68 219.764C1382.41 217.149 1380.44 215.365 1377.9 215.088C1375.89 214.872 1367.01 213.626 1367.01 213.626C1367.01 213.626 1375.89 212.381 1377.9 212.15V212.135Z" fill="white"/>
<path d="M1284.74 214.334C1286.07 214.18 1287.28 213.15 1287.4 211.75C1287.49 210.673 1288.23 205.89 1288.23 205.89C1288.23 205.89 1288.86 210.673 1289.07 211.75C1289.35 213.334 1290.33 214.149 1291.72 214.334C1292.83 214.488 1297.74 215.149 1297.74 215.149C1297.74 215.149 1292.83 215.826 1291.72 215.964C1289.95 216.195 1289.24 217.287 1289.07 218.548C1288.93 219.625 1288.23 224.409 1288.23 224.409C1288.23 224.409 1287.51 219.625 1287.4 218.548C1287.25 217.103 1286.16 216.118 1284.74 215.964C1283.64 215.841 1278.72 215.149 1278.72 215.149C1278.72 215.149 1283.64 214.457 1284.74 214.334Z" fill="white"/>
<path d="M819.712 202.444C821.039 202.29 822.255 201.26 822.366 199.86C822.461 198.784 823.203 194 823.203 194C823.203 194 823.835 198.784 824.04 199.86C824.325 201.445 825.304 202.26 826.694 202.444C827.8 202.598 832.713 203.259 832.713 203.259C832.713 203.259 827.8 203.936 826.694 204.075C824.925 204.305 824.214 205.397 824.04 206.659C823.898 207.735 823.203 212.519 823.203 212.519C823.203 212.519 822.476 207.735 822.366 206.659C822.224 205.213 821.134 204.229 819.712 204.075C818.606 203.952 813.693 203.259 813.693 203.259C813.693 203.259 818.606 202.567 819.712 202.444Z" fill="white"/>
<path d="M677.019 446.329C678.346 446.175 679.562 445.144 679.672 443.745C679.767 442.668 680.51 437.885 680.51 437.885C680.51 437.885 681.142 442.668 681.347 443.745C681.631 445.329 682.611 446.144 684.001 446.329C685.107 446.483 690.019 447.144 690.019 447.144C690.019 447.144 685.107 447.821 684.001 447.959C682.232 448.19 681.521 449.282 681.347 450.543C681.205 451.62 680.51 456.404 680.51 456.404C680.51 456.404 679.783 451.62 679.672 450.543C679.53 449.097 678.44 448.113 677.019 447.959C675.913 447.836 671 447.144 671 447.144C671 447.144 675.913 446.452 677.019 446.329Z" fill="white"/>
<path d="M1345.94 364.685C1347.27 364.531 1348.48 363.501 1348.59 362.101C1348.69 361.025 1349.43 356.241 1349.43 356.241C1349.43 356.241 1350.06 361.025 1350.27 362.101C1350.55 363.685 1351.53 364.501 1352.92 364.685C1354.03 364.839 1358.94 365.5 1358.94 365.5C1358.94 365.5 1354.03 366.177 1352.92 366.316C1351.15 366.546 1350.44 367.638 1350.27 368.9C1350.12 369.976 1349.43 374.76 1349.43 374.76C1349.43 374.76 1348.7 369.976 1348.59 368.9C1348.45 367.454 1347.36 366.469 1345.94 366.316C1344.83 366.193 1339.92 365.5 1339.92 365.5C1339.92 365.5 1344.83 364.808 1345.94 364.685Z" fill="white"/>
<path opacity="0.4" d="M1243.67 422.857C1243.67 438.976 1257.08 452.035 1273.64 452.035C1290.19 452.035 1303.6 438.976 1303.6 422.857C1303.6 406.737 1290.19 393.679 1273.64 393.679C1257.08 393.679 1243.67 406.737 1243.67 422.857Z" fill="white"/>
<path opacity="0.6" d="M1151.64 472C1159.3 472 1165.51 465.954 1165.51 458.495C1165.51 451.037 1159.3 444.991 1151.64 444.991C1143.98 444.991 1137.77 451.037 1137.77 458.495C1137.77 465.954 1143.98 472 1151.64 472Z" fill="white"/>
<path opacity="0.6" d="M1115 374.745C1115 382.204 1121.21 388.249 1128.87 388.249C1136.53 388.249 1142.74 382.204 1142.74 374.745C1142.74 367.285 1136.53 361.24 1128.87 361.24C1121.21 361.24 1115 367.285 1115 374.745Z" fill="white"/>
<path opacity="0.6" d="M1211.7 268.414C1211.7 281.15 1222.3 291.486 1235.38 291.486C1248.46 291.486 1259.07 281.165 1259.07 268.414C1259.07 255.663 1248.47 245.343 1235.38 245.343C1222.28 245.343 1211.7 255.663 1211.7 268.414Z" fill="white"/>
<path d="M1249.99 330.739C1249.99 334.107 1252.8 336.845 1256.26 336.845C1259.72 336.845 1262.53 334.107 1262.53 330.739C1262.53 327.37 1259.72 324.633 1256.26 324.633C1252.8 324.633 1249.99 327.37 1249.99 330.739Z" fill="white"/>
<path d="M1330.43 242.035C1330.43 243.774 1331.88 245.189 1333.66 245.189C1335.45 245.189 1336.9 243.774 1336.9 242.035C1336.9 240.297 1335.45 238.882 1333.66 238.882C1331.88 238.882 1330.43 240.297 1330.43 242.035Z" fill="white"/>
<path d="M1319.37 357.395C1319.37 359.133 1320.82 360.548 1322.61 360.548C1324.39 360.548 1325.84 359.133 1325.84 357.395C1325.84 355.657 1324.39 354.241 1322.61 354.241C1320.82 354.241 1319.37 355.657 1319.37 357.395Z" fill="white"/>
<path d="M1248.28 302.791C1248.28 304.529 1249.74 305.944 1251.52 305.944C1253.31 305.944 1254.76 304.529 1254.76 302.791C1254.76 301.053 1253.31 299.638 1251.52 299.638C1249.74 299.638 1248.28 301.053 1248.28 302.791Z" fill="white"/>
<path d="M1366.76 283.565C1366.76 285.303 1368.21 286.718 1370 286.718C1371.78 286.718 1373.24 285.303 1373.24 283.565C1373.24 281.827 1371.78 280.412 1370 280.412C1368.21 280.412 1366.76 281.827 1366.76 283.565Z" fill="white"/>
<path d="M1237.22 360.471C1237.22 362.209 1238.68 363.624 1240.46 363.624C1242.25 363.624 1243.7 362.209 1243.7 360.471C1243.7 358.733 1242.25 357.318 1240.46 357.318C1238.68 357.318 1237.22 358.733 1237.22 360.471Z" fill="white"/>
<path d="M1184.3 267.414C1184.3 269.153 1185.76 270.568 1187.54 270.568C1189.33 270.568 1190.78 269.153 1190.78 267.414C1190.78 265.676 1189.33 264.261 1187.54 264.261C1185.76 264.261 1184.3 265.676 1184.3 267.414Z" fill="white"/>
<path d="M1302.78 233.576C1302.78 235.314 1304.23 236.729 1306.02 236.729C1307.8 236.729 1309.26 235.314 1309.26 233.576C1309.26 231.838 1307.8 230.423 1306.02 230.423C1304.23 230.423 1302.78 231.838 1302.78 233.576Z" fill="white"/>
<path d="M1150.34 329.708C1150.34 331.447 1151.79 332.862 1153.58 332.862C1155.36 332.862 1156.82 331.447 1156.82 329.708C1156.82 327.97 1155.36 326.555 1153.58 326.555C1151.79 326.555 1150.34 327.97 1150.34 329.708Z" fill="white"/>
<path d="M1266.72 262.031C1266.72 263.769 1268.17 265.184 1269.96 265.184C1271.74 265.184 1273.19 263.769 1273.19 262.031C1273.19 260.293 1271.74 258.878 1269.96 258.878C1268.17 258.878 1266.72 260.293 1266.72 262.031Z" fill="white"/>
<path d="M1184.57 313.297C1184.57 315.035 1186.03 316.45 1187.81 316.45C1189.6 316.45 1191.05 315.035 1191.05 313.297C1191.05 311.559 1189.6 310.144 1187.81 310.144C1186.03 310.144 1184.57 311.559 1184.57 313.297Z" fill="white"/>
<path d="M1185.63 210.765C1185.63 212.504 1187.08 213.919 1188.87 213.919C1190.65 213.919 1192.11 212.504 1192.11 210.765C1192.11 209.027 1190.65 207.612 1188.87 207.612C1187.08 207.612 1185.63 209.027 1185.63 210.765Z" fill="white"/>
<path d="M1062.42 331.677C1062.42 333.415 1063.87 334.83 1065.65 334.83C1067.44 334.83 1068.89 333.415 1068.89 331.677C1068.89 329.939 1067.44 328.524 1065.65 328.524C1063.87 328.524 1062.42 329.939 1062.42 331.677Z" fill="white"/>
<path d="M944.46 237.344C944.46 239.082 945.913 240.497 947.698 240.497C949.483 240.497 950.937 239.082 950.937 237.344C950.937 235.606 949.483 234.191 947.698 234.191C945.913 234.191 944.46 235.606 944.46 237.344Z" fill="white"/>
<path opacity="0.6" d="M1384.83 335.092C1384.83 338.583 1387.74 341.413 1391.32 341.413C1394.91 341.413 1397.82 338.583 1397.82 335.092C1397.82 331.6 1394.91 328.77 1391.32 328.77C1387.74 328.77 1384.83 331.6 1384.83 335.092Z" fill="white"/>
<path opacity="0.6" d="M966.48 452.758C966.48 456.25 969.387 459.08 972.973 459.08C976.559 459.08 979.466 456.25 979.466 452.758C979.466 449.267 976.559 446.436 972.973 446.436C969.387 446.436 966.48 449.267 966.48 452.758Z" fill="white"/>
<path opacity="0.6" d="M1374.25 268.184C1374.25 273.259 1378.46 277.366 1383.68 277.366C1388.89 277.366 1393.11 273.259 1393.11 268.184C1393.11 263.108 1388.89 259.001 1383.68 259.001C1378.46 259.001 1374.25 263.108 1374.25 268.184Z" fill="white"/>
<path opacity="0.6" d="M1287.85 371.238C1293.06 371.238 1297.28 367.127 1297.28 362.055C1297.28 356.984 1293.06 352.873 1287.85 352.873C1282.64 352.873 1278.42 356.984 1278.42 362.055C1278.42 367.127 1282.64 371.238 1287.85 371.238Z" fill="white"/>
<path opacity="0.6" d="M997.19 371.238C1002.4 371.238 1006.62 367.127 1006.62 362.055C1006.62 356.984 1002.4 352.873 997.19 352.873C991.982 352.873 987.759 356.984 987.759 362.055C987.759 367.127 991.982 371.238 997.19 371.238Z" fill="white"/>
<path opacity="0.6" d="M1117.23 365.008C1117.23 368.592 1120.22 371.499 1123.9 371.499C1127.58 371.499 1130.56 368.592 1130.56 365.008C1130.56 361.425 1127.58 358.517 1123.9 358.517C1120.22 358.517 1117.23 361.425 1117.23 365.008Z" fill="white"/>
<path opacity="0.6" d="M1207.68 417.966C1207.68 421.55 1210.67 424.457 1214.35 424.457C1218.03 424.457 1221 421.55 1221 417.966C1221 414.382 1218.01 411.49 1214.35 411.49C1210.69 411.49 1207.68 414.397 1207.68 417.966Z" fill="white"/>
</g>
<g clip-path="url(#clip1_427_5445)">
<path d="M294.712 346.322C294.712 369.357 275.551 388.041 251.893 388.041C228.236 388.041 209.074 369.371 209.074 346.322C209.074 323.273 228.236 304.604 251.893 304.604C275.551 304.604 294.712 323.273 294.712 346.322Z" fill="white"/>
<path d="M163.865 371.54C165.911 371.307 167.778 369.706 167.957 367.553C168.092 365.879 169.242 358.531 169.242 358.531C169.242 358.531 170.227 365.908 170.526 367.553C170.974 369.997 172.468 371.249 174.618 371.54C176.321 371.758 183.878 372.791 183.878 372.791C183.878 372.791 176.321 373.824 174.618 374.042C171.9 374.392 170.795 376.094 170.541 378.029C170.317 379.688 169.242 387.051 169.242 387.051C169.242 387.051 168.122 379.688 167.957 378.029C167.718 375.803 166.046 374.275 163.88 374.042C162.162 373.853 154.62 372.791 154.62 372.791C154.62 372.791 162.177 371.729 163.88 371.54H163.865Z" fill="white"/>
<path d="M595.105 489.521C596.614 489.347 597.973 488.183 598.107 486.597C598.212 485.374 599.048 479.99 599.048 479.99C599.048 479.99 599.765 485.403 599.989 486.597C600.318 488.386 601.423 489.303 602.991 489.521C604.231 489.696 609.786 490.438 609.786 490.438C609.786 490.438 604.246 491.195 602.991 491.355C601.005 491.617 600.198 492.854 599.989 494.28C599.825 495.487 599.048 500.886 599.048 500.886C599.048 500.886 598.227 495.487 598.107 494.28C597.928 492.635 596.703 491.53 595.105 491.355C593.851 491.224 588.31 490.438 588.31 490.438C588.31 490.438 593.851 489.667 595.105 489.521Z" fill="white"/>
<path d="M517.875 259.611C520.071 259.364 522.072 257.647 522.266 255.333C522.415 253.543 523.64 245.656 523.64 245.656C523.64 245.656 524.7 253.572 525.014 255.333C525.507 257.967 527.105 259.291 529.405 259.611C531.227 259.858 539.337 260.964 539.337 260.964C539.337 260.964 531.227 262.07 529.405 262.303C526.493 262.681 525.313 264.5 525.029 266.581C524.79 268.356 523.64 276.258 523.64 276.258C523.64 276.258 522.445 268.371 522.266 266.581C522.012 264.18 520.22 262.565 517.89 262.303C516.053 262.114 507.958 260.964 507.958 260.964C507.958 260.964 516.068 259.829 517.89 259.611H517.875Z" fill="white"/>
<path d="M314.337 258.156C316.607 257.894 318.683 256.119 318.878 253.732C319.027 251.884 320.296 243.721 320.296 243.721C320.296 243.721 321.387 251.899 321.73 253.732C322.238 256.453 323.896 257.836 326.271 258.156C328.152 258.403 336.546 259.553 336.546 259.553C336.546 259.553 328.152 260.702 326.271 260.95C323.254 261.343 322.029 263.22 321.73 265.373C321.476 267.221 320.296 275.385 320.296 275.385C320.296 275.385 319.057 267.221 318.863 265.373C318.609 262.9 316.742 261.212 314.337 260.95C312.44 260.746 304.047 259.567 304.047 259.567C304.047 259.567 312.44 258.389 314.337 258.17V258.156Z" fill="white"/>
<path d="M590.072 344.11C591.626 343.936 593.044 342.713 593.179 341.084C593.283 339.818 594.15 334.245 594.15 334.245C594.15 334.245 594.896 339.847 595.12 341.084C595.464 342.946 596.599 343.892 598.227 344.11C599.511 344.285 605.262 345.056 605.262 345.056C605.262 345.056 599.526 345.842 598.227 346.002C596.166 346.264 595.33 347.559 595.12 349.029C594.941 350.295 594.135 355.882 594.135 355.882C594.135 355.882 593.283 350.295 593.149 349.029C592.97 347.341 591.7 346.191 590.057 346.002C588.758 345.871 583.023 345.056 583.023 345.056C583.023 345.056 588.758 344.256 590.057 344.11H590.072Z" fill="white"/>
<path d="M226.265 260.237C227.519 260.091 228.669 259.116 228.774 257.792C228.863 256.774 229.565 252.248 229.565 252.248C229.565 252.248 230.163 256.774 230.357 257.792C230.626 259.291 231.552 260.062 232.866 260.237C233.911 260.382 238.556 261.008 238.556 261.008C238.556 261.008 233.911 261.648 232.866 261.779C231.193 261.998 230.521 263.031 230.357 264.224C230.222 265.242 229.565 269.768 229.565 269.768C229.565 269.768 228.878 265.242 228.774 264.224C228.639 262.856 227.609 261.925 226.265 261.779C225.219 261.663 220.574 261.008 220.574 261.008C220.574 261.008 225.219 260.353 226.265 260.237Z" fill="white"/>
<path d="M829.723 263.947C830.978 263.802 832.128 262.827 832.232 261.503C832.322 260.484 833.024 255.959 833.024 255.959C833.024 255.959 833.621 260.484 833.815 261.503C834.084 263.002 835.01 263.773 836.324 263.947C837.37 264.093 842.015 264.719 842.015 264.719C842.015 264.719 837.37 265.359 836.324 265.49C834.652 265.708 833.98 266.741 833.815 267.934C833.681 268.953 833.024 273.478 833.024 273.478C833.024 273.478 832.337 268.953 832.232 267.934C832.098 266.567 831.067 265.635 829.723 265.49C828.678 265.373 824.033 264.719 824.033 264.719C824.033 264.719 828.678 264.064 829.723 263.947Z" fill="white"/>
<path d="M284.123 402.476C285.378 402.33 286.528 401.355 286.633 400.031C286.722 399.013 287.424 394.487 287.424 394.487C287.424 394.487 288.022 399.013 288.216 400.031C288.485 401.53 289.41 402.301 290.725 402.476C291.77 402.621 296.415 403.247 296.415 403.247C296.415 403.247 291.77 403.887 290.725 404.018C289.052 404.236 288.38 405.27 288.216 406.463C288.081 407.481 287.424 412.007 287.424 412.007C287.424 412.007 286.737 407.481 286.633 406.463C286.498 405.095 285.468 404.164 284.123 404.018C283.078 403.902 278.433 403.247 278.433 403.247C278.433 403.247 283.078 402.592 284.123 402.476Z" fill="white"/>
<path opacity="0.4" d="M187.433 457.509C187.433 472.758 200.113 485.112 215.765 485.112C231.417 485.112 244.097 472.758 244.097 457.509C244.097 442.259 231.417 429.905 215.765 429.905C200.113 429.905 187.433 442.259 187.433 457.509Z" fill="white"/>
<path opacity="0.6" d="M100.42 504C107.662 504 113.533 498.28 113.533 491.224C113.533 484.168 107.662 478.448 100.42 478.448C93.1776 478.448 87.3066 484.168 87.3066 491.224C87.3066 498.28 93.1776 504 100.42 504Z" fill="white"/>
<path opacity="0.6" d="M65.7852 411.992C65.7852 419.05 71.6547 424.768 78.8983 424.768C86.1419 424.768 92.0115 419.05 92.0115 411.992C92.0115 404.935 86.1419 399.216 78.8983 399.216C71.6547 399.216 65.7852 404.935 65.7852 411.992Z" fill="white"/>
<path opacity="0.6" d="M157.204 311.399C157.204 323.448 167.225 333.226 179.592 333.226C191.958 333.226 201.994 323.462 201.994 311.399C201.994 299.336 191.973 289.572 179.592 289.572C167.21 289.572 157.204 299.336 157.204 311.399Z" fill="white"/>
<path d="M193.407 370.361C193.407 373.548 196.065 376.138 199.336 376.138C202.607 376.138 205.265 373.548 205.265 370.361C205.265 367.174 202.607 364.584 199.336 364.584C196.065 364.584 193.407 367.174 193.407 370.361Z" fill="white"/>
<path d="M269.457 286.444C269.457 288.088 270.831 289.427 272.519 289.427C274.206 289.427 275.58 288.088 275.58 286.444C275.58 284.799 274.206 283.461 272.519 283.461C270.831 283.461 269.457 284.799 269.457 286.444Z" fill="white"/>
<path d="M259.002 395.578C259.002 397.223 260.376 398.561 262.064 398.561C263.752 398.561 265.126 397.223 265.126 395.578C265.126 393.934 263.752 392.595 262.064 392.595C260.376 392.595 259.002 393.934 259.002 395.578Z" fill="white"/>
<path d="M191.793 343.921C191.793 345.566 193.167 346.904 194.855 346.904C196.543 346.904 197.917 345.566 197.917 343.921C197.917 342.277 196.543 340.938 194.855 340.938C193.167 340.938 191.793 342.277 191.793 343.921Z" fill="white"/>
<path d="M303.808 325.732C303.808 327.376 305.182 328.715 306.87 328.715C308.557 328.715 309.932 327.376 309.932 325.732C309.932 324.088 308.557 322.749 306.87 322.749C305.182 322.749 303.808 324.088 303.808 325.732Z" fill="white"/>
<path d="M181.339 398.489C181.339 400.133 182.713 401.472 184.401 401.472C186.088 401.472 187.462 400.133 187.462 398.489C187.462 396.844 186.088 395.506 184.401 395.506C182.713 395.506 181.339 396.844 181.339 398.489Z" fill="white"/>
<path d="M131.306 310.453C131.306 312.098 132.68 313.436 134.367 313.436C136.055 313.436 137.429 312.098 137.429 310.453C137.429 308.809 136.055 307.47 134.367 307.47C132.68 307.47 131.306 308.809 131.306 310.453Z" fill="white"/>
<path d="M243.32 278.441C243.32 280.085 244.694 281.424 246.382 281.424C248.07 281.424 249.444 280.085 249.444 278.441C249.444 276.796 248.07 275.458 246.382 275.458C244.694 275.458 243.32 276.796 243.32 278.441Z" fill="white"/>
<path d="M99.1953 369.386C99.1953 371.03 100.569 372.369 102.257 372.369C103.945 372.369 105.319 371.03 105.319 369.386C105.319 367.742 103.945 366.403 102.257 366.403C100.569 366.403 99.1953 367.742 99.1953 369.386Z" fill="white"/>
<path d="M382.218 308.271C382.218 309.915 383.592 311.254 385.28 311.254C386.968 311.254 388.342 309.915 388.342 308.271C388.342 306.626 386.968 305.288 385.28 305.288C383.592 305.288 382.218 306.626 382.218 308.271Z" fill="white"/>
<path d="M209.223 305.36C209.223 307.005 210.597 308.343 212.285 308.343C213.973 308.343 215.347 307.005 215.347 305.36C215.347 303.716 213.973 302.377 212.285 302.377C210.597 302.377 209.223 303.716 209.223 305.36Z" fill="white"/>
<path d="M131.56 353.86C131.56 355.504 132.934 356.843 134.621 356.843C136.309 356.843 137.683 355.504 137.683 353.86C137.683 352.216 136.309 350.877 134.621 350.877C132.934 350.877 131.56 352.216 131.56 353.86Z" fill="white"/>
<path d="M132.561 256.861C132.561 258.505 133.935 259.844 135.622 259.844C137.31 259.844 138.684 258.505 138.684 256.861C138.684 255.217 137.31 253.878 135.622 253.878C133.935 253.878 132.561 255.217 132.561 256.861Z" fill="white"/>
<path d="M16.0654 371.249C16.0654 372.893 17.4395 374.232 19.1272 374.232C20.8148 374.232 22.1889 372.893 22.1889 371.249C22.1889 369.604 20.8148 368.266 19.1272 368.266C17.4395 368.266 16.0654 369.604 16.0654 371.249Z" fill="white"/>
<path opacity="0.6" d="M320.894 374.479C320.894 377.782 323.642 380.46 327.032 380.46C330.423 380.46 333.171 377.782 333.171 374.479C333.171 371.176 330.423 368.498 327.032 368.498C323.642 368.498 320.894 371.176 320.894 374.479Z" fill="white"/>
<path opacity="0.6" d="M310.887 311.181C310.887 315.983 314.875 319.868 319.804 319.868C324.732 319.868 328.72 315.983 328.72 311.181C328.72 306.379 324.732 302.494 319.804 302.494C314.875 302.494 310.887 306.379 310.887 311.181Z" fill="white"/>
<path opacity="0.6" d="M229.206 408.675C234.131 408.675 238.123 404.785 238.123 399.987C238.123 395.19 234.131 391.3 229.206 391.3C224.282 391.3 220.29 395.19 220.29 399.987C220.29 404.785 224.282 408.675 229.206 408.675Z" fill="white"/>
<path opacity="0.6" d="M67.8906 402.781C67.8906 406.172 70.7134 408.922 74.1933 408.922C77.6732 408.922 80.496 406.172 80.496 402.781C80.496 399.391 77.6732 396.641 74.1933 396.641C70.7134 396.641 67.8906 399.391 67.8906 402.781Z" fill="white"/>
<path opacity="0.6" d="M153.41 452.881C153.41 456.272 156.233 459.022 159.713 459.022C163.193 459.022 166.001 456.272 166.001 452.881C166.001 449.491 163.178 446.755 159.713 446.755C156.248 446.755 153.41 449.505 153.41 452.881Z" fill="white"/>
</g>
<defs>
<clipPath id="clip0_427_5445">
<rect width="1265" height="278" fill="white" transform="translate(671 194)"/>
</clipPath>
<clipPath id="clip1_427_5445">
<rect width="1196" height="263" fill="white" transform="translate(-354 241)"/>
</clipPath>
</defs>
</svg>
