<svg width="1440" height="960" viewBox="0 0 1440 960" fill="none" xmlns="http://www.w3.org/2000/svg">
<g clip-path="url(#clip0_389_310)">
<rect width="1440" height="960" fill="white"/>
<rect width="1440" height="960" fill="#403580"/>
<g clip-path="url(#clip1_389_310)">
<path d="M299.282 265.697C299.282 284.002 284.061 298.85 265.27 298.85C246.478 298.85 231.258 284.014 231.258 265.697C231.258 247.38 246.478 232.544 265.27 232.544C284.061 232.544 299.282 247.38 299.282 265.697Z" fill="white"/>
<path d="M195.347 285.737C196.973 285.552 198.455 284.28 198.598 282.568C198.705 281.239 199.618 275.399 199.618 275.399C199.618 275.399 200.401 281.262 200.638 282.568C200.994 284.511 202.181 285.506 203.889 285.737C205.241 285.91 211.244 286.731 211.244 286.731C211.244 286.731 205.241 287.552 203.889 287.726C201.73 288.003 200.852 289.356 200.65 290.894C200.472 292.212 199.618 298.064 199.618 298.064C199.618 298.064 198.728 292.212 198.598 290.894C198.408 289.125 197.079 287.911 195.359 287.726C193.995 287.575 188.004 286.731 188.004 286.731C188.004 286.731 194.007 285.887 195.359 285.737H195.347Z" fill="#FFD655"/>
<path d="M537.888 379.494C539.086 379.355 540.166 378.43 540.273 377.17C540.356 376.199 541.02 371.92 541.02 371.92C541.02 371.92 541.589 376.222 541.767 377.17C542.028 378.592 542.906 379.321 544.152 379.494C545.137 379.633 549.55 380.223 549.55 380.223C549.55 380.223 545.148 380.824 544.152 380.951C542.574 381.159 541.933 382.142 541.767 383.276C541.637 384.235 541.02 388.525 541.02 388.525C541.02 388.525 540.367 384.235 540.273 383.276C540.13 381.969 539.157 381.09 537.888 380.951C536.891 380.847 532.49 380.223 532.49 380.223C532.49 380.223 536.891 379.61 537.888 379.494Z" fill="#FFD655"/>
<path d="M476.543 196.79C478.287 196.593 479.877 195.229 480.031 193.39C480.15 191.968 481.122 185.7 481.122 185.7C481.122 185.7 481.965 191.991 482.214 193.39C482.605 195.483 483.875 196.535 485.702 196.79C487.149 196.986 493.591 197.865 493.591 197.865C493.591 197.865 487.149 198.744 485.702 198.929C483.388 199.23 482.451 200.675 482.226 202.329C482.036 203.739 481.122 210.019 481.122 210.019C481.122 210.019 480.173 203.751 480.031 202.329C479.829 200.421 478.406 199.137 476.555 198.929C475.096 198.779 468.666 197.865 468.666 197.865C468.666 197.865 475.108 196.963 476.555 196.79H476.543Z" fill="#FA506D"/>
<path d="M7.5993 263.859C8.79749 263.72 9.87706 262.795 9.98383 261.534C10.0669 260.563 10.7312 256.284 10.7312 256.284C10.7312 256.284 11.3007 260.586 11.4786 261.534C11.7396 262.957 12.6175 263.685 13.8631 263.859C14.8596 263.997 19.2609 264.587 19.2609 264.587C19.2609 264.587 14.8596 265.188 13.8631 265.316C12.2734 265.524 11.6447 266.507 11.4786 267.64C11.3481 268.611 10.7312 272.89 10.7312 272.89C10.7312 272.89 10.0787 268.6 9.98383 267.64C9.84148 266.333 8.86869 265.454 7.61118 265.316C6.61466 265.211 2.21338 264.587 2.21338 264.587C2.21338 264.587 6.61466 263.974 7.61118 263.859H7.5993Z" fill="#FFD655"/>
<path d="M314.87 195.633C316.673 195.425 318.322 194.015 318.477 192.118C318.595 190.65 319.604 184.162 319.604 184.162C319.604 184.162 320.47 190.661 320.742 192.118C321.146 194.281 322.463 195.379 324.349 195.633C325.844 195.83 332.511 196.744 332.511 196.744C332.511 196.744 325.844 197.657 324.349 197.854C321.952 198.166 320.98 199.658 320.742 201.369C320.541 202.838 319.604 209.325 319.604 209.325C319.604 209.325 318.619 202.838 318.465 201.369C318.263 199.403 316.78 198.062 314.87 197.854C313.363 197.692 306.696 196.755 306.696 196.755C306.696 196.755 313.363 195.818 314.87 195.645V195.633Z" fill="#FFD655"/>
<path d="M533.89 263.939C535.124 263.801 536.251 262.829 536.358 261.534C536.441 260.528 537.129 256.099 537.129 256.099C537.129 256.099 537.722 260.551 537.9 261.534C538.173 263.014 539.074 263.766 540.367 263.939C541.388 264.078 545.955 264.691 545.955 264.691C545.955 264.691 541.399 265.316 540.367 265.443C538.73 265.651 538.066 266.68 537.9 267.848C537.757 268.854 537.117 273.294 537.117 273.294C537.117 273.294 536.441 268.854 536.334 267.848C536.191 266.507 535.183 265.593 533.878 265.443C532.846 265.339 528.291 264.691 528.291 264.691C528.291 264.691 532.846 264.055 533.878 263.939H533.89Z" fill="#FFD655"/>
<path d="M244.912 197.287C245.909 197.171 246.823 196.397 246.906 195.344C246.977 194.535 247.534 190.939 247.534 190.939C247.534 190.939 248.009 194.535 248.163 195.344C248.377 196.535 249.112 197.148 250.156 197.287C250.987 197.403 254.676 197.9 254.676 197.9C254.676 197.9 250.987 198.409 250.156 198.513C248.827 198.686 248.294 199.507 248.163 200.455C248.056 201.265 247.534 204.861 247.534 204.861C247.534 204.861 246.989 201.265 246.906 200.455C246.799 199.369 245.98 198.628 244.912 198.513C244.082 198.42 240.393 197.9 240.393 197.9C240.393 197.9 244.082 197.38 244.912 197.287Z" fill="#FFD655"/>
<path d="M724.248 200.236C725.245 200.12 726.158 199.345 726.241 198.293C726.313 197.484 726.87 193.887 726.87 193.887C726.87 193.887 727.345 197.484 727.499 198.293C727.712 199.484 728.448 200.097 729.492 200.236C730.322 200.351 734.012 200.849 734.012 200.849C734.012 200.849 730.322 201.357 729.492 201.461C728.163 201.635 727.629 202.456 727.499 203.404C727.392 204.214 726.87 207.81 726.87 207.81C726.87 207.81 726.324 204.214 726.241 203.404C726.135 202.317 725.316 201.577 724.248 201.461C723.418 201.369 719.729 200.849 719.729 200.849C719.729 200.849 723.418 200.328 724.248 200.236Z" fill="#FFD655"/>
<path d="M290.87 310.321C291.867 310.205 292.78 309.431 292.864 308.378C292.935 307.569 293.492 303.973 293.492 303.973C293.492 303.973 293.967 307.569 294.121 308.378C294.335 309.569 295.07 310.182 296.114 310.321C296.944 310.437 300.634 310.934 300.634 310.934C300.634 310.934 296.944 311.443 296.114 311.547C294.785 311.72 294.252 312.541 294.121 313.489C294.014 314.299 293.492 317.895 293.492 317.895C293.492 317.895 292.947 314.299 292.864 313.489C292.757 312.402 291.938 311.662 290.87 311.547C290.04 311.454 286.351 310.934 286.351 310.934C286.351 310.934 290.04 310.413 290.87 310.321Z" fill="#FFD655"/>
<path opacity="0.4" d="M214.068 354.054C214.068 366.173 224.14 375.99 236.573 375.99C249.005 375.99 259.077 366.173 259.077 354.054C259.077 341.936 249.005 332.118 236.573 332.118C224.14 332.118 214.068 341.936 214.068 354.054Z" fill="#FFD655"/>
<path opacity="0.6" d="M144.952 391C150.705 391 155.368 386.454 155.368 380.847C155.368 375.24 150.705 370.694 144.952 370.694C139.2 370.694 134.536 375.24 134.536 380.847C134.536 386.454 139.2 391 144.952 391Z" fill="#FFD655"/>
<path opacity="0.6" d="M117.441 317.884C117.441 323.492 122.104 328.036 127.857 328.036C133.611 328.036 138.273 323.492 138.273 317.884C138.273 312.275 133.611 307.731 127.857 307.731C122.104 307.731 117.441 312.275 117.441 317.884Z" fill="#FFD655"/>
<path opacity="0.6" d="M190.057 237.945C190.057 247.519 198.017 255.29 207.84 255.29C217.662 255.29 225.635 247.531 225.635 237.945C225.635 228.358 217.674 220.599 207.84 220.599C198.005 220.599 190.057 228.358 190.057 237.945Z" fill="#FFD655"/>
<path d="M218.813 284.8C218.813 287.333 220.925 289.391 223.523 289.391C226.121 289.391 228.232 287.333 228.232 284.8C228.232 282.268 226.121 280.209 223.523 280.209C220.925 280.209 218.813 282.268 218.813 284.8Z" fill="#FFD655"/>
<path d="M279.221 218.113C279.221 219.42 280.312 220.484 281.653 220.484C282.993 220.484 284.085 219.42 284.085 218.113C284.085 216.806 282.993 215.742 281.653 215.742C280.312 215.742 279.221 216.806 279.221 218.113Z" fill="#FFD655"/>
<path d="M270.917 304.84C270.917 306.147 272.008 307.21 273.348 307.21C274.689 307.21 275.78 306.147 275.78 304.84C275.78 303.533 274.689 302.469 273.348 302.469C272.008 302.469 270.917 303.533 270.917 304.84Z" fill="#FFD655"/>
<path d="M217.532 263.789C217.532 265.096 218.623 266.16 219.964 266.16C221.304 266.16 222.396 265.096 222.396 263.789C222.396 262.482 221.304 261.419 219.964 261.419C218.623 261.419 217.532 262.482 217.532 263.789Z" fill="#FFD655"/>
<path d="M306.506 249.335C306.506 250.641 307.598 251.705 308.938 251.705C310.279 251.705 311.37 250.641 311.37 249.335C311.37 248.028 310.279 246.964 308.938 246.964C307.598 246.964 306.506 248.028 306.506 249.335Z" fill="#FFD655"/>
<path d="M209.228 307.153C209.228 308.459 210.319 309.523 211.659 309.523C213 309.523 214.091 308.459 214.091 307.153C214.091 305.846 213 304.782 211.659 304.782C210.319 304.782 209.228 305.846 209.228 307.153Z" fill="#FFD655"/>
<path d="M169.485 237.193C169.485 238.5 170.577 239.563 171.917 239.563C173.258 239.563 174.349 238.5 174.349 237.193C174.349 235.886 173.258 234.822 171.917 234.822C170.577 234.822 169.485 235.886 169.485 237.193Z" fill="#FFD655"/>
<path d="M258.46 211.753C258.46 213.06 259.551 214.124 260.892 214.124C262.232 214.124 263.324 213.06 263.324 211.753C263.324 210.446 262.232 209.383 260.892 209.383C259.551 209.383 258.46 210.446 258.46 211.753Z" fill="#FFD655"/>
<path d="M143.979 284.025C143.979 285.332 145.071 286.396 146.411 286.396C147.752 286.396 148.843 285.332 148.843 284.025C148.843 282.719 147.752 281.655 146.411 281.655C145.071 281.655 143.979 282.719 143.979 284.025Z" fill="#FFD655"/>
<path d="M368.789 235.458C368.789 236.765 369.88 237.829 371.221 237.829C372.561 237.829 373.653 236.765 373.653 235.458C373.653 234.152 372.561 233.088 371.221 233.088C369.88 233.088 368.789 234.152 368.789 235.458Z" fill="#FFD655"/>
<path d="M231.376 233.146C231.376 234.452 232.468 235.516 233.808 235.516C235.149 235.516 236.24 234.452 236.24 233.146C236.24 231.839 235.149 230.775 233.808 230.775C232.468 230.775 231.376 231.839 231.376 233.146Z" fill="#FFD655"/>
<path d="M169.687 271.687C169.687 272.994 170.778 274.058 172.119 274.058C173.46 274.058 174.551 272.994 174.551 271.687C174.551 270.38 173.46 269.317 172.119 269.317C170.778 269.317 169.687 270.38 169.687 271.687Z" fill="#FFD655"/>
<path d="M170.482 194.604C170.482 195.911 171.573 196.975 172.914 196.975C174.254 196.975 175.346 195.911 175.346 194.604C175.346 193.298 174.254 192.234 172.914 192.234C171.573 192.234 170.482 193.298 170.482 194.604Z" fill="#FFD655"/>
<path d="M77.9482 285.506C77.9482 286.812 79.0397 287.876 80.3802 287.876C81.7208 287.876 82.8122 286.812 82.8122 285.506C82.8122 284.199 81.7208 283.135 80.3802 283.135C79.0397 283.135 77.9482 284.199 77.9482 285.506Z" fill="#FFD655"/>
<path opacity="0.6" d="M320.078 288.073C320.078 290.698 322.261 292.825 324.954 292.825C327.647 292.825 329.83 290.698 329.83 288.073C329.83 285.448 327.647 283.32 324.954 283.32C322.261 283.32 320.078 285.448 320.078 288.073Z" fill="#FFD655"/>
<path opacity="0.6" d="M5.90283 376.534C5.90283 379.159 8.08568 381.287 10.7786 381.287C13.4716 381.287 15.6545 379.159 15.6545 376.534C15.6545 373.909 13.4716 371.781 10.7786 371.781C8.08568 371.781 5.90283 373.909 5.90283 376.534Z" fill="#FFD655"/>
<path opacity="0.6" d="M312.13 237.771C312.13 241.587 315.297 244.675 319.212 244.675C323.127 244.675 326.295 241.587 326.295 237.771C326.295 233.955 323.127 230.868 319.212 230.868C315.297 230.868 312.13 233.955 312.13 237.771Z" fill="#FFD655"/>
<path opacity="0.6" d="M247.249 315.247C251.161 315.247 254.332 312.156 254.332 308.344C254.332 304.531 251.161 301.44 247.249 301.44C243.338 301.44 240.167 304.531 240.167 308.344C240.167 312.156 243.338 315.247 247.249 315.247Z" fill="#FFD655"/>
<path opacity="0.6" d="M28.9647 315.247C32.8762 315.247 36.0471 312.156 36.0471 308.344C36.0471 304.531 32.8762 301.44 28.9647 301.44C25.0532 301.44 21.8823 304.531 21.8823 308.344C21.8823 312.156 25.0532 315.247 28.9647 315.247Z" fill="#FFD655"/>
<path opacity="0.6" d="M119.114 310.564C119.114 313.258 121.356 315.444 124.12 315.444C126.884 315.444 129.126 313.258 129.126 310.564C129.126 307.869 126.884 305.684 124.12 305.684C121.356 305.684 119.114 307.869 119.114 310.564Z" fill="#FFD655"/>
<path opacity="0.6" d="M187.043 350.377C187.043 353.071 189.285 355.257 192.049 355.257C194.813 355.257 197.044 353.071 197.044 350.377C197.044 347.683 194.802 345.509 192.049 345.509C189.297 345.509 187.043 347.694 187.043 350.377Z" fill="#FFD655"/>
</g>
<g clip-path="url(#clip2_389_310)">
<path d="M1200.57 325.091C1200.57 342.17 1186.37 356.023 1168.85 356.023C1151.32 356.023 1137.13 342.18 1137.13 325.091C1137.13 308.001 1151.32 294.159 1168.85 294.159C1186.37 294.159 1200.57 308.001 1200.57 325.091Z" fill="white"/>
<path d="M1103.64 343.788C1105.15 343.615 1106.53 342.429 1106.67 340.832C1106.77 339.591 1107.62 334.143 1107.62 334.143C1107.62 334.143 1108.35 339.613 1108.57 340.832C1108.9 342.644 1110.01 343.572 1111.6 343.788C1112.86 343.95 1118.46 344.716 1118.46 344.716C1118.46 344.716 1112.86 345.482 1111.6 345.644C1109.59 345.903 1108.77 347.165 1108.58 348.6C1108.42 349.83 1107.62 355.289 1107.62 355.289C1107.62 355.289 1106.79 349.83 1106.67 348.6C1106.49 346.949 1105.25 345.816 1103.65 345.644C1102.37 345.503 1096.79 344.716 1096.79 344.716C1096.79 344.716 1102.39 343.928 1103.65 343.788H1103.64Z" fill="white"/>
<path d="M1423.1 431.265C1424.22 431.136 1425.22 430.272 1425.32 429.096C1425.4 428.19 1426.02 424.198 1426.02 424.198C1426.02 424.198 1426.55 428.212 1426.72 429.096C1426.96 430.423 1427.78 431.103 1428.94 431.265C1429.86 431.394 1433.98 431.945 1433.98 431.945C1433.98 431.945 1429.87 432.506 1428.94 432.624C1427.47 432.819 1426.87 433.736 1426.72 434.793C1426.6 435.688 1426.02 439.691 1426.02 439.691C1426.02 439.691 1425.41 435.688 1425.32 434.793C1425.19 433.574 1424.28 432.754 1423.1 432.624C1422.17 432.527 1418.07 431.945 1418.07 431.945C1418.07 431.945 1422.17 431.373 1423.1 431.265Z" fill="white"/>
<path d="M1365.89 260.799C1367.51 260.616 1369 259.343 1369.14 257.627C1369.25 256.3 1370.16 250.452 1370.16 250.452C1370.16 250.452 1370.94 256.322 1371.18 257.627C1371.54 259.58 1372.73 260.562 1374.43 260.799C1375.78 260.982 1381.79 261.802 1381.79 261.802C1381.79 261.802 1375.78 262.622 1374.43 262.795C1372.27 263.076 1371.4 264.424 1371.19 265.967C1371.01 267.283 1370.16 273.142 1370.16 273.142C1370.16 273.142 1369.27 267.294 1369.14 265.967C1368.95 264.187 1367.62 262.989 1365.9 262.795C1364.54 262.655 1358.54 261.802 1358.54 261.802C1358.54 261.802 1364.55 260.961 1365.9 260.799H1365.89Z" fill="white"/>
<path d="M928.536 323.375C929.653 323.246 930.66 322.383 930.76 321.207C930.837 320.3 931.457 316.308 931.457 316.308C931.457 316.308 931.988 320.322 932.154 321.207C932.397 322.534 933.216 323.213 934.378 323.375C935.307 323.505 939.412 324.055 939.412 324.055C939.412 324.055 935.307 324.616 934.378 324.735C932.895 324.929 932.309 325.846 932.154 326.903C932.032 327.809 931.457 331.801 931.457 331.801C931.457 331.801 930.848 327.799 930.76 326.903C930.627 325.684 929.72 324.864 928.547 324.735C927.617 324.638 923.513 324.055 923.513 324.055C923.513 324.055 927.617 323.483 928.547 323.375H928.536Z" fill="white"/>
<path d="M774.446 364.373C775.564 364.244 776.571 363.381 776.67 362.205C776.748 361.298 777.367 357.307 777.367 357.307C777.367 357.307 777.898 361.32 778.064 362.205C778.308 363.532 779.127 364.211 780.288 364.373C781.218 364.503 785.322 365.053 785.322 365.053C785.322 365.053 781.218 365.614 780.288 365.733C778.806 365.927 778.219 366.844 778.064 367.901C777.943 368.797 777.367 372.799 777.367 372.799C777.367 372.799 776.759 368.797 776.67 367.901C776.538 366.682 775.63 365.862 774.457 365.733C773.528 365.636 769.423 365.053 769.423 365.053C769.423 365.053 773.528 364.481 774.457 364.373H774.446Z" fill="white"/>
<path d="M1215.11 259.72C1216.79 259.526 1218.33 258.21 1218.47 256.44C1218.58 255.07 1219.52 249.018 1219.52 249.018C1219.52 249.018 1220.33 255.081 1220.58 256.44C1220.96 258.458 1222.19 259.483 1223.95 259.72C1225.34 259.904 1231.56 260.756 1231.56 260.756C1231.56 260.756 1225.34 261.608 1223.95 261.792C1221.71 262.083 1220.8 263.475 1220.58 265.072C1220.39 266.442 1219.52 272.494 1219.52 272.494C1219.52 272.494 1218.6 266.442 1218.46 265.072C1218.27 263.237 1216.89 261.986 1215.11 261.792C1213.7 261.641 1207.48 260.767 1207.48 260.767C1207.48 260.767 1213.7 259.893 1215.11 259.731V259.72Z" fill="white"/>
<path d="M1419.37 323.451C1420.52 323.321 1421.57 322.415 1421.67 321.207C1421.75 320.268 1422.39 316.136 1422.39 316.136C1422.39 316.136 1422.94 320.289 1423.11 321.207C1423.37 322.588 1424.21 323.289 1425.41 323.451C1426.36 323.58 1430.62 324.152 1430.62 324.152C1430.62 324.152 1426.37 324.735 1425.41 324.853C1423.89 325.047 1423.27 326.008 1423.11 327.097C1422.98 328.036 1422.38 332.179 1422.38 332.179C1422.38 332.179 1421.75 328.036 1421.65 327.097C1421.52 325.846 1420.58 324.993 1419.36 324.853C1418.4 324.756 1414.15 324.152 1414.15 324.152C1414.15 324.152 1418.4 323.559 1419.36 323.451H1419.37Z" fill="white"/>
<path d="M1149.86 261.263C1150.79 261.155 1151.64 260.432 1151.72 259.451C1151.79 258.695 1152.31 255.34 1152.31 255.34C1152.31 255.34 1152.75 258.695 1152.89 259.451C1153.09 260.562 1153.78 261.134 1154.75 261.263C1155.53 261.371 1158.97 261.835 1158.97 261.835C1158.97 261.835 1155.53 262.31 1154.75 262.407C1153.51 262.569 1153.01 263.335 1152.89 264.219C1152.79 264.974 1152.31 268.33 1152.31 268.33C1152.31 268.33 1151.8 264.974 1151.72 264.219C1151.62 263.205 1150.86 262.515 1149.86 262.407C1149.09 262.32 1145.65 261.835 1145.65 261.835C1145.65 261.835 1149.09 261.349 1149.86 261.263Z" fill="white"/>
<path d="M824.157 252.923C825.087 252.815 825.939 252.092 826.016 251.111C826.082 250.355 826.602 247 826.602 247C826.602 247 827.045 250.355 827.189 251.111C827.388 252.222 828.074 252.794 829.048 252.923C829.822 253.031 833.263 253.495 833.263 253.495C833.263 253.495 829.822 253.97 829.048 254.067C827.808 254.229 827.311 254.995 827.189 255.879C827.089 256.635 826.602 259.99 826.602 259.99C826.602 259.99 826.094 256.635 826.016 255.879C825.916 254.865 825.153 254.175 824.157 254.067C823.383 253.98 819.942 253.495 819.942 253.495C819.942 253.495 823.383 253.009 824.157 252.923Z" fill="white"/>
<path d="M724.215 423.993C725.145 423.885 725.997 423.162 726.074 422.181C726.141 421.425 726.661 418.07 726.661 418.07C726.661 418.07 727.103 421.425 727.247 422.181C727.446 423.292 728.132 423.864 729.106 423.993C729.88 424.101 733.321 424.565 733.321 424.565C733.321 424.565 729.88 425.04 729.106 425.137C727.867 425.299 727.369 426.065 727.247 426.949C727.147 427.705 726.661 431.06 726.661 431.06C726.661 431.06 726.152 427.705 726.074 426.949C725.975 425.935 725.211 425.245 724.215 425.137C723.441 425.051 720 424.565 720 424.565C720 424.565 723.441 424.08 724.215 423.993Z" fill="white"/>
<path d="M1192.72 366.725C1193.65 366.617 1194.51 365.895 1194.58 364.913C1194.65 364.157 1195.17 360.802 1195.17 360.802C1195.17 360.802 1195.61 364.157 1195.76 364.913C1195.95 366.024 1196.64 366.596 1197.61 366.725C1198.39 366.833 1201.83 367.297 1201.83 367.297C1201.83 367.297 1198.39 367.772 1197.61 367.869C1196.37 368.031 1195.88 368.797 1195.76 369.681C1195.66 370.437 1195.17 373.792 1195.17 373.792C1195.17 373.792 1194.66 370.437 1194.58 369.681C1194.48 368.667 1193.72 367.977 1192.72 367.869C1191.95 367.783 1188.51 367.297 1188.51 367.297C1188.51 367.297 1191.95 366.812 1192.72 366.725Z" fill="white"/>
<path opacity="0.4" d="M1121.09 407.529C1121.09 418.836 1130.49 427.996 1142.08 427.996C1153.68 427.996 1163.07 418.836 1163.07 407.529C1163.07 396.222 1153.68 387.062 1142.08 387.062C1130.49 387.062 1121.09 396.222 1121.09 407.529Z" fill="white"/>
<path opacity="0.6" d="M1056.64 442C1062 442 1066.35 437.759 1066.35 432.527C1066.35 427.296 1062 423.054 1056.64 423.054C1051.27 423.054 1046.92 427.296 1046.92 432.527C1046.92 437.759 1051.27 442 1056.64 442Z" fill="white"/>
<path opacity="0.6" d="M1030.98 373.781C1030.98 379.014 1035.33 383.254 1040.69 383.254C1046.06 383.254 1050.41 379.014 1050.41 373.781C1050.41 368.549 1046.06 364.309 1040.69 364.309C1035.33 364.309 1030.98 368.549 1030.98 373.781Z" fill="white"/>
<path opacity="0.6" d="M1098.7 299.197C1098.7 308.13 1106.13 315.38 1115.29 315.38C1124.45 315.38 1131.88 308.141 1131.88 299.197C1131.88 290.253 1124.46 283.014 1115.29 283.014C1106.11 283.014 1098.7 290.253 1098.7 299.197Z" fill="white"/>
<path d="M1125.52 342.914C1125.52 345.277 1127.49 347.197 1129.91 347.197C1132.34 347.197 1134.31 345.277 1134.31 342.914C1134.31 340.551 1132.34 338.631 1129.91 338.631C1127.49 338.631 1125.52 340.551 1125.52 342.914Z" fill="white"/>
<path d="M1181.86 280.694C1181.86 281.913 1182.88 282.906 1184.13 282.906C1185.38 282.906 1186.4 281.913 1186.4 280.694C1186.4 279.475 1185.38 278.482 1184.13 278.482C1182.88 278.482 1181.86 279.475 1181.86 280.694Z" fill="white"/>
<path d="M1174.11 361.611C1174.11 362.83 1175.13 363.823 1176.38 363.823C1177.63 363.823 1178.65 362.83 1178.65 361.611C1178.65 360.392 1177.63 359.4 1176.38 359.4C1175.13 359.4 1174.11 360.392 1174.11 361.611Z" fill="white"/>
<path d="M1124.33 323.31C1124.33 324.53 1125.34 325.522 1126.59 325.522C1127.84 325.522 1128.86 324.53 1128.86 323.31C1128.86 322.091 1127.84 321.099 1126.59 321.099C1125.34 321.099 1124.33 322.091 1124.33 323.31Z" fill="white"/>
<path d="M1207.31 309.824C1207.31 311.043 1208.32 312.036 1209.57 312.036C1210.82 312.036 1211.84 311.043 1211.84 309.824C1211.84 308.605 1210.82 307.612 1209.57 307.612C1208.32 307.612 1207.31 308.605 1207.31 309.824Z" fill="white"/>
<path d="M1116.58 363.769C1116.58 364.988 1117.6 365.981 1118.85 365.981C1120.1 365.981 1121.12 364.988 1121.12 363.769C1121.12 362.55 1120.1 361.557 1118.85 361.557C1117.6 361.557 1116.58 362.55 1116.58 363.769Z" fill="white"/>
<path d="M1079.52 298.496C1079.52 299.715 1080.53 300.708 1081.78 300.708C1083.03 300.708 1084.05 299.715 1084.05 298.496C1084.05 297.277 1083.03 296.284 1081.78 296.284C1080.53 296.284 1079.52 297.277 1079.52 298.496Z" fill="white"/>
<path d="M1162.5 274.76C1162.5 275.979 1163.51 276.972 1164.76 276.972C1166.01 276.972 1167.03 275.979 1167.03 274.76C1167.03 273.541 1166.01 272.548 1164.76 272.548C1163.51 272.548 1162.5 273.541 1162.5 274.76Z" fill="white"/>
<path d="M1055.73 342.191C1055.73 343.41 1056.75 344.403 1058 344.403C1059.25 344.403 1060.26 343.41 1060.26 342.191C1060.26 340.972 1059.25 339.979 1058 339.979C1056.75 339.979 1055.73 340.972 1055.73 342.191Z" fill="white"/>
<path d="M1265.39 296.877C1265.39 298.097 1266.41 299.089 1267.66 299.089C1268.91 299.089 1269.93 298.097 1269.93 296.877C1269.93 295.658 1268.91 294.666 1267.66 294.666C1266.41 294.666 1265.39 295.658 1265.39 296.877Z" fill="white"/>
<path d="M1137.24 294.72C1137.24 295.939 1138.26 296.931 1139.51 296.931C1140.76 296.931 1141.77 295.939 1141.77 294.72C1141.77 293.5 1140.76 292.508 1139.51 292.508C1138.26 292.508 1137.24 293.5 1137.24 294.72Z" fill="white"/>
<path d="M1079.7 330.679C1079.7 331.898 1080.72 332.891 1081.97 332.891C1083.22 332.891 1084.24 331.898 1084.24 330.679C1084.24 329.46 1083.22 328.468 1081.97 328.468C1080.72 328.468 1079.7 329.46 1079.7 330.679Z" fill="white"/>
<path d="M1080.45 258.76C1080.45 259.979 1081.46 260.972 1082.71 260.972C1083.96 260.972 1084.98 259.979 1084.98 258.76C1084.98 257.541 1083.96 256.548 1082.71 256.548C1081.46 256.548 1080.45 257.541 1080.45 258.76Z" fill="white"/>
<path d="M994.146 343.572C994.146 344.791 995.163 345.784 996.414 345.784C997.664 345.784 998.682 344.791 998.682 343.572C998.682 342.353 997.664 341.36 996.414 341.36C995.163 341.36 994.146 342.353 994.146 343.572Z" fill="white"/>
<path d="M911.53 277.403C911.53 278.622 912.548 279.615 913.798 279.615C915.049 279.615 916.067 278.622 916.067 277.403C916.067 276.184 915.049 275.192 913.798 275.192C912.548 275.192 911.53 276.184 911.53 277.403Z" fill="white"/>
<path opacity="0.6" d="M1219.96 345.967C1219.96 348.416 1222 350.402 1224.51 350.402C1227.02 350.402 1229.06 348.416 1229.06 345.967C1229.06 343.518 1227.02 341.533 1224.51 341.533C1222 341.533 1219.96 343.518 1219.96 345.967Z" fill="white"/>
<path opacity="0.6" d="M926.954 428.503C926.954 430.952 928.989 432.937 931.501 432.937C934.012 432.937 936.048 430.952 936.048 428.503C936.048 426.054 934.012 424.069 931.501 424.069C928.989 424.069 926.954 426.054 926.954 428.503Z" fill="white"/>
<path opacity="0.6" d="M1212.55 299.035C1212.55 302.596 1215.5 305.476 1219.16 305.476C1222.81 305.476 1225.76 302.596 1225.76 299.035C1225.76 295.475 1222.81 292.594 1219.16 292.594C1215.5 292.594 1212.55 295.475 1212.55 299.035Z" fill="white"/>
<path opacity="0.6" d="M1152.04 371.321C1155.69 371.321 1158.65 368.438 1158.65 364.88C1158.65 361.323 1155.69 358.439 1152.04 358.439C1148.39 358.439 1145.44 361.323 1145.44 364.88C1145.44 368.438 1148.39 371.321 1152.04 371.321Z" fill="white"/>
<path opacity="0.6" d="M948.462 371.321C952.11 371.321 955.067 368.438 955.067 364.88C955.067 361.323 952.11 358.439 948.462 358.439C944.814 358.439 941.857 361.323 941.857 364.88C941.857 368.438 944.814 371.321 948.462 371.321Z" fill="white"/>
<path opacity="0.6" d="M1032.54 366.952C1032.54 369.466 1034.63 371.505 1037.21 371.505C1039.79 371.505 1041.88 369.466 1041.88 366.952C1041.88 364.438 1039.79 362.399 1037.21 362.399C1034.63 362.399 1032.54 364.438 1032.54 366.952Z" fill="white"/>
<path opacity="0.6" d="M1095.89 404.098C1095.89 406.612 1097.98 408.651 1100.56 408.651C1103.14 408.651 1105.22 406.612 1105.22 404.098C1105.22 401.584 1103.13 399.556 1100.56 399.556C1097.99 399.556 1095.89 401.595 1095.89 404.098Z" fill="white"/>
</g>
<ellipse cx="-37.14" cy="813.466" rx="439.898" ry="267.288" transform="rotate(-3.61131 -37.14 813.466)" fill="#514886"/>
<ellipse cx="226.398" cy="865.498" rx="439.898" ry="267.288" transform="rotate(-3.61131 226.398 865.498)" fill="#514886"/>
<ellipse cx="699.86" cy="813.466" rx="439.898" ry="267.288" transform="rotate(-3.61131 699.86 813.466)" fill="#514886"/>
<ellipse cx="1235.86" cy="837.466" rx="439.898" ry="267.288" transform="rotate(-3.61131 1235.86 837.466)" fill="#514886"/>
<g clip-path="url(#clip3_389_310)">
<path d="M1357.14 744.329C1357.14 768.678 1336.87 788.427 1311.85 788.427C1286.83 788.427 1266.56 768.693 1266.56 744.329C1266.56 719.965 1286.83 700.231 1311.85 700.231C1336.87 700.231 1357.14 719.965 1357.14 744.329Z" fill="white"/>
<path d="M1218.74 770.985C1220.91 770.739 1222.88 769.047 1223.07 766.77C1223.21 765.002 1224.43 757.234 1224.43 757.234C1224.43 757.234 1225.47 765.032 1225.79 766.77C1226.26 769.354 1227.84 770.677 1230.12 770.985C1231.92 771.216 1239.91 772.308 1239.91 772.308C1239.91 772.308 1231.92 773.4 1230.12 773.63C1227.24 774 1226.07 775.799 1225.8 777.845C1225.57 779.598 1224.43 787.381 1224.43 787.381C1224.43 787.381 1223.24 779.598 1223.07 777.845C1222.82 775.492 1221.05 773.876 1218.76 773.63C1216.94 773.43 1208.96 772.308 1208.96 772.308C1208.96 772.308 1216.96 771.185 1218.76 770.985H1218.74Z" fill="white"/>
<path d="M968.74 741.884C970.336 741.699 971.773 740.469 971.915 738.792C972.026 737.5 972.911 731.809 972.911 731.809C972.911 731.809 973.669 737.531 973.906 738.792C974.253 740.684 975.422 741.653 977.081 741.884C978.408 742.068 984.268 742.853 984.268 742.853C984.268 742.853 978.408 743.652 977.081 743.822C974.964 744.099 974.127 745.406 973.906 746.913C973.732 748.205 972.911 753.896 972.911 753.896C972.911 753.896 972.042 748.19 971.915 746.913C971.726 745.175 970.43 744.006 968.756 743.822C967.429 743.683 961.568 742.853 961.568 742.853C961.568 742.853 967.429 742.037 968.756 741.884H968.74Z" fill="white"/>
<path d="M748.737 800.332C750.332 800.148 751.77 798.917 751.912 797.241C752.022 795.948 752.907 790.257 752.907 790.257C752.907 790.257 753.665 795.979 753.902 797.241C754.25 799.132 755.419 800.101 757.078 800.332C758.404 800.517 764.265 801.301 764.265 801.301C764.265 801.301 758.404 802.101 757.078 802.27C754.961 802.547 754.123 803.854 753.902 805.362C753.729 806.638 752.907 812.345 752.907 812.345C752.907 812.345 752.038 806.638 751.912 805.362C751.722 803.624 750.427 802.455 748.753 802.27C747.426 802.132 741.565 801.301 741.565 801.301C741.565 801.301 747.426 800.486 748.753 800.332H748.737Z" fill="white"/>
<path d="M1377.9 651.135C1380.3 650.858 1382.49 648.981 1382.7 646.459C1382.86 644.505 1384.2 635.876 1384.2 635.876C1384.2 635.876 1385.35 644.521 1385.71 646.459C1386.25 649.335 1388.01 650.796 1390.52 651.135C1392.51 651.396 1401.39 652.611 1401.39 652.611C1401.39 652.611 1392.51 653.826 1390.52 654.088C1387.33 654.503 1386.03 656.487 1385.71 658.764C1385.45 660.717 1384.2 669.346 1384.2 669.346C1384.2 669.346 1382.89 660.717 1382.68 658.764C1382.41 656.149 1380.44 654.365 1377.9 654.088C1375.89 653.872 1367.01 652.626 1367.01 652.626C1367.01 652.626 1375.89 651.381 1377.9 651.15V651.135Z" fill="white"/>
<path d="M1284.74 653.334C1286.07 653.18 1287.28 652.15 1287.4 650.75C1287.49 649.673 1288.23 644.89 1288.23 644.89C1288.23 644.89 1288.86 649.673 1289.07 650.75C1289.35 652.334 1290.33 653.149 1291.72 653.334C1292.83 653.488 1297.74 654.149 1297.74 654.149C1297.74 654.149 1292.83 654.826 1291.72 654.964C1289.95 655.195 1289.24 656.287 1289.07 657.548C1288.93 658.625 1288.23 663.409 1288.23 663.409C1288.23 663.409 1287.51 658.625 1287.4 657.548C1287.25 656.103 1286.16 655.118 1284.74 654.964C1283.64 654.841 1278.72 654.149 1278.72 654.149C1278.72 654.149 1283.64 653.457 1284.74 653.334Z" fill="white"/>
<path d="M819.712 641.444C821.039 641.29 822.255 640.26 822.366 638.86C822.461 637.784 823.203 633 823.203 633C823.203 633 823.835 637.784 824.04 638.86C824.325 640.445 825.304 641.26 826.694 641.444C827.8 641.598 832.713 642.259 832.713 642.259C832.713 642.259 827.8 642.936 826.694 643.075C824.925 643.305 824.214 644.397 824.04 645.659C823.898 646.735 823.203 651.519 823.203 651.519C823.203 651.519 822.476 646.735 822.366 645.659C822.224 644.213 821.134 643.229 819.712 643.075C818.606 642.952 813.693 642.259 813.693 642.259C813.693 642.259 818.606 641.567 819.712 641.444Z" fill="white"/>
<path d="M677.019 885.329C678.346 885.175 679.562 884.144 679.672 882.745C679.767 881.668 680.51 876.885 680.51 876.885C680.51 876.885 681.142 881.668 681.347 882.745C681.631 884.329 682.611 885.144 684.001 885.329C685.107 885.483 690.019 886.144 690.019 886.144C690.019 886.144 685.107 886.821 684.001 886.959C682.232 887.19 681.521 888.282 681.347 889.543C681.205 890.62 680.51 895.404 680.51 895.404C680.51 895.404 679.783 890.62 679.672 889.543C679.53 888.097 678.44 887.113 677.019 886.959C675.913 886.836 671 886.144 671 886.144C671 886.144 675.913 885.452 677.019 885.329Z" fill="white"/>
<path d="M1345.94 803.685C1347.27 803.531 1348.48 802.501 1348.59 801.101C1348.69 800.025 1349.43 795.241 1349.43 795.241C1349.43 795.241 1350.06 800.025 1350.27 801.101C1350.55 802.685 1351.53 803.501 1352.92 803.685C1354.03 803.839 1358.94 804.5 1358.94 804.5C1358.94 804.5 1354.03 805.177 1352.92 805.316C1351.15 805.546 1350.44 806.638 1350.27 807.9C1350.12 808.976 1349.43 813.76 1349.43 813.76C1349.43 813.76 1348.7 808.976 1348.59 807.9C1348.45 806.454 1347.36 805.469 1345.94 805.316C1344.83 805.193 1339.92 804.5 1339.92 804.5C1339.92 804.5 1344.83 803.808 1345.94 803.685Z" fill="white"/>
<path opacity="0.4" d="M1243.67 861.857C1243.67 877.976 1257.08 891.035 1273.64 891.035C1290.19 891.035 1303.6 877.976 1303.6 861.857C1303.6 845.737 1290.19 832.679 1273.64 832.679C1257.08 832.679 1243.67 845.737 1243.67 861.857Z" fill="white"/>
<path opacity="0.6" d="M1151.64 911C1159.3 911 1165.51 904.954 1165.51 897.495C1165.51 890.037 1159.3 883.991 1151.64 883.991C1143.98 883.991 1137.77 890.037 1137.77 897.495C1137.77 904.954 1143.98 911 1151.64 911Z" fill="white"/>
<path opacity="0.6" d="M1115 813.745C1115 821.204 1121.21 827.249 1128.87 827.249C1136.53 827.249 1142.74 821.204 1142.74 813.745C1142.74 806.285 1136.53 800.24 1128.87 800.24C1121.21 800.24 1115 806.285 1115 813.745Z" fill="white"/>
<path opacity="0.6" d="M1211.7 707.414C1211.7 720.15 1222.3 730.486 1235.38 730.486C1248.46 730.486 1259.07 720.165 1259.07 707.414C1259.07 694.663 1248.47 684.343 1235.38 684.343C1222.28 684.343 1211.7 694.663 1211.7 707.414Z" fill="white"/>
<path d="M1249.99 769.739C1249.99 773.107 1252.8 775.845 1256.26 775.845C1259.72 775.845 1262.53 773.107 1262.53 769.739C1262.53 766.37 1259.72 763.633 1256.26 763.633C1252.8 763.633 1249.99 766.37 1249.99 769.739Z" fill="white"/>
<path d="M1330.43 681.035C1330.43 682.774 1331.88 684.189 1333.66 684.189C1335.45 684.189 1336.9 682.774 1336.9 681.035C1336.9 679.297 1335.45 677.882 1333.66 677.882C1331.88 677.882 1330.43 679.297 1330.43 681.035Z" fill="white"/>
<path d="M1319.37 796.395C1319.37 798.133 1320.82 799.548 1322.61 799.548C1324.39 799.548 1325.84 798.133 1325.84 796.395C1325.84 794.657 1324.39 793.241 1322.61 793.241C1320.82 793.241 1319.37 794.657 1319.37 796.395Z" fill="white"/>
<path d="M1248.28 741.791C1248.28 743.529 1249.74 744.944 1251.52 744.944C1253.31 744.944 1254.76 743.529 1254.76 741.791C1254.76 740.053 1253.31 738.638 1251.52 738.638C1249.74 738.638 1248.28 740.053 1248.28 741.791Z" fill="white"/>
<path d="M1366.76 722.565C1366.76 724.303 1368.21 725.718 1370 725.718C1371.78 725.718 1373.24 724.303 1373.24 722.565C1373.24 720.827 1371.78 719.412 1370 719.412C1368.21 719.412 1366.76 720.827 1366.76 722.565Z" fill="white"/>
<path d="M1237.22 799.471C1237.22 801.209 1238.68 802.624 1240.46 802.624C1242.25 802.624 1243.7 801.209 1243.7 799.471C1243.7 797.733 1242.25 796.318 1240.46 796.318C1238.68 796.318 1237.22 797.733 1237.22 799.471Z" fill="white"/>
<path d="M1184.3 706.414C1184.3 708.153 1185.76 709.568 1187.54 709.568C1189.33 709.568 1190.78 708.153 1190.78 706.414C1190.78 704.676 1189.33 703.261 1187.54 703.261C1185.76 703.261 1184.3 704.676 1184.3 706.414Z" fill="white"/>
<path d="M1302.78 672.576C1302.78 674.314 1304.23 675.729 1306.02 675.729C1307.8 675.729 1309.26 674.314 1309.26 672.576C1309.26 670.838 1307.8 669.423 1306.02 669.423C1304.23 669.423 1302.78 670.838 1302.78 672.576Z" fill="white"/>
<path d="M1150.34 768.708C1150.34 770.447 1151.79 771.862 1153.58 771.862C1155.36 771.862 1156.82 770.447 1156.82 768.708C1156.82 766.97 1155.36 765.555 1153.58 765.555C1151.79 765.555 1150.34 766.97 1150.34 768.708Z" fill="white"/>
<path d="M1266.72 701.031C1266.72 702.769 1268.17 704.184 1269.96 704.184C1271.74 704.184 1273.19 702.769 1273.19 701.031C1273.19 699.293 1271.74 697.878 1269.96 697.878C1268.17 697.878 1266.72 699.293 1266.72 701.031Z" fill="white"/>
<path d="M1184.57 752.297C1184.57 754.035 1186.03 755.45 1187.81 755.45C1189.6 755.45 1191.05 754.035 1191.05 752.297C1191.05 750.559 1189.6 749.144 1187.81 749.144C1186.03 749.144 1184.57 750.559 1184.57 752.297Z" fill="white"/>
<path d="M1185.63 649.765C1185.63 651.504 1187.08 652.919 1188.87 652.919C1190.65 652.919 1192.11 651.504 1192.11 649.765C1192.11 648.027 1190.65 646.612 1188.87 646.612C1187.08 646.612 1185.63 648.027 1185.63 649.765Z" fill="white"/>
<path d="M1062.42 770.677C1062.42 772.415 1063.87 773.83 1065.65 773.83C1067.44 773.83 1068.89 772.415 1068.89 770.677C1068.89 768.939 1067.44 767.524 1065.65 767.524C1063.87 767.524 1062.42 768.939 1062.42 770.677Z" fill="white"/>
<path d="M944.46 676.344C944.46 678.082 945.913 679.497 947.698 679.497C949.483 679.497 950.937 678.082 950.937 676.344C950.937 674.606 949.483 673.191 947.698 673.191C945.913 673.191 944.46 674.606 944.46 676.344Z" fill="white"/>
<path opacity="0.6" d="M1384.83 774.092C1384.83 777.583 1387.74 780.413 1391.32 780.413C1394.91 780.413 1397.82 777.583 1397.82 774.092C1397.82 770.6 1394.91 767.77 1391.32 767.77C1387.74 767.77 1384.83 770.6 1384.83 774.092Z" fill="white"/>
<path opacity="0.6" d="M966.48 891.758C966.48 895.25 969.387 898.08 972.973 898.08C976.559 898.08 979.466 895.25 979.466 891.758C979.466 888.267 976.559 885.436 972.973 885.436C969.387 885.436 966.48 888.267 966.48 891.758Z" fill="white"/>
<path opacity="0.6" d="M1374.25 707.184C1374.25 712.259 1378.46 716.366 1383.68 716.366C1388.89 716.366 1393.11 712.259 1393.11 707.184C1393.11 702.108 1388.89 698.001 1383.68 698.001C1378.46 698.001 1374.25 702.108 1374.25 707.184Z" fill="white"/>
<path opacity="0.6" d="M1287.85 810.238C1293.06 810.238 1297.28 806.127 1297.28 801.055C1297.28 795.984 1293.06 791.873 1287.85 791.873C1282.64 791.873 1278.42 795.984 1278.42 801.055C1278.42 806.127 1282.64 810.238 1287.85 810.238Z" fill="white"/>
<path opacity="0.6" d="M997.19 810.238C1002.4 810.238 1006.62 806.127 1006.62 801.055C1006.62 795.984 1002.4 791.873 997.19 791.873C991.982 791.873 987.759 795.984 987.759 801.055C987.759 806.127 991.982 810.238 997.19 810.238Z" fill="white"/>
<path opacity="0.6" d="M1117.23 804.008C1117.23 807.592 1120.22 810.499 1123.9 810.499C1127.58 810.499 1130.56 807.592 1130.56 804.008C1130.56 800.425 1127.58 797.517 1123.9 797.517C1120.22 797.517 1117.23 800.425 1117.23 804.008Z" fill="white"/>
<path opacity="0.6" d="M1207.68 856.966C1207.68 860.55 1210.67 863.457 1214.35 863.457C1218.03 863.457 1221 860.55 1221 856.966C1221 853.382 1218.01 850.49 1214.35 850.49C1210.69 850.49 1207.68 853.397 1207.68 856.966Z" fill="white"/>
</g>
<g clip-path="url(#clip4_389_310)">
<path d="M294.712 785.322C294.712 808.357 275.551 827.041 251.893 827.041C228.236 827.041 209.074 808.371 209.074 785.322C209.074 762.273 228.236 743.604 251.893 743.604C275.551 743.604 294.712 762.273 294.712 785.322Z" fill="white"/>
<path d="M163.865 810.54C165.911 810.307 167.778 808.706 167.957 806.553C168.092 804.879 169.242 797.531 169.242 797.531C169.242 797.531 170.227 804.908 170.526 806.553C170.974 808.997 172.468 810.249 174.618 810.54C176.321 810.758 183.878 811.791 183.878 811.791C183.878 811.791 176.321 812.824 174.618 813.042C171.9 813.392 170.795 815.094 170.541 817.029C170.317 818.688 169.242 826.051 169.242 826.051C169.242 826.051 168.122 818.688 167.957 817.029C167.718 814.803 166.046 813.275 163.88 813.042C162.162 812.853 154.62 811.791 154.62 811.791C154.62 811.791 162.177 810.729 163.88 810.54H163.865Z" fill="white"/>
<path d="M595.105 928.521C596.614 928.347 597.973 927.183 598.107 925.597C598.212 924.374 599.048 918.99 599.048 918.99C599.048 918.99 599.765 924.403 599.989 925.597C600.318 927.386 601.423 928.303 602.991 928.521C604.231 928.696 609.786 929.438 609.786 929.438C609.786 929.438 604.246 930.195 602.991 930.355C601.005 930.617 600.198 931.854 599.989 933.28C599.825 934.487 599.048 939.886 599.048 939.886C599.048 939.886 598.227 934.487 598.107 933.28C597.928 931.635 596.703 930.53 595.105 930.355C593.851 930.224 588.31 929.438 588.31 929.438C588.31 929.438 593.851 928.667 595.105 928.521Z" fill="white"/>
<path d="M517.875 698.611C520.071 698.364 522.072 696.647 522.266 694.333C522.415 692.543 523.64 684.656 523.64 684.656C523.64 684.656 524.7 692.572 525.014 694.333C525.507 696.967 527.105 698.291 529.405 698.611C531.227 698.858 539.337 699.964 539.337 699.964C539.337 699.964 531.227 701.07 529.405 701.303C526.493 701.681 525.313 703.5 525.029 705.581C524.79 707.356 523.64 715.258 523.64 715.258C523.64 715.258 522.445 707.371 522.266 705.581C522.012 703.18 520.22 701.565 517.89 701.303C516.053 701.114 507.958 699.964 507.958 699.964C507.958 699.964 516.068 698.829 517.89 698.611H517.875Z" fill="white"/>
<path d="M314.337 697.156C316.607 696.894 318.683 695.119 318.878 692.732C319.027 690.884 320.296 682.721 320.296 682.721C320.296 682.721 321.387 690.899 321.73 692.732C322.238 695.453 323.896 696.836 326.271 697.156C328.152 697.403 336.546 698.553 336.546 698.553C336.546 698.553 328.152 699.702 326.271 699.95C323.254 700.343 322.029 702.22 321.73 704.373C321.476 706.221 320.296 714.385 320.296 714.385C320.296 714.385 319.057 706.221 318.863 704.373C318.609 701.9 316.742 700.212 314.337 699.95C312.44 699.746 304.047 698.567 304.047 698.567C304.047 698.567 312.44 697.389 314.337 697.17V697.156Z" fill="white"/>
<path d="M590.072 783.11C591.626 782.936 593.044 781.713 593.179 780.084C593.283 778.818 594.15 773.245 594.15 773.245C594.15 773.245 594.896 778.847 595.12 780.084C595.464 781.946 596.599 782.892 598.227 783.11C599.511 783.285 605.262 784.056 605.262 784.056C605.262 784.056 599.526 784.842 598.227 785.002C596.166 785.264 595.33 786.559 595.12 788.029C594.941 789.295 594.135 794.882 594.135 794.882C594.135 794.882 593.283 789.295 593.149 788.029C592.97 786.341 591.7 785.191 590.057 785.002C588.758 784.871 583.023 784.056 583.023 784.056C583.023 784.056 588.758 783.256 590.057 783.11H590.072Z" fill="white"/>
<path d="M226.265 699.237C227.519 699.091 228.669 698.116 228.774 696.792C228.863 695.774 229.565 691.248 229.565 691.248C229.565 691.248 230.163 695.774 230.357 696.792C230.626 698.291 231.552 699.062 232.866 699.237C233.911 699.382 238.556 700.008 238.556 700.008C238.556 700.008 233.911 700.648 232.866 700.779C231.193 700.998 230.521 702.031 230.357 703.224C230.222 704.242 229.565 708.768 229.565 708.768C229.565 708.768 228.878 704.242 228.774 703.224C228.639 701.856 227.609 700.925 226.265 700.779C225.219 700.663 220.574 700.008 220.574 700.008C220.574 700.008 225.219 699.353 226.265 699.237Z" fill="white"/>
<path d="M829.723 702.947C830.978 702.802 832.128 701.827 832.232 700.503C832.322 699.484 833.024 694.959 833.024 694.959C833.024 694.959 833.621 699.484 833.815 700.503C834.084 702.002 835.01 702.773 836.324 702.947C837.37 703.093 842.015 703.719 842.015 703.719C842.015 703.719 837.37 704.359 836.324 704.49C834.652 704.708 833.98 705.741 833.815 706.934C833.681 707.953 833.024 712.478 833.024 712.478C833.024 712.478 832.337 707.953 832.232 706.934C832.098 705.567 831.067 704.635 829.723 704.49C828.678 704.373 824.033 703.719 824.033 703.719C824.033 703.719 828.678 703.064 829.723 702.947Z" fill="white"/>
<path d="M284.123 841.476C285.378 841.33 286.528 840.355 286.633 839.031C286.722 838.013 287.424 833.487 287.424 833.487C287.424 833.487 288.022 838.013 288.216 839.031C288.485 840.53 289.41 841.301 290.725 841.476C291.77 841.621 296.415 842.247 296.415 842.247C296.415 842.247 291.77 842.887 290.725 843.018C289.052 843.236 288.38 844.27 288.216 845.463C288.081 846.481 287.424 851.007 287.424 851.007C287.424 851.007 286.737 846.481 286.633 845.463C286.498 844.095 285.468 843.164 284.123 843.018C283.078 842.902 278.433 842.247 278.433 842.247C278.433 842.247 283.078 841.592 284.123 841.476Z" fill="white"/>
<path opacity="0.4" d="M187.433 896.509C187.433 911.758 200.113 924.112 215.765 924.112C231.417 924.112 244.097 911.758 244.097 896.509C244.097 881.259 231.417 868.905 215.765 868.905C200.113 868.905 187.433 881.259 187.433 896.509Z" fill="white"/>
<path opacity="0.6" d="M100.42 943C107.662 943 113.533 937.28 113.533 930.224C113.533 923.168 107.662 917.448 100.42 917.448C93.1776 917.448 87.3066 923.168 87.3066 930.224C87.3066 937.28 93.1776 943 100.42 943Z" fill="white"/>
<path opacity="0.6" d="M65.7852 850.992C65.7852 858.05 71.6547 863.768 78.8983 863.768C86.1419 863.768 92.0115 858.05 92.0115 850.992C92.0115 843.935 86.1419 838.216 78.8983 838.216C71.6547 838.216 65.7852 843.935 65.7852 850.992Z" fill="white"/>
<path opacity="0.6" d="M157.204 750.399C157.204 762.448 167.225 772.226 179.592 772.226C191.958 772.226 201.994 762.462 201.994 750.399C201.994 738.336 191.973 728.572 179.592 728.572C167.21 728.572 157.204 738.336 157.204 750.399Z" fill="white"/>
<path d="M193.407 809.361C193.407 812.548 196.065 815.138 199.336 815.138C202.607 815.138 205.265 812.548 205.265 809.361C205.265 806.174 202.607 803.584 199.336 803.584C196.065 803.584 193.407 806.174 193.407 809.361Z" fill="white"/>
<path d="M269.457 725.444C269.457 727.088 270.831 728.427 272.519 728.427C274.206 728.427 275.58 727.088 275.58 725.444C275.58 723.799 274.206 722.461 272.519 722.461C270.831 722.461 269.457 723.799 269.457 725.444Z" fill="white"/>
<path d="M259.002 834.578C259.002 836.223 260.376 837.561 262.064 837.561C263.752 837.561 265.126 836.223 265.126 834.578C265.126 832.934 263.752 831.595 262.064 831.595C260.376 831.595 259.002 832.934 259.002 834.578Z" fill="white"/>
<path d="M191.793 782.921C191.793 784.566 193.167 785.904 194.855 785.904C196.543 785.904 197.917 784.566 197.917 782.921C197.917 781.277 196.543 779.938 194.855 779.938C193.167 779.938 191.793 781.277 191.793 782.921Z" fill="white"/>
<path d="M303.808 764.732C303.808 766.376 305.182 767.715 306.87 767.715C308.557 767.715 309.932 766.376 309.932 764.732C309.932 763.088 308.557 761.749 306.87 761.749C305.182 761.749 303.808 763.088 303.808 764.732Z" fill="white"/>
<path d="M181.339 837.489C181.339 839.133 182.713 840.472 184.401 840.472C186.088 840.472 187.462 839.133 187.462 837.489C187.462 835.844 186.088 834.506 184.401 834.506C182.713 834.506 181.339 835.844 181.339 837.489Z" fill="white"/>
<path d="M131.306 749.453C131.306 751.098 132.68 752.436 134.367 752.436C136.055 752.436 137.429 751.098 137.429 749.453C137.429 747.809 136.055 746.47 134.367 746.47C132.68 746.47 131.306 747.809 131.306 749.453Z" fill="white"/>
<path d="M243.32 717.441C243.32 719.085 244.694 720.424 246.382 720.424C248.07 720.424 249.444 719.085 249.444 717.441C249.444 715.796 248.07 714.458 246.382 714.458C244.694 714.458 243.32 715.796 243.32 717.441Z" fill="white"/>
<path d="M99.1953 808.386C99.1953 810.03 100.569 811.369 102.257 811.369C103.945 811.369 105.319 810.03 105.319 808.386C105.319 806.742 103.945 805.403 102.257 805.403C100.569 805.403 99.1953 806.742 99.1953 808.386Z" fill="white"/>
<path d="M382.218 747.271C382.218 748.915 383.592 750.254 385.28 750.254C386.968 750.254 388.342 748.915 388.342 747.271C388.342 745.626 386.968 744.288 385.28 744.288C383.592 744.288 382.218 745.626 382.218 747.271Z" fill="white"/>
<path d="M209.223 744.36C209.223 746.005 210.597 747.343 212.285 747.343C213.973 747.343 215.347 746.005 215.347 744.36C215.347 742.716 213.973 741.377 212.285 741.377C210.597 741.377 209.223 742.716 209.223 744.36Z" fill="white"/>
<path d="M131.56 792.86C131.56 794.504 132.934 795.843 134.621 795.843C136.309 795.843 137.683 794.504 137.683 792.86C137.683 791.216 136.309 789.877 134.621 789.877C132.934 789.877 131.56 791.216 131.56 792.86Z" fill="white"/>
<path d="M132.561 695.861C132.561 697.505 133.935 698.844 135.622 698.844C137.31 698.844 138.684 697.505 138.684 695.861C138.684 694.217 137.31 692.878 135.622 692.878C133.935 692.878 132.561 694.217 132.561 695.861Z" fill="white"/>
<path d="M16.0654 810.249C16.0654 811.893 17.4395 813.232 19.1272 813.232C20.8148 813.232 22.1889 811.893 22.1889 810.249C22.1889 808.604 20.8148 807.266 19.1272 807.266C17.4395 807.266 16.0654 808.604 16.0654 810.249Z" fill="white"/>
<path opacity="0.6" d="M320.894 813.479C320.894 816.782 323.642 819.46 327.032 819.46C330.423 819.46 333.171 816.782 333.171 813.479C333.171 810.176 330.423 807.498 327.032 807.498C323.642 807.498 320.894 810.176 320.894 813.479Z" fill="white"/>
<path opacity="0.6" d="M310.887 750.181C310.887 754.983 314.875 758.868 319.804 758.868C324.732 758.868 328.72 754.983 328.72 750.181C328.72 745.379 324.732 741.494 319.804 741.494C314.875 741.494 310.887 745.379 310.887 750.181Z" fill="white"/>
<path opacity="0.6" d="M229.206 847.675C234.131 847.675 238.123 843.785 238.123 838.987C238.123 834.19 234.131 830.3 229.206 830.3C224.282 830.3 220.29 834.19 220.29 838.987C220.29 843.785 224.282 847.675 229.206 847.675Z" fill="white"/>
<path opacity="0.6" d="M67.8906 841.781C67.8906 845.172 70.7134 847.922 74.1933 847.922C77.6732 847.922 80.496 845.172 80.496 841.781C80.496 838.391 77.6732 835.641 74.1933 835.641C70.7134 835.641 67.8906 838.391 67.8906 841.781Z" fill="white"/>
<path opacity="0.6" d="M153.41 891.881C153.41 895.272 156.233 898.022 159.713 898.022C163.193 898.022 166.001 895.272 166.001 891.881C166.001 888.491 163.178 885.755 159.713 885.755C156.248 885.755 153.41 888.505 153.41 891.881Z" fill="white"/>
</g>
</g>
<defs>
<clipPath id="clip0_389_310">
<rect width="1440" height="960" fill="white"/>
</clipPath>
<clipPath id="clip1_389_310">
<rect width="950" height="209" fill="white" transform="translate(-216 182)"/>
</clipPath>
<clipPath id="clip2_389_310">
<rect width="886" height="195" fill="white" transform="translate(720 247)"/>
</clipPath>
<clipPath id="clip3_389_310">
<rect width="1265" height="278" fill="white" transform="translate(671 633)"/>
</clipPath>
<clipPath id="clip4_389_310">
<rect width="1196" height="263" fill="white" transform="translate(-354 680)"/>
</clipPath>
</defs>
</svg>
