<svg width="87" height="83" viewBox="0 0 87 83" fill="none" xmlns="http://www.w3.org/2000/svg">
<path d="M43.4567 56.3429C35.0888 56.3429 28.2974 49.5515 28.2974 41.1835C28.2974 32.8156 35.0888 26.0242 43.4567 26.0242C51.8247 26.0242 58.6161 32.8156 58.6161 41.1835C58.6161 49.5515 51.8247 56.3429 43.4567 56.3429ZM43.4567 32.0879C38.444 32.0879 34.3611 36.1708 34.3611 41.1835C34.3611 46.1962 38.444 50.2792 43.4567 50.2792C48.4694 50.2792 52.5524 46.1962 52.5524 41.1835C52.5524 36.1708 48.4694 32.0879 43.4567 32.0879Z" fill="#8C86B3"/>
<mask id="path-2-inside-1_389_523" fill="white">
<path d="M56.4333 82.3772C55.5844 82.3772 54.7355 82.2559 53.8865 82.0538C51.3802 81.3666 49.2781 79.79 47.9441 77.5666L47.459 76.7581C45.0739 72.6348 41.7995 72.6348 39.4144 76.7581L38.9697 77.5262C37.6357 79.79 35.5336 81.407 33.0272 82.0538C30.4805 82.741 27.8528 82.3772 25.6295 81.0432L18.6764 77.0411C16.2104 75.6262 14.4317 73.322 13.6637 70.5327C12.936 67.7434 13.2998 64.8732 14.7147 62.4073C15.887 60.3456 16.2104 58.486 15.5232 57.3137C14.836 56.1414 13.0977 55.4542 10.7126 55.4542C4.81058 55.4542 0 50.6436 0 44.7415V37.6267C0 31.7247 4.81058 26.9141 10.7126 26.9141C13.0977 26.9141 14.836 26.2269 15.5232 25.0546C16.2104 23.8822 15.9275 22.0227 14.7147 19.961C13.2998 17.4951 12.936 14.5845 13.6637 11.8356C14.3913 9.04625 16.17 6.74203 18.6764 5.32715L25.6699 1.32508C30.2379 -1.3834 36.2612 0.193176 39.0101 4.84205L39.4952 5.65055C41.8803 9.7739 45.1547 9.7739 47.5398 5.65055L47.9845 4.88248C50.7334 0.193176 56.7567 -1.3834 61.3652 1.3655L68.3183 5.36758C70.7842 6.78245 72.5629 9.08668 73.331 11.876C74.0586 14.6653 73.6948 17.5355 72.2799 20.0014C71.1076 22.0631 70.7842 23.9227 71.4714 25.095C72.1586 26.2673 73.8969 26.9545 76.282 26.9545C82.184 26.9545 86.9946 31.7651 86.9946 37.6672V44.782C86.9946 50.684 82.184 55.4946 76.282 55.4946C73.8969 55.4946 72.1586 56.1818 71.4714 57.3541C70.7842 58.5265 71.0672 60.386 72.2799 62.4477C73.6948 64.9136 74.099 67.8242 73.331 70.5731C72.6033 73.3624 70.8246 75.6667 68.3183 77.0815L61.3247 81.0836C59.7886 81.9325 58.1312 82.3772 56.4333 82.3772ZM43.4569 67.42C47.0547 67.42 50.41 69.6838 52.7142 73.6858L53.1589 74.4539C53.644 75.3028 54.4525 75.9092 55.4227 76.1518C56.3929 76.3943 57.3631 76.273 58.1716 75.7879L65.1651 71.7454C66.2162 71.1391 67.0247 70.1284 67.3481 68.9157C67.6715 67.7029 67.5098 66.4498 66.9034 65.3987C64.5992 61.4371 64.3162 57.3541 66.0949 54.2414C67.8736 51.1287 71.5523 49.35 76.1607 49.35C78.7479 49.35 80.8096 47.2883 80.8096 44.7011V37.5863C80.8096 35.0395 78.7479 32.9374 76.1607 32.9374C71.5523 32.9374 67.8736 31.1587 66.0949 28.046C64.3162 24.9333 64.5992 20.8504 66.9034 16.8887C67.5098 15.8377 67.6715 14.5845 67.3481 13.3717C67.0247 12.159 66.2566 11.1888 65.2055 10.542L58.212 6.5399C56.4737 5.48885 54.1695 6.09523 53.1185 7.87393L52.6738 8.642C50.3696 12.6441 47.0143 14.9079 43.4165 14.9079C39.8186 14.9079 36.4634 12.6441 34.1591 8.642L33.7145 7.8335C32.7038 6.13565 30.44 5.52928 28.7018 6.5399L21.7082 10.5824C20.6572 11.1888 19.8487 12.1994 19.5253 13.4122C19.2019 14.6249 19.3636 15.8781 19.97 16.9291C22.2742 20.8908 22.5572 24.9737 20.7785 28.0864C18.9998 31.1992 15.3211 32.9779 10.7126 32.9779C8.12543 32.9779 6.06375 35.0395 6.06375 37.6267V44.7415C6.06375 47.2883 8.12543 49.3904 10.7126 49.3904C15.3211 49.3904 18.9998 51.1691 20.7785 54.2818C22.5572 57.3946 22.2742 61.4775 19.97 65.4391C19.3636 66.4902 19.2019 67.7434 19.5253 68.9561C19.8487 70.1689 20.6168 71.1391 21.6678 71.7859L28.6613 75.7879C29.5103 76.3135 30.5209 76.4347 31.4507 76.1922C32.4209 75.9496 33.2294 75.3028 33.7549 74.4539L34.1996 73.6858C36.5038 69.7242 39.8591 67.42 43.4569 67.42Z"/>
</mask>
<path d="M56.4333 82.3772C55.5844 82.3772 54.7355 82.2559 53.8865 82.0538C51.3802 81.3666 49.2781 79.79 47.9441 77.5666L47.459 76.7581C45.0739 72.6348 41.7995 72.6348 39.4144 76.7581L38.9697 77.5262C37.6357 79.79 35.5336 81.407 33.0272 82.0538C30.4805 82.741 27.8528 82.3772 25.6295 81.0432L18.6764 77.0411C16.2104 75.6262 14.4317 73.322 13.6637 70.5327C12.936 67.7434 13.2998 64.8732 14.7147 62.4073C15.887 60.3456 16.2104 58.486 15.5232 57.3137C14.836 56.1414 13.0977 55.4542 10.7126 55.4542C4.81058 55.4542 0 50.6436 0 44.7415V37.6267C0 31.7247 4.81058 26.9141 10.7126 26.9141C13.0977 26.9141 14.836 26.2269 15.5232 25.0546C16.2104 23.8822 15.9275 22.0227 14.7147 19.961C13.2998 17.4951 12.936 14.5845 13.6637 11.8356C14.3913 9.04625 16.17 6.74203 18.6764 5.32715L25.6699 1.32508C30.2379 -1.3834 36.2612 0.193176 39.0101 4.84205L39.4952 5.65055C41.8803 9.7739 45.1547 9.7739 47.5398 5.65055L47.9845 4.88248C50.7334 0.193176 56.7567 -1.3834 61.3652 1.3655L68.3183 5.36758C70.7842 6.78245 72.5629 9.08668 73.331 11.876C74.0586 14.6653 73.6948 17.5355 72.2799 20.0014C71.1076 22.0631 70.7842 23.9227 71.4714 25.095C72.1586 26.2673 73.8969 26.9545 76.282 26.9545C82.184 26.9545 86.9946 31.7651 86.9946 37.6672V44.782C86.9946 50.684 82.184 55.4946 76.282 55.4946C73.8969 55.4946 72.1586 56.1818 71.4714 57.3541C70.7842 58.5265 71.0672 60.386 72.2799 62.4477C73.6948 64.9136 74.099 67.8242 73.331 70.5731C72.6033 73.3624 70.8246 75.6667 68.3183 77.0815L61.3247 81.0836C59.7886 81.9325 58.1312 82.3772 56.4333 82.3772ZM43.4569 67.42C47.0547 67.42 50.41 69.6838 52.7142 73.6858L53.1589 74.4539C53.644 75.3028 54.4525 75.9092 55.4227 76.1518C56.3929 76.3943 57.3631 76.273 58.1716 75.7879L65.1651 71.7454C66.2162 71.1391 67.0247 70.1284 67.3481 68.9157C67.6715 67.7029 67.5098 66.4498 66.9034 65.3987C64.5992 61.4371 64.3162 57.3541 66.0949 54.2414C67.8736 51.1287 71.5523 49.35 76.1607 49.35C78.7479 49.35 80.8096 47.2883 80.8096 44.7011V37.5863C80.8096 35.0395 78.7479 32.9374 76.1607 32.9374C71.5523 32.9374 67.8736 31.1587 66.0949 28.046C64.3162 24.9333 64.5992 20.8504 66.9034 16.8887C67.5098 15.8377 67.6715 14.5845 67.3481 13.3717C67.0247 12.159 66.2566 11.1888 65.2055 10.542L58.212 6.5399C56.4737 5.48885 54.1695 6.09523 53.1185 7.87393L52.6738 8.642C50.3696 12.6441 47.0143 14.9079 43.4165 14.9079C39.8186 14.9079 36.4634 12.6441 34.1591 8.642L33.7145 7.8335C32.7038 6.13565 30.44 5.52928 28.7018 6.5399L21.7082 10.5824C20.6572 11.1888 19.8487 12.1994 19.5253 13.4122C19.2019 14.6249 19.3636 15.8781 19.97 16.9291C22.2742 20.8908 22.5572 24.9737 20.7785 28.0864C18.9998 31.1992 15.3211 32.9779 10.7126 32.9779C8.12543 32.9779 6.06375 35.0395 6.06375 37.6267V44.7415C6.06375 47.2883 8.12543 49.3904 10.7126 49.3904C15.3211 49.3904 18.9998 51.1691 20.7785 54.2818C22.5572 57.3946 22.2742 61.4775 19.97 65.4391C19.3636 66.4902 19.2019 67.7434 19.5253 68.9561C19.8487 70.1689 20.6168 71.1391 21.6678 71.7859L28.6613 75.7879C29.5103 76.3135 30.5209 76.4347 31.4507 76.1922C32.4209 75.9496 33.2294 75.3028 33.7549 74.4539L34.1996 73.6858C36.5038 69.7242 39.8591 67.42 43.4569 67.42Z" fill="#8C86B3"/>
<path d="M53.8865 82.0538L38.8138 137.025L39.7449 137.28L40.6842 137.504L53.8865 82.0538ZM47.9441 77.5666L96.8212 48.2404L96.8211 48.2403L47.9441 77.5666ZM47.459 76.7581L-1.88138 105.298L-1.65288 105.693L-1.41808 106.085L47.459 76.7581ZM39.4144 76.7581L88.7436 105.317L88.7492 105.308L88.7547 105.298L39.4144 76.7581ZM38.9697 77.5262L88.0774 106.465L88.1889 106.275L88.299 106.085L38.9697 77.5262ZM33.0272 82.0538L18.7842 26.862L18.4804 26.9404L18.1774 27.0222L33.0272 82.0538ZM25.6295 81.0432L54.9557 32.1661L54.5122 31.9L54.0639 31.6419L25.6295 81.0432ZM18.6764 77.0411L47.1108 27.6399L47.0772 27.6205L47.0435 27.6012L18.6764 77.0411ZM13.6637 70.5327L-41.4905 84.9207L-41.3933 85.2936L-41.291 85.6651L13.6637 70.5327ZM14.7147 62.4073L64.1546 90.7744L64.2096 90.6786L64.2642 90.5825L14.7147 62.4073ZM14.7147 19.961L-34.7252 48.3282L-34.5718 48.5955L-34.4155 48.8612L14.7147 19.961ZM13.6637 11.8356L68.7658 26.4215L68.792 26.3226L68.8178 26.2236L13.6637 11.8356ZM18.6764 5.32715L46.6972 54.9641L46.8424 54.8822L46.9871 54.7994L18.6764 5.32715ZM25.6699 1.32508L53.9806 50.7973L54.3623 50.5789L54.7405 50.3546L25.6699 1.32508ZM39.0101 4.84205L-10.0542 33.854L-9.96104 34.0115L-9.86688 34.1685L39.0101 4.84205ZM39.4952 5.65055L88.8356 -22.8894L88.6071 -23.2845L88.3722 -23.6759L39.4952 5.65055ZM47.5398 5.65055L-1.78953 -22.9084L-1.79503 -22.8989L-1.80053 -22.8894L47.5398 5.65055ZM47.9845 4.88248L-1.1893 -23.9435L-1.26744 -23.8102L-1.34486 -23.6765L47.9845 4.88248ZM61.3652 1.3655L32.1653 50.3182L32.5463 50.5455L32.9307 50.7667L61.3652 1.3655ZM68.3183 5.36758L39.8838 54.7688L39.9174 54.7882L39.9511 54.8075L68.3183 5.36758ZM73.331 11.876L128.485 -2.51204L128.388 -2.88491L128.286 -3.25643L73.331 11.876ZM72.2799 20.0014L22.84 -8.36573L22.785 -8.26987L22.7304 -8.1738L72.2799 20.0014ZM72.2799 62.4477L121.72 34.0805L121.566 33.8132L121.41 33.5475L72.2799 62.4477ZM73.331 70.5731L18.4336 55.2342L18.3011 55.7085L18.1768 56.1851L73.331 70.5731ZM68.3183 77.0815L40.2974 27.4446L40.1522 27.5265L40.0075 27.6093L68.3183 77.0815ZM61.3247 81.0836L88.8948 130.972L89.2667 130.767L89.6354 130.556L61.3247 81.0836ZM52.7142 73.6858L3.31673 102.127L3.35077 102.186L3.38496 102.245L52.7142 73.6858ZM53.1589 74.4539L102.649 46.174L102.569 46.0341L102.488 45.8948L53.1589 74.4539ZM58.1716 75.7879L29.6463 26.4391L29.2439 26.6717L28.8453 26.9108L58.1716 75.7879ZM65.1651 71.7454L36.6809 22.3729L36.6604 22.3847L36.6398 22.3966L65.1651 71.7454ZM66.9034 65.3987L116.276 36.9145L116.226 36.8275L116.175 36.7406L66.9034 65.3987ZM66.9034 16.8887L116.175 45.5468L116.226 45.4599L116.276 45.3729L66.9034 16.8887ZM65.2055 10.542L95.0791 -38.0025L94.3051 -38.4789L93.5162 -38.9303L65.2055 10.542ZM58.212 6.5399L28.7191 55.3166L29.306 55.6715L29.9013 56.0122L58.212 6.5399ZM53.1185 7.87393L4.04565 -21.1236L3.91646 -20.905L3.78922 -20.6853L53.1185 7.87393ZM52.6738 8.642L3.34455 -19.9172L3.31035 -19.8581L3.2763 -19.799L52.6738 8.642ZM34.1591 8.642L-15.7852 36.1113L-15.5165 36.5998L-15.2384 37.083L34.1591 8.642ZM33.7145 7.8335L83.6588 -19.6358L83.1908 -20.4867L82.6941 -21.3211L33.7145 7.8335ZM28.7018 6.5399L57.2271 55.8887L57.2891 55.8528L57.3511 55.8168L28.7018 6.5399ZM21.7082 10.5824L50.1924 59.955L50.213 59.9431L50.2335 59.9312L21.7082 10.5824ZM19.97 16.9291L-29.4026 45.4133L-29.3524 45.5004L-29.3019 45.5872L19.97 16.9291ZM19.97 65.4391L-29.3019 36.781L-29.3524 36.8679L-29.4026 36.955L19.97 65.4391ZM21.6678 71.7859L-8.20575 120.33L-7.43172 120.807L-6.6429 121.258L21.6678 71.7859ZM28.6613 75.7879L58.6635 27.3228L57.8265 26.8046L56.972 26.3157L28.6613 75.7879ZM31.4507 76.1922L17.6261 20.8941L17.344 20.9646L17.0626 21.038L31.4507 76.1922ZM33.7549 74.4539L82.22 104.456L82.6627 103.741L83.0841 103.013L33.7549 74.4539ZM34.1996 73.6858L-15.0723 45.0277L-15.101 45.0772L-15.1297 45.1267L34.1996 73.6858ZM56.4333 25.3772C60.9933 25.3772 64.6619 26.026 67.0889 26.6039L40.6842 137.504C44.809 138.486 50.1754 139.377 56.4333 139.377V25.3772ZM68.9592 27.0828C80.3566 30.2079 90.4776 37.6678 96.8212 48.2404L-0.933042 106.893C8.07857 121.912 22.4037 132.525 38.8138 137.025L68.9592 27.0828ZM96.8211 48.2403L96.336 47.4318L-1.41808 106.085L-0.932981 106.893L96.8211 48.2403ZM96.7993 48.2181C91.5238 39.0978 74.9944 16.6656 43.4367 16.6656C11.8789 16.6656 -4.65045 39.0978 -9.92595 48.2181L88.7547 105.298C85.8643 110.295 72.1647 130.666 43.4367 130.666C14.7086 130.666 1.00905 110.295 -1.88138 105.298L96.7993 48.2181ZM-9.91487 48.199L-10.3595 48.9671L88.299 106.085L88.7436 105.317L-9.91487 48.199ZM-10.138 48.5877C-4.0827 38.3121 6.10402 30.1343 18.7842 26.862L47.2703 137.246C64.9631 132.68 79.3541 121.268 88.0774 106.465L-10.138 48.5877ZM18.1774 27.0222C30.4064 23.7223 43.747 25.4409 54.9557 32.1661L-3.6968 129.92C11.9587 139.314 30.5545 141.76 47.877 137.085L18.1774 27.0222ZM54.0639 31.6419L47.1108 27.6399L-9.75808 126.442L-2.80497 130.444L54.0639 31.6419ZM47.0435 27.6012C57.8105 33.779 65.4545 43.9107 68.6183 55.4003L-41.291 85.6651C-36.591 102.733 -25.3896 117.474 -9.69081 126.481L47.0435 27.6012ZM68.8178 56.1446C71.7578 67.4145 70.3704 79.9412 64.1546 90.7744L-34.7252 34.0401C-43.7707 49.8051 -45.8858 68.0722 -41.4905 84.9207L68.8178 56.1446ZM64.2642 90.5825C67.1414 85.5227 70.5478 78.0711 72.0757 68.6855C73.5686 59.5147 73.8576 44.1146 64.697 28.4877L-33.6506 86.1397C-42.124 71.6851 -41.6531 57.8009 -40.4431 50.3684C-39.1982 42.7211 -36.5396 37.2301 -34.8348 34.232L64.2642 90.5825ZM64.697 28.4877C48.0473 0.0853468 18.5869 -1.54584 10.7126 -1.54584V112.454C6.84054 112.454 0.502367 111.949 -6.90483 109.069C-14.2028 106.23 -25.6775 99.7408 -33.6506 86.1397L64.697 28.4877ZM10.7126 -1.54584C36.2908 -1.54584 57 19.1634 57 44.7415H-57C-57 82.1238 -26.6697 112.454 10.7126 112.454V-1.54584ZM57 44.7415V37.6267H-57V44.7415H57ZM57 37.6267C57 63.2049 36.2908 83.9141 10.7126 83.9141V-30.0859C-26.6696 -30.0859 -57 0.244435 -57 37.6267H57ZM10.7126 83.9141C18.5869 83.9141 48.0473 82.2829 64.697 53.8806L-33.6506 -3.77146C-25.6775 -17.3725 -14.2028 -23.8622 -6.90483 -26.7003C0.502367 -29.5809 6.84054 -30.0859 10.7126 -30.0859V83.9141ZM64.697 53.8806C81.8042 24.6977 67.7268 -2.33995 63.845 -8.93914L-34.4155 48.8612C-36.4073 45.4752 -39.2264 39.6603 -40.479 31.6807C-41.7092 23.8437 -41.8727 10.2545 -33.6506 -3.77146L64.697 53.8806ZM64.1546 -8.40615C70.3519 2.39489 71.8026 14.9495 68.7658 26.4215L-41.4385 -2.7503C-45.9305 14.2195 -43.7523 32.5953 -34.7252 48.3282L64.1546 -8.40615ZM68.8178 26.2236C65.6367 38.4179 57.5962 48.8115 46.6972 54.9641L-9.34453 -44.3098C-25.2562 -35.3274 -36.8541 -20.3254 -41.4905 -2.55247L68.8178 26.2236ZM46.9871 54.7994L53.9806 50.7973L-2.64083 -48.1472L-9.63436 -44.1451L46.9871 54.7994ZM54.7405 50.3546C31.6152 64.0661 2.88066 55.7291 -10.0542 33.854L88.0744 -24.1699C69.6418 -55.3428 28.8606 -66.8329 -3.40075 -47.7045L54.7405 50.3546ZM-9.86688 34.1685L-9.38178 34.977L88.3722 -23.6759L87.8871 -24.4844L-9.86688 34.1685ZM-9.8451 34.1905C-4.5696 43.3109 11.9597 65.7431 43.5175 65.7431C75.0753 65.7431 91.6046 43.3109 96.8801 34.1905L-1.80053 -22.8894C1.0899 -27.8865 14.7895 -48.2569 43.5175 -48.2569C72.2455 -48.2569 85.9451 -27.8865 88.8356 -22.8894L-9.8451 34.1905ZM96.8691 34.2095L97.3138 33.4415L-1.34486 -23.6765L-1.78953 -22.9084L96.8691 34.2095ZM97.1583 33.7085C84.1931 55.8256 55.2316 64.077 32.1653 50.3182L90.565 -47.5872C58.2819 -66.8438 17.2737 -55.4393 -1.1893 -23.9435L97.1583 33.7085ZM32.9307 50.7667L39.8838 54.7688L96.7527 -44.0337L89.7996 -48.0357L32.9307 50.7667ZM39.9511 54.8075C29.1841 48.6297 21.5401 38.498 18.3763 27.0084L128.286 -3.25643C123.586 -20.3247 112.384 -35.0648 96.6854 -44.0723L39.9511 54.8075ZM18.1768 26.2641C15.2368 14.9942 16.6242 2.46744 22.84 -8.36573L121.72 48.3686C130.765 32.6036 132.88 14.3365 128.485 -2.51204L18.1768 26.2641ZM22.7304 -8.1738C19.8532 -3.11398 16.4468 4.33767 14.9189 13.7233C13.426 22.8941 13.137 38.2941 22.2976 53.921L120.645 -3.73103C129.119 10.7235 128.648 24.6076 127.438 32.0401C126.193 39.6875 123.534 45.1785 121.829 48.1767L22.7304 -8.1738ZM22.2976 53.921C38.9473 82.3234 68.4077 83.9545 76.282 83.9545V-30.0455C80.1541 -30.0455 86.4922 -29.5405 93.8994 -26.6599C101.197 -23.8218 112.672 -17.3321 120.645 -3.73103L22.2976 53.921ZM76.282 83.9545C50.7038 83.9545 29.9946 63.2453 29.9946 37.6672H143.995C143.995 0.284874 113.664 -30.0455 76.282 -30.0455V83.9545ZM29.9946 37.6672V44.782H143.995V37.6672H29.9946ZM29.9946 44.782C29.9946 19.2038 50.7038 -1.50542 76.282 -1.50542V112.495C113.664 112.495 143.995 82.1642 143.995 44.782H29.9946ZM76.282 -1.50542C68.4077 -1.50542 38.9473 0.125758 22.2976 28.5281L120.645 86.1801C112.672 99.7812 101.197 106.271 93.8994 109.109C86.4922 111.99 80.1541 112.495 76.282 112.495V-1.50542ZM22.2976 28.5281C5.19049 57.7109 19.2677 84.7485 23.1497 91.3478L121.41 33.5475C123.402 36.9335 126.221 42.7485 127.474 50.7281C128.704 58.5651 128.867 72.1543 120.645 86.1801L22.2976 28.5281ZM22.84 90.8148C16.9378 80.5282 14.9397 67.7389 18.4336 55.2342L128.228 85.9121C133.258 67.9096 130.452 49.299 121.72 34.0805L22.84 90.8148ZM18.1768 56.1851C21.3579 43.9908 29.3983 33.5972 40.2974 27.4446L96.3391 126.719C112.251 117.736 123.849 102.734 128.485 84.9612L18.1768 56.1851ZM40.0075 27.6093L33.014 31.6114L89.6354 130.556L96.629 126.554L40.0075 27.6093ZM33.7546 31.1948C40.1703 27.6493 47.9442 25.3772 56.4333 25.3772V139.377C68.3181 139.377 79.4069 136.216 88.8948 130.972L33.7546 31.1948ZM43.4569 124.42C20.8646 124.42 7.91512 110.113 3.31673 102.127L102.112 45.2449C92.9048 29.254 73.2448 10.42 43.4569 10.42V124.42ZM3.38496 102.245L3.82963 103.013L102.488 45.8948L102.043 45.1267L3.38496 102.245ZM3.66902 102.734C12.0593 117.417 25.942 127.536 41.5982 131.45L69.2472 20.8536C82.963 24.2826 95.2286 33.1888 102.649 46.174L3.66902 102.734ZM41.5982 131.45C55.7652 134.992 72.4831 133.674 87.4978 124.665L28.8453 26.9108C42.2431 18.8722 57.0205 17.797 69.2472 20.8536L41.5982 131.45ZM86.6969 125.137L93.6904 121.094L36.6398 22.3966L29.6463 26.4391L86.6969 125.137ZM93.6493 121.118C107.266 113.262 118.035 100.058 122.423 83.6025L12.2727 54.2289C16.0141 40.1984 25.1663 29.0159 36.6809 22.3729L93.6493 121.118ZM122.423 83.6025C126.53 68.2031 124.622 51.3808 116.276 36.9145L17.5308 93.8829C10.3976 81.5187 8.81298 67.2027 12.2727 54.2289L122.423 83.6025ZM116.175 36.7406C120.939 44.9318 126.667 63.1274 115.585 82.5213L16.605 25.9615C1.96538 51.5809 8.25883 77.9423 17.6316 94.0568L116.175 36.7406ZM115.585 82.5213C104.197 102.45 85.0951 106.35 76.1607 106.35V-7.65002C58.0094 -7.65002 31.5502 -0.192484 16.605 25.9615L115.585 82.5213ZM76.1607 106.35C110.228 106.35 137.81 78.7685 137.81 44.7011H23.8096C23.8096 15.8081 47.2676 -7.65002 76.1607 -7.65002V106.35ZM137.81 44.7011V37.5863H23.8096V44.7011H137.81ZM137.81 37.5863C137.81 3.88261 110.55 -24.0626 76.1607 -24.0626V89.9374C46.9453 89.9374 23.8096 66.1965 23.8096 37.5863H137.81ZM76.1607 -24.0626C85.0951 -24.0626 104.197 -20.1624 115.585 -0.233916L16.605 56.3259C31.5502 82.4799 58.0094 89.9374 76.1607 89.9374V-24.0626ZM115.585 -0.233916C126.667 19.16 120.939 37.3556 116.175 45.5468L17.6316 -11.7694C8.25883 4.3451 1.96538 30.7066 16.605 56.3259L115.585 -0.233916ZM116.276 45.3729C124.622 30.9067 126.53 14.0843 122.423 -1.31504L12.2727 28.0585C8.81298 15.0847 10.3977 0.768649 17.5308 -11.5955L116.276 45.3729ZM122.423 -1.31504C118.056 -17.6921 107.578 -30.3108 95.0791 -38.0025L35.332 59.0865C24.9351 52.6884 15.9931 42.01 12.2727 28.0585L122.423 -1.31504ZM93.5162 -38.9303L86.5227 -42.9324L29.9013 56.0122L36.8948 60.0142L93.5162 -38.9303ZM87.7049 -42.2368C57.9253 -60.2431 20.6803 -49.2745 4.04565 -21.1236L102.191 36.8715C87.6588 61.465 55.0222 71.2208 28.7191 55.3166L87.7049 -42.2368ZM3.78922 -20.6853L3.34455 -19.9172L102.003 37.2012L102.448 36.4331L3.78922 -20.6853ZM3.2763 -19.799C7.87471 -27.7857 20.8242 -42.0921 43.4165 -42.0921V71.9079C73.2044 71.9079 92.8644 53.0738 102.071 37.083L3.2763 -19.799ZM43.4165 -42.0921C66.0087 -42.0921 78.9582 -27.7857 83.5566 -19.799L-15.2384 37.083C-6.03149 53.0738 13.6286 71.9079 43.4165 71.9079V-42.0921ZM84.1035 -18.8273L83.6588 -19.6358L-16.2299 35.3028L-15.7852 36.1113L84.1035 -18.8273ZM82.6941 -21.3211C65.7963 -49.7095 28.9722 -59.5509 0.0523893 -42.737L57.3511 55.8168C31.9079 70.6094 -0.388602 61.9808 -15.2652 36.9881L82.6941 -21.3211ZM0.176434 -42.8089L-6.81709 -38.7664L50.2335 59.9312L57.2271 55.8887L0.176434 -42.8089ZM-6.77595 -38.7902C-20.3926 -30.9344 -31.1618 -17.7307 -35.5501 -1.27462L74.6007 28.0989C70.8592 42.1295 61.707 53.3119 50.1924 59.955L-6.77595 -38.7902ZM-35.5501 -1.27462C-39.6566 14.1246 -37.7486 30.947 -29.4026 45.4133L69.3425 -11.5551C76.4757 0.809138 78.0603 15.1252 74.6007 28.0989L-35.5501 -1.27462ZM-29.3019 45.5872C-34.0661 37.3961 -39.7937 19.2005 -28.7114 -0.19349L70.2683 56.3663C84.908 30.7469 78.6145 4.38548 69.2418 -11.729L-29.3019 45.5872ZM-28.7114 -0.19349C-17.3237 -20.122 1.77821 -24.0221 10.7126 -24.0221V89.9779C28.8639 89.9779 55.3232 82.5203 70.2683 56.3663L-28.7114 -0.19349ZM10.7126 -24.0221C-23.3548 -24.0221 -50.9362 3.55927 -50.9362 37.6267H63.0638C63.0638 66.5198 39.6056 89.9779 10.7126 89.9779V-24.0221ZM-50.9362 37.6267V44.7415H63.0638V37.6267H-50.9362ZM-50.9362 44.7415C-50.9362 78.4453 -23.6771 106.39 10.7126 106.39V-7.60959C39.928 -7.60959 63.0638 16.1314 63.0638 44.7415H-50.9362ZM10.7126 106.39C1.77821 106.39 -17.3237 102.49 -28.7114 82.5618L70.2683 26.0019C55.3232 -0.152058 28.8639 -7.60959 10.7126 -7.60959V106.39ZM-28.7114 82.5618C-39.7937 63.1678 -34.0661 44.9722 -29.3019 36.781L69.2418 94.0972C78.6145 77.9828 84.908 51.6213 70.2683 26.0019L-28.7114 82.5618ZM-29.4026 36.955C-37.7486 51.4212 -39.6566 68.2436 -35.5501 83.6429L74.6007 54.2693C78.0603 67.2431 76.4757 81.5591 69.3425 93.9233L-29.4026 36.955ZM-35.5501 83.6429C-31.1829 100.02 -20.7047 112.639 -8.20575 120.33L51.5414 23.2413C61.9382 29.6394 70.8802 40.3178 74.6007 54.2693L-35.5501 83.6429ZM-6.6429 121.258L0.350624 125.26L56.972 26.3157L49.9785 22.3136L-6.6429 121.258ZM-1.34088 124.253C13.6079 133.507 30.8047 135.268 45.8387 131.346L17.0626 21.038C30.237 17.6012 45.4126 19.1199 58.6635 27.3228L-1.34088 124.253ZM45.2752 131.49C62.4294 127.202 74.9062 116.271 82.22 104.456L-14.7102 44.4517C-8.4475 34.335 2.41227 24.6975 17.6261 20.8941L45.2752 131.49ZM83.0841 103.013L83.5288 102.245L-15.1297 45.1267L-15.5744 45.8948L83.0841 103.013ZM83.4714 102.344C79.0799 109.894 66.2861 124.42 43.4569 124.42V10.42C13.432 10.42 -6.07232 29.5541 -15.0723 45.0277L83.4714 102.344Z" fill="#8C86B3" mask="url(#path-2-inside-1_389_523)"/>
</svg>
