<svg width="1440" height="260" viewBox="0 0 1440 260" fill="none" xmlns="http://www.w3.org/2000/svg">
<g clip-path="url(#clip0_427_5444)">
<path d="M299.282 83.6971C299.282 102.002 284.061 116.85 265.27 116.85C246.478 116.85 231.258 102.014 231.258 83.6971C231.258 65.3804 246.478 50.5444 265.27 50.5444C284.061 50.5444 299.282 65.3804 299.282 83.6971Z" fill="white"/>
<path d="M195.347 103.737C196.973 103.552 198.455 102.28 198.598 100.568C198.705 99.2386 199.618 93.399 199.618 93.399C199.618 93.399 200.401 99.2617 200.638 100.568C200.994 102.511 202.181 103.506 203.889 103.737C205.241 103.91 211.244 104.731 211.244 104.731C211.244 104.731 205.241 105.552 203.889 105.726C201.73 106.003 200.852 107.356 200.65 108.894C200.472 110.212 199.618 116.064 199.618 116.064C199.618 116.064 198.728 110.212 198.598 108.894C198.408 107.125 197.079 105.911 195.359 105.726C193.995 105.575 188.004 104.731 188.004 104.731C188.004 104.731 194.007 103.887 195.359 103.737H195.347Z" fill="#FFD655"/>
<path d="M537.888 197.494C539.086 197.355 540.166 196.43 540.273 195.17C540.356 194.199 541.02 189.92 541.02 189.92C541.02 189.92 541.589 194.222 541.767 195.17C542.028 196.592 542.906 197.321 544.152 197.494C545.137 197.633 549.55 198.223 549.55 198.223C549.55 198.223 545.148 198.824 544.152 198.951C542.574 199.159 541.933 200.142 541.767 201.276C541.637 202.235 541.02 206.525 541.02 206.525C541.02 206.525 540.367 202.235 540.273 201.276C540.13 199.969 539.157 199.09 537.888 198.951C536.891 198.847 532.49 198.223 532.49 198.223C532.49 198.223 536.891 197.61 537.888 197.494Z" fill="#FFD655"/>
<path d="M476.543 14.7898C478.287 14.5932 479.877 13.2287 480.031 11.3901C480.15 9.96777 481.122 3.70032 481.122 3.70032C481.122 3.70032 481.965 9.9909 482.214 11.3901C482.605 13.4831 483.875 14.5354 485.702 14.7898C487.149 14.9864 493.591 15.8652 493.591 15.8652C493.591 15.8652 487.149 16.744 485.702 16.929C483.388 17.2297 482.451 18.6751 482.226 20.3287C482.036 21.7395 481.122 28.0185 481.122 28.0185C481.122 28.0185 480.173 21.7511 480.031 20.3287C479.829 18.4207 478.406 17.1372 476.555 16.929C475.096 16.7787 468.666 15.8652 468.666 15.8652C468.666 15.8652 475.108 14.9632 476.555 14.7898H476.543Z" fill="#FA506D"/>
<path d="M7.5993 81.8585C8.79749 81.7197 9.87706 80.7947 9.98383 79.5342C10.0669 78.5629 10.7312 74.2844 10.7312 74.2844C10.7312 74.2844 11.3007 78.586 11.4786 79.5342C11.7396 80.9565 12.6175 81.6851 13.8631 81.8585C14.8596 81.9973 19.2609 82.587 19.2609 82.587C19.2609 82.587 14.8596 83.1883 13.8631 83.3155C12.2734 83.5237 11.6447 84.5066 11.4786 85.6398C11.3481 86.6111 10.7312 90.8897 10.7312 90.8897C10.7312 90.8897 10.0787 86.5996 9.98383 85.6398C9.84148 84.3331 8.86869 83.4543 7.61118 83.3155C6.61466 83.2114 2.21338 82.587 2.21338 82.587C2.21338 82.587 6.61466 81.9741 7.61118 81.8585H7.5993Z" fill="#FFD655"/>
<path d="M314.87 13.6335C316.673 13.4253 318.322 12.0146 318.477 10.1182C318.595 8.64958 319.604 2.16241 319.604 2.16241C319.604 2.16241 320.47 8.66114 320.742 10.1182C321.146 12.2805 322.463 13.3791 324.349 13.6335C325.844 13.8301 332.511 14.7436 332.511 14.7436C332.511 14.7436 325.844 15.6571 324.349 15.8537C321.952 16.1659 320.98 17.6576 320.742 19.369C320.541 20.8376 319.604 27.3247 319.604 27.3247C319.604 27.3247 318.619 20.8376 318.465 19.369C318.263 17.4032 316.78 16.0618 314.87 15.8537C313.363 15.6918 306.696 14.7551 306.696 14.7551C306.696 14.7551 313.363 13.8185 314.87 13.645V13.6335Z" fill="#FFD655"/>
<path d="M533.89 81.9395C535.124 81.8007 536.251 80.8294 536.358 79.5342C536.441 78.5282 537.129 74.0994 537.129 74.0994C537.129 74.0994 537.722 78.5513 537.9 79.5342C538.173 81.0144 539.074 81.766 540.367 81.9395C541.388 82.0782 545.955 82.6911 545.955 82.6911C545.955 82.6911 541.399 83.3155 540.367 83.4427C538.73 83.6509 538.066 84.68 537.9 85.8479C537.757 86.854 537.117 91.2944 537.117 91.2944C537.117 91.2944 536.441 86.854 536.334 85.8479C536.191 84.5066 535.183 83.5931 533.878 83.4427C532.846 83.3387 528.291 82.6911 528.291 82.6911C528.291 82.6911 532.846 82.0551 533.878 81.9395H533.89Z" fill="#FFD655"/>
<path d="M244.912 15.2871C245.909 15.1714 246.823 14.3967 246.906 13.3444C246.977 12.5349 247.534 8.93866 247.534 8.93866C247.534 8.93866 248.009 12.5349 248.163 13.3444C248.377 14.5354 249.112 15.1483 250.156 15.2871C250.987 15.4027 254.676 15.8999 254.676 15.8999C254.676 15.8999 250.987 16.4087 250.156 16.5128C248.827 16.6863 248.294 17.5073 248.163 18.4555C248.056 19.2649 247.534 22.8612 247.534 22.8612C247.534 22.8612 246.989 19.2649 246.906 18.4555C246.799 17.3685 245.98 16.6284 244.912 16.5128C244.082 16.4203 240.393 15.8999 240.393 15.8999C240.393 15.8999 244.082 15.3796 244.912 15.2871Z" fill="#FFD655"/>
<path d="M724.248 18.2357C725.245 18.1201 726.158 17.3453 726.241 16.2931C726.313 15.4836 726.87 11.8873 726.87 11.8873C726.87 11.8873 727.345 15.4836 727.499 16.2931C727.712 17.4841 728.448 18.097 729.492 18.2357C730.322 18.3514 734.012 18.8486 734.012 18.8486C734.012 18.8486 730.322 19.3574 729.492 19.4615C728.163 19.6349 727.629 20.4559 727.499 21.4041C727.392 22.2136 726.87 25.8099 726.87 25.8099C726.87 25.8099 726.324 22.2136 726.241 21.4041C726.135 20.3172 725.316 19.5771 724.248 19.4615C723.418 19.369 719.729 18.8486 719.729 18.8486C719.729 18.8486 723.418 18.3282 724.248 18.2357Z" fill="#FFD655"/>
<path d="M290.87 128.321C291.867 128.205 292.78 127.431 292.864 126.378C292.935 125.569 293.492 121.973 293.492 121.973C293.492 121.973 293.967 125.569 294.121 126.378C294.335 127.569 295.07 128.182 296.114 128.321C296.944 128.437 300.634 128.934 300.634 128.934C300.634 128.934 296.944 129.443 296.114 129.547C294.785 129.72 294.252 130.541 294.121 131.489C294.014 132.299 293.492 135.895 293.492 135.895C293.492 135.895 292.947 132.299 292.864 131.489C292.757 130.402 291.938 129.662 290.87 129.547C290.04 129.454 286.351 128.934 286.351 128.934C286.351 128.934 290.04 128.413 290.87 128.321Z" fill="#FFD655"/>
<path opacity="0.4" d="M214.068 172.054C214.068 184.173 224.14 193.99 236.573 193.99C249.005 193.99 259.077 184.173 259.077 172.054C259.077 159.936 249.005 150.118 236.573 150.118C224.14 150.118 214.068 159.936 214.068 172.054Z" fill="#FFD655"/>
<path opacity="0.6" d="M144.952 209C150.705 209 155.368 204.454 155.368 198.847C155.368 193.24 150.705 188.694 144.952 188.694C139.2 188.694 134.536 193.24 134.536 198.847C134.536 204.454 139.2 209 144.952 209Z" fill="#FFD655"/>
<path opacity="0.6" d="M117.441 135.884C117.441 141.492 122.104 146.036 127.857 146.036C133.611 146.036 138.273 141.492 138.273 135.884C138.273 130.275 133.611 125.731 127.857 125.731C122.104 125.731 117.441 130.275 117.441 135.884Z" fill="#FFD655"/>
<path opacity="0.6" d="M190.057 55.9445C190.057 65.5192 198.017 73.2899 207.84 73.2899C217.662 73.2899 225.635 65.5307 225.635 55.9445C225.635 46.3583 217.674 38.5992 207.84 38.5992C198.005 38.5992 190.057 46.3583 190.057 55.9445Z" fill="#FFD655"/>
<path d="M218.813 102.8C218.813 105.333 220.925 107.391 223.523 107.391C226.121 107.391 228.232 105.333 228.232 102.8C228.232 100.268 226.121 98.2094 223.523 98.2094C220.925 98.2094 218.813 100.268 218.813 102.8Z" fill="#FFD655"/>
<path d="M279.221 36.113C279.221 37.4197 280.312 38.4836 281.653 38.4836C282.993 38.4836 284.085 37.4197 284.085 36.113C284.085 34.8063 282.993 33.7425 281.653 33.7425C280.312 33.7425 279.221 34.8063 279.221 36.113Z" fill="#FFD655"/>
<path d="M270.917 122.84C270.917 124.147 272.008 125.21 273.348 125.21C274.689 125.21 275.78 124.147 275.78 122.84C275.78 121.533 274.689 120.469 273.348 120.469C272.008 120.469 270.917 121.533 270.917 122.84Z" fill="#FFD655"/>
<path d="M217.532 81.7891C217.532 83.0958 218.623 84.1596 219.964 84.1596C221.304 84.1596 222.396 83.0958 222.396 81.7891C222.396 80.4824 221.304 79.4186 219.964 79.4186C218.623 79.4186 217.532 80.4824 217.532 81.7891Z" fill="#FFD655"/>
<path d="M306.506 67.3347C306.506 68.6414 307.598 69.7052 308.938 69.7052C310.279 69.7052 311.37 68.6414 311.37 67.3347C311.37 66.028 310.279 64.9642 308.938 64.9642C307.598 64.9642 306.506 66.028 306.506 67.3347Z" fill="#FFD655"/>
<path d="M209.228 125.153C209.228 126.459 210.319 127.523 211.659 127.523C213 127.523 214.091 126.459 214.091 125.153C214.091 123.846 213 122.782 211.659 122.782C210.319 122.782 209.228 123.846 209.228 125.153Z" fill="#FFD655"/>
<path d="M169.485 55.1929C169.485 56.4996 170.577 57.5635 171.917 57.5635C173.258 57.5635 174.349 56.4996 174.349 55.1929C174.349 53.8862 173.258 52.8224 171.917 52.8224C170.577 52.8224 169.485 53.8862 169.485 55.1929Z" fill="#FFD655"/>
<path d="M258.46 29.7531C258.46 31.0598 259.551 32.1236 260.892 32.1236C262.232 32.1236 263.324 31.0598 263.324 29.7531C263.324 28.4464 262.232 27.3826 260.892 27.3826C259.551 27.3826 258.46 28.4464 258.46 29.7531Z" fill="#FFD655"/>
<path d="M143.979 102.025C143.979 103.332 145.071 104.396 146.411 104.396C147.752 104.396 148.843 103.332 148.843 102.025C148.843 100.719 147.752 99.6548 146.411 99.6548C145.071 99.6548 143.979 100.719 143.979 102.025Z" fill="#FFD655"/>
<path d="M368.789 53.4584C368.789 54.7651 369.88 55.829 371.221 55.829C372.561 55.829 373.653 54.7651 373.653 53.4584C373.653 52.1517 372.561 51.0879 371.221 51.0879C369.88 51.0879 368.789 52.1517 368.789 53.4584Z" fill="#FFD655"/>
<path d="M231.376 51.1457C231.376 52.4524 232.468 53.5162 233.808 53.5162C235.149 53.5162 236.24 52.4524 236.24 51.1457C236.24 49.839 235.149 48.7751 233.808 48.7751C232.468 48.7751 231.376 49.839 231.376 51.1457Z" fill="#FFD655"/>
<path d="M169.687 89.6871C169.687 90.9937 170.778 92.0576 172.119 92.0576C173.46 92.0576 174.551 90.9937 174.551 89.6871C174.551 88.3804 173.46 87.3165 172.119 87.3165C170.778 87.3165 169.687 88.3804 169.687 89.6871Z" fill="#FFD655"/>
<path d="M170.482 12.6043C170.482 13.911 171.573 14.9748 172.914 14.9748C174.254 14.9748 175.346 13.911 175.346 12.6043C175.346 11.2976 174.254 10.2338 172.914 10.2338C171.573 10.2338 170.482 11.2976 170.482 12.6043Z" fill="#FFD655"/>
<path d="M77.9482 103.506C77.9482 104.812 79.0397 105.876 80.3802 105.876C81.7208 105.876 82.8122 104.812 82.8122 103.506C82.8122 102.199 81.7208 101.135 80.3802 101.135C79.0397 101.135 77.9482 102.199 77.9482 103.506Z" fill="#FFD655"/>
<path opacity="0.6" d="M320.078 106.073C320.078 108.698 322.261 110.825 324.954 110.825C327.647 110.825 329.83 108.698 329.83 106.073C329.83 103.448 327.647 101.32 324.954 101.32C322.261 101.32 320.078 103.448 320.078 106.073Z" fill="#FFD655"/>
<path opacity="0.6" d="M5.90283 194.534C5.90283 197.159 8.08568 199.287 10.7786 199.287C13.4716 199.287 15.6545 197.159 15.6545 194.534C15.6545 191.909 13.4716 189.781 10.7786 189.781C8.08568 189.781 5.90283 191.909 5.90283 194.534Z" fill="#FFD655"/>
<path opacity="0.6" d="M312.13 55.7711C312.13 59.5871 315.297 62.6746 319.212 62.6746C323.127 62.6746 326.295 59.5871 326.295 55.7711C326.295 51.9552 323.127 48.8677 319.212 48.8677C315.297 48.8677 312.13 51.9552 312.13 55.7711Z" fill="#FFD655"/>
<path opacity="0.6" d="M247.249 133.247C251.161 133.247 254.332 130.156 254.332 126.344C254.332 122.531 251.161 119.44 247.249 119.44C243.338 119.44 240.167 122.531 240.167 126.344C240.167 130.156 243.338 133.247 247.249 133.247Z" fill="#FFD655"/>
<path opacity="0.6" d="M28.9647 133.247C32.8762 133.247 36.0471 130.156 36.0471 126.344C36.0471 122.531 32.8762 119.44 28.9647 119.44C25.0532 119.44 21.8823 122.531 21.8823 126.344C21.8823 130.156 25.0532 133.247 28.9647 133.247Z" fill="#FFD655"/>
<path opacity="0.6" d="M119.114 128.564C119.114 131.258 121.356 133.444 124.12 133.444C126.884 133.444 129.126 131.258 129.126 128.564C129.126 125.869 126.884 123.684 124.12 123.684C121.356 123.684 119.114 125.869 119.114 128.564Z" fill="#FFD655"/>
<path opacity="0.6" d="M187.043 168.377C187.043 171.071 189.285 173.257 192.049 173.257C194.813 173.257 197.044 171.071 197.044 168.377C197.044 165.683 194.802 163.509 192.049 163.509C189.297 163.509 187.043 165.694 187.043 168.377Z" fill="#FFD655"/>
</g>
<g clip-path="url(#clip1_427_5444)">
<path d="M1200.57 143.091C1200.57 160.17 1186.37 174.023 1168.85 174.023C1151.32 174.023 1137.13 160.18 1137.13 143.091C1137.13 126.001 1151.32 112.159 1168.85 112.159C1186.37 112.159 1200.57 126.001 1200.57 143.091Z" fill="white"/>
<path d="M1103.64 161.788C1105.15 161.615 1106.53 160.429 1106.67 158.832C1106.77 157.591 1107.62 152.143 1107.62 152.143C1107.62 152.143 1108.35 157.613 1108.57 158.832C1108.9 160.644 1110.01 161.572 1111.6 161.788C1112.86 161.95 1118.46 162.716 1118.46 162.716C1118.46 162.716 1112.86 163.482 1111.6 163.644C1109.59 163.903 1108.77 165.165 1108.58 166.6C1108.42 167.83 1107.62 173.289 1107.62 173.289C1107.62 173.289 1106.79 167.83 1106.67 166.6C1106.49 164.949 1105.25 163.816 1103.65 163.644C1102.37 163.503 1096.79 162.716 1096.79 162.716C1096.79 162.716 1102.39 161.928 1103.65 161.788H1103.64Z" fill="white"/>
<path d="M1423.1 249.265C1424.22 249.136 1425.22 248.272 1425.32 247.096C1425.4 246.19 1426.02 242.198 1426.02 242.198C1426.02 242.198 1426.55 246.212 1426.72 247.096C1426.96 248.423 1427.78 249.103 1428.94 249.265C1429.86 249.394 1433.98 249.945 1433.98 249.945C1433.98 249.945 1429.87 250.506 1428.94 250.624C1427.47 250.819 1426.87 251.736 1426.72 252.793C1426.6 253.688 1426.02 257.691 1426.02 257.691C1426.02 257.691 1425.41 253.688 1425.32 252.793C1425.19 251.574 1424.28 250.754 1423.1 250.624C1422.17 250.527 1418.07 249.945 1418.07 249.945C1418.07 249.945 1422.17 249.373 1423.1 249.265Z" fill="white"/>
<path d="M1365.89 78.7991C1367.51 78.6157 1369 77.3426 1369.14 75.6271C1369.25 74.3001 1370.16 68.4525 1370.16 68.4525C1370.16 68.4525 1370.94 74.3217 1371.18 75.6271C1371.54 77.5799 1372.73 78.5617 1374.43 78.7991C1375.78 78.9825 1381.79 79.8025 1381.79 79.8025C1381.79 79.8025 1375.78 80.6224 1374.43 80.795C1372.27 81.0756 1371.4 82.4242 1371.19 83.967C1371.01 85.2833 1370.16 91.1417 1370.16 91.1417C1370.16 91.1417 1369.27 85.294 1369.14 83.967C1368.95 82.1868 1367.62 80.9892 1365.9 80.795C1364.54 80.6548 1358.54 79.8025 1358.54 79.8025C1358.54 79.8025 1364.55 78.9609 1365.9 78.7991H1365.89Z" fill="white"/>
<path d="M928.536 141.375C929.653 141.246 930.66 140.383 930.76 139.207C930.837 138.3 931.457 134.308 931.457 134.308C931.457 134.308 931.988 138.322 932.154 139.207C932.397 140.534 933.216 141.213 934.378 141.375C935.307 141.505 939.412 142.055 939.412 142.055C939.412 142.055 935.307 142.616 934.378 142.735C932.895 142.929 932.309 143.846 932.154 144.903C932.032 145.809 931.457 149.801 931.457 149.801C931.457 149.801 930.848 145.799 930.76 144.903C930.627 143.684 929.72 142.864 928.547 142.735C927.617 142.638 923.513 142.055 923.513 142.055C923.513 142.055 927.617 141.483 928.547 141.375H928.536Z" fill="white"/>
<path d="M774.446 182.373C775.564 182.244 776.571 181.381 776.67 180.205C776.748 179.298 777.367 175.307 777.367 175.307C777.367 175.307 777.898 179.32 778.064 180.205C778.308 181.532 779.127 182.211 780.288 182.373C781.218 182.503 785.322 183.053 785.322 183.053C785.322 183.053 781.218 183.614 780.288 183.733C778.806 183.927 778.219 184.844 778.064 185.901C777.943 186.797 777.367 190.799 777.367 190.799C777.367 190.799 776.759 186.797 776.67 185.901C776.538 184.682 775.63 183.862 774.457 183.733C773.528 183.636 769.423 183.053 769.423 183.053C769.423 183.053 773.528 182.481 774.457 182.373H774.446Z" fill="white"/>
<path d="M1215.11 77.7202C1216.79 77.526 1218.33 76.2097 1218.47 74.4403C1218.58 73.0701 1219.52 67.0175 1219.52 67.0175C1219.52 67.0175 1220.33 73.0809 1220.58 74.4403C1220.96 76.4579 1222.19 77.4828 1223.95 77.7202C1225.34 77.9036 1231.56 78.7559 1231.56 78.7559C1231.56 78.7559 1225.34 79.6083 1223.95 79.7917C1221.71 80.083 1220.8 81.4747 1220.58 83.0715C1220.39 84.4417 1219.52 90.4943 1219.52 90.4943C1219.52 90.4943 1218.6 84.4417 1218.46 83.0715C1218.27 81.2374 1216.89 79.9859 1215.11 79.7917C1213.7 79.6406 1207.48 78.7667 1207.48 78.7667C1207.48 78.7667 1213.7 77.8928 1215.11 77.731V77.7202Z" fill="white"/>
<path d="M1419.37 141.451C1420.52 141.321 1421.57 140.415 1421.67 139.207C1421.75 138.268 1422.39 134.136 1422.39 134.136C1422.39 134.136 1422.94 138.289 1423.11 139.207C1423.37 140.588 1424.21 141.289 1425.41 141.451C1426.36 141.58 1430.62 142.152 1430.62 142.152C1430.62 142.152 1426.37 142.735 1425.41 142.853C1423.89 143.047 1423.27 144.008 1423.11 145.097C1422.98 146.036 1422.38 150.179 1422.38 150.179C1422.38 150.179 1421.75 146.036 1421.65 145.097C1421.52 143.846 1420.58 142.993 1419.36 142.853C1418.4 142.756 1414.15 142.152 1414.15 142.152C1414.15 142.152 1418.4 141.559 1419.36 141.451H1419.37Z" fill="white"/>
<path d="M1149.86 79.2631C1150.79 79.1552 1151.64 78.4323 1151.72 77.4505C1151.79 76.6953 1152.31 73.3399 1152.31 73.3399C1152.31 73.3399 1152.75 76.6953 1152.89 77.4505C1153.09 78.5618 1153.78 79.1336 1154.75 79.2631C1155.53 79.3709 1158.97 79.8349 1158.97 79.8349C1158.97 79.8349 1155.53 80.3096 1154.75 80.4067C1153.51 80.5685 1153.01 81.3345 1152.89 82.2192C1152.79 82.9745 1152.31 86.3298 1152.31 86.3298C1152.31 86.3298 1151.8 82.9745 1151.72 82.2192C1151.62 81.2051 1150.86 80.5146 1149.86 80.4067C1149.09 80.3204 1145.65 79.8349 1145.65 79.8349C1145.65 79.8349 1149.09 79.3494 1149.86 79.2631Z" fill="white"/>
<path d="M824.157 70.9231C825.087 70.8153 825.939 70.0924 826.016 69.1106C826.082 68.3554 826.602 65 826.602 65C826.602 65 827.045 68.3554 827.189 69.1106C827.388 70.2219 828.074 70.7937 829.048 70.9231C829.822 71.031 833.263 71.495 833.263 71.495C833.263 71.495 829.822 71.9697 829.048 72.0668C827.808 72.2286 827.311 72.9946 827.189 73.8793C827.089 74.6346 826.602 77.9899 826.602 77.9899C826.602 77.9899 826.094 74.6346 826.016 73.8793C825.916 72.8652 825.153 72.1747 824.157 72.0668C823.383 71.9805 819.942 71.495 819.942 71.495C819.942 71.495 823.383 71.0095 824.157 70.9231Z" fill="white"/>
<path d="M724.215 241.993C725.145 241.885 725.997 241.162 726.074 240.181C726.141 239.425 726.661 236.07 726.661 236.07C726.661 236.07 727.103 239.425 727.247 240.181C727.446 241.292 728.132 241.864 729.106 241.993C729.88 242.101 733.321 242.565 733.321 242.565C733.321 242.565 729.88 243.04 729.106 243.137C727.867 243.299 727.369 244.065 727.247 244.949C727.147 245.705 726.661 249.06 726.661 249.06C726.661 249.06 726.152 245.705 726.074 244.949C725.975 243.935 725.211 243.245 724.215 243.137C723.441 243.051 720 242.565 720 242.565C720 242.565 723.441 242.08 724.215 241.993Z" fill="white"/>
<path d="M1192.72 184.725C1193.65 184.617 1194.51 183.895 1194.58 182.913C1194.65 182.157 1195.17 178.802 1195.17 178.802C1195.17 178.802 1195.61 182.157 1195.76 182.913C1195.95 184.024 1196.64 184.596 1197.61 184.725C1198.39 184.833 1201.83 185.297 1201.83 185.297C1201.83 185.297 1198.39 185.772 1197.61 185.869C1196.37 186.031 1195.88 186.797 1195.76 187.681C1195.66 188.437 1195.17 191.792 1195.17 191.792C1195.17 191.792 1194.66 188.437 1194.58 187.681C1194.48 186.667 1193.72 185.977 1192.72 185.869C1191.95 185.783 1188.51 185.297 1188.51 185.297C1188.51 185.297 1191.95 184.812 1192.72 184.725Z" fill="white"/>
<path opacity="0.4" d="M1121.09 225.529C1121.09 236.836 1130.49 245.996 1142.08 245.996C1153.68 245.996 1163.07 236.836 1163.07 225.529C1163.07 214.222 1153.68 205.062 1142.08 205.062C1130.49 205.062 1121.09 214.222 1121.09 225.529Z" fill="white"/>
<path opacity="0.6" d="M1056.64 260C1062 260 1066.35 255.759 1066.35 250.527C1066.35 245.296 1062 241.054 1056.64 241.054C1051.27 241.054 1046.92 245.296 1046.92 250.527C1046.92 255.759 1051.27 260 1056.64 260Z" fill="white"/>
<path opacity="0.6" d="M1030.98 191.781C1030.98 197.014 1035.33 201.254 1040.69 201.254C1046.06 201.254 1050.41 197.014 1050.41 191.781C1050.41 186.549 1046.06 182.309 1040.69 182.309C1035.33 182.309 1030.98 186.549 1030.98 191.781Z" fill="white"/>
<path opacity="0.6" d="M1098.7 117.197C1098.7 126.13 1106.13 133.38 1115.29 133.38C1124.45 133.38 1131.88 126.141 1131.88 117.197C1131.88 108.253 1124.46 101.014 1115.29 101.014C1106.11 101.014 1098.7 108.253 1098.7 117.197Z" fill="white"/>
<path d="M1125.52 160.914C1125.52 163.277 1127.49 165.197 1129.91 165.197C1132.34 165.197 1134.31 163.277 1134.31 160.914C1134.31 158.551 1132.34 156.631 1129.91 156.631C1127.49 156.631 1125.52 158.551 1125.52 160.914Z" fill="white"/>
<path d="M1181.86 98.694C1181.86 99.9131 1182.88 100.906 1184.13 100.906C1185.38 100.906 1186.4 99.9131 1186.4 98.694C1186.4 97.4748 1185.38 96.4822 1184.13 96.4822C1182.88 96.4822 1181.86 97.4748 1181.86 98.694Z" fill="white"/>
<path d="M1174.11 179.611C1174.11 180.83 1175.13 181.823 1176.38 181.823C1177.63 181.823 1178.65 180.83 1178.65 179.611C1178.65 178.392 1177.63 177.4 1176.38 177.4C1175.13 177.4 1174.11 178.392 1174.11 179.611Z" fill="white"/>
<path d="M1124.33 141.31C1124.33 142.53 1125.34 143.522 1126.59 143.522C1127.84 143.522 1128.86 142.53 1128.86 141.31C1128.86 140.091 1127.84 139.099 1126.59 139.099C1125.34 139.099 1124.33 140.091 1124.33 141.31Z" fill="white"/>
<path d="M1207.31 127.824C1207.31 129.043 1208.32 130.036 1209.57 130.036C1210.82 130.036 1211.84 129.043 1211.84 127.824C1211.84 126.605 1210.82 125.612 1209.57 125.612C1208.32 125.612 1207.31 126.605 1207.31 127.824Z" fill="white"/>
<path d="M1116.58 181.769C1116.58 182.988 1117.6 183.981 1118.85 183.981C1120.1 183.981 1121.12 182.988 1121.12 181.769C1121.12 180.55 1120.1 179.557 1118.85 179.557C1117.6 179.557 1116.58 180.55 1116.58 181.769Z" fill="white"/>
<path d="M1079.52 116.496C1079.52 117.715 1080.53 118.708 1081.78 118.708C1083.03 118.708 1084.05 117.715 1084.05 116.496C1084.05 115.277 1083.03 114.284 1081.78 114.284C1080.53 114.284 1079.52 115.277 1079.52 116.496Z" fill="white"/>
<path d="M1162.5 92.76C1162.5 93.9792 1163.51 94.9718 1164.76 94.9718C1166.01 94.9718 1167.03 93.9792 1167.03 92.76C1167.03 91.5409 1166.01 90.5483 1164.76 90.5483C1163.51 90.5483 1162.5 91.5409 1162.5 92.76Z" fill="white"/>
<path d="M1055.73 160.191C1055.73 161.41 1056.75 162.403 1058 162.403C1059.25 162.403 1060.26 161.41 1060.26 160.191C1060.26 158.972 1059.25 157.979 1058 157.979C1056.75 157.979 1055.73 158.972 1055.73 160.191Z" fill="white"/>
<path d="M1265.39 114.877C1265.39 116.097 1266.41 117.089 1267.66 117.089C1268.91 117.089 1269.93 116.097 1269.93 114.877C1269.93 113.658 1268.91 112.666 1267.66 112.666C1266.41 112.666 1265.39 113.658 1265.39 114.877Z" fill="white"/>
<path d="M1137.24 112.72C1137.24 113.939 1138.26 114.931 1139.51 114.931C1140.76 114.931 1141.77 113.939 1141.77 112.72C1141.77 111.5 1140.76 110.508 1139.51 110.508C1138.26 110.508 1137.24 111.5 1137.24 112.72Z" fill="white"/>
<path d="M1079.7 148.679C1079.7 149.898 1080.72 150.891 1081.97 150.891C1083.22 150.891 1084.24 149.898 1084.24 148.679C1084.24 147.46 1083.22 146.468 1081.97 146.468C1080.72 146.468 1079.7 147.46 1079.7 148.679Z" fill="white"/>
<path d="M1080.45 76.76C1080.45 77.9791 1081.46 78.9717 1082.71 78.9717C1083.96 78.9717 1084.98 77.9791 1084.98 76.76C1084.98 75.5408 1083.96 74.5482 1082.71 74.5482C1081.46 74.5482 1080.45 75.5408 1080.45 76.76Z" fill="white"/>
<path d="M994.146 161.572C994.146 162.791 995.163 163.784 996.414 163.784C997.664 163.784 998.682 162.791 998.682 161.572C998.682 160.353 997.664 159.36 996.414 159.36C995.163 159.36 994.146 160.353 994.146 161.572Z" fill="white"/>
<path d="M911.53 95.4033C911.53 96.6225 912.548 97.6151 913.798 97.6151C915.049 97.6151 916.067 96.6225 916.067 95.4033C916.067 94.1842 915.049 93.1916 913.798 93.1916C912.548 93.1916 911.53 94.1842 911.53 95.4033Z" fill="white"/>
<path opacity="0.6" d="M1219.96 163.967C1219.96 166.416 1222 168.402 1224.51 168.402C1227.02 168.402 1229.06 166.416 1229.06 163.967C1229.06 161.518 1227.02 159.533 1224.51 159.533C1222 159.533 1219.96 161.518 1219.96 163.967Z" fill="white"/>
<path opacity="0.6" d="M926.954 246.503C926.954 248.952 928.989 250.937 931.501 250.937C934.012 250.937 936.048 248.952 936.048 246.503C936.048 244.054 934.012 242.069 931.501 242.069C928.989 242.069 926.954 244.054 926.954 246.503Z" fill="white"/>
<path opacity="0.6" d="M1212.55 117.035C1212.55 120.596 1215.5 123.476 1219.16 123.476C1222.81 123.476 1225.76 120.596 1225.76 117.035C1225.76 113.475 1222.81 110.594 1219.16 110.594C1215.5 110.594 1212.55 113.475 1212.55 117.035Z" fill="white"/>
<path opacity="0.6" d="M1152.04 189.321C1155.69 189.321 1158.65 186.438 1158.65 182.88C1158.65 179.323 1155.69 176.439 1152.04 176.439C1148.39 176.439 1145.44 179.323 1145.44 182.88C1145.44 186.438 1148.39 189.321 1152.04 189.321Z" fill="white"/>
<path opacity="0.6" d="M948.462 189.321C952.11 189.321 955.067 186.438 955.067 182.88C955.067 179.323 952.11 176.439 948.462 176.439C944.814 176.439 941.857 179.323 941.857 182.88C941.857 186.438 944.814 189.321 948.462 189.321Z" fill="white"/>
<path opacity="0.6" d="M1032.54 184.952C1032.54 187.466 1034.63 189.505 1037.21 189.505C1039.79 189.505 1041.88 187.466 1041.88 184.952C1041.88 182.438 1039.79 180.399 1037.21 180.399C1034.63 180.399 1032.54 182.438 1032.54 184.952Z" fill="white"/>
<path opacity="0.6" d="M1095.89 222.098C1095.89 224.612 1097.98 226.651 1100.56 226.651C1103.14 226.651 1105.22 224.612 1105.22 222.098C1105.22 219.584 1103.13 217.556 1100.56 217.556C1097.99 217.556 1095.89 219.595 1095.89 222.098Z" fill="white"/>
</g>
<defs>
<clipPath id="clip0_427_5444">
<rect width="950" height="209" fill="white" transform="translate(-216)"/>
</clipPath>
<clipPath id="clip1_427_5444">
<rect width="886" height="195" fill="white" transform="translate(720 65)"/>
</clipPath>
</defs>
</svg>
