<svg width="422" height="647" viewBox="0 0 422 647" fill="none" xmlns="http://www.w3.org/2000/svg">
<path d="M0 211C0 94.4679 94.4679 0 211 0C327.532 0 422 94.4679 422 211V597C422 624.614 399.614 647 372 647H50C22.3858 647 0 624.614 0 597V211Z" fill="#523D47"/>
<path d="M23 213.5C23 109.394 107.394 25 211.5 25C315.606 25 400 109.394 400 213.5V572C400 599.614 377.614 622 350 622H73C45.3858 622 23 599.614 23 572V213.5Z" fill="#FFF2F2"/>
<rect x="17" y="191" width="401" height="21" rx="10.5" fill="#523D47"/>
<path d="M22.9214 507H213.921V622H72.9214C45.3071 622 22.9214 599.614 22.9214 572V507Z" fill="#886E7A" fill-opacity="0.5"/>
<path d="M213.921 507H399.921V572C399.921 599.614 377.536 622 349.921 622H213.921V507Z" fill="#886E7A" fill-opacity="0.5"/>
<ellipse cx="114.5" cy="565" rx="11.5" ry="12" fill="#FFF2F2"/>
<circle cx="308" cy="565" r="12" fill="#FFF2F2"/>
<path d="M212 507L212 639" stroke="#523D47" stroke-width="8"/>
</svg>
