<svg width="96" height="96" viewBox="0 0 96 96" fill="none" xmlns="http://www.w3.org/2000/svg">
<path d="M46.5233 2.01954C21.2046 2.75876 1.28019 23.8816 2.01941 49.2003C2.75864 74.519 23.8815 94.4434 49.2002 93.7042C74.5189 92.9649 94.4433 71.8421 93.704 46.5234C92.9648 21.2047 71.842 1.28032 46.5233 2.01954Z" fill="#8C86B3"/>
<path d="M31.5536 51.9352L55.9005 51.2244L48.0721 59.6902C46.7522 61.1176 46.8192 63.4144 48.2202 64.7623C48.9018 65.4104 49.806 65.7586 50.7369 65.7314C51.6677 65.7042 52.5502 65.3039 53.1928 64.6171L66.847 49.8512C68.167 48.4238 68.0999 46.127 66.699 44.7791L52.2064 30.8349C51.4818 30.1377 50.5807 29.8288 49.6894 29.8548C48.7981 29.8809 47.9166 30.2418 47.2338 30.9801C45.9139 32.4075 45.981 34.7043 47.3819 36.0522L55.691 44.0469L31.344 44.7577C29.4206 44.8139 27.8732 46.4874 27.9304 48.4492C27.9877 50.4111 29.6302 51.9914 31.5536 51.9352Z" fill="white"/>
</svg>
