<svg width="551" height="655" viewBox="0 0 551 655" fill="none" xmlns="http://www.w3.org/2000/svg">
<path d="M303.947 111.761C303.947 111.761 293.132 76.8265 317.079 34.1673C341.027 -8.49188 361.97 -3.25604 369.695 7.73062C377.42 18.7173 358.107 64.6381 358.107 64.6381C358.107 64.6381 380.252 34.6823 396.389 48.9306C407.462 58.7156 378.536 88.0706 378.536 88.0706C378.536 88.0706 413.813 74.6806 416.732 95.9673C419.65 117.254 335.104 159.57 303.947 111.761Z" fill="#C4629D"/>
<path d="M187.213 581.269C187.213 581.269 212.792 639.893 211.161 641.095C209.53 642.296 192.621 639.035 184.381 643.155C176.141 647.275 176.141 653.026 178.63 653.884C181.119 654.742 229.787 655.086 231.074 649.764C232.362 644.442 198.887 581.269 198.887 581.269H187.213Z" fill="#C96A3C"/>
<path d="M363.343 581.269C363.343 581.269 337.765 639.893 339.396 641.095C341.027 642.296 357.936 639.035 366.176 643.155C374.416 647.275 374.416 653.026 371.927 653.884C369.437 654.742 320.77 655.086 319.482 649.764C318.195 644.442 351.67 581.269 351.67 581.269H363.343Z" fill="#C96A3C"/>
<path d="M35.0308 346.171C35.0308 346.171 -12.0059 428.915 2.92915 478.011C26.1041 554.403 135.112 567.965 135.112 567.965L35.0308 346.171Z" fill="#C4629D"/>
<path d="M510.891 358.102C510.891 358.102 563.163 444.451 548.228 493.461C525.053 569.853 406.861 581.269 406.861 581.269L510.891 358.102Z" fill="#C4629D"/>
<path d="M433.298 171.243C428.92 165.836 424.371 160.6 419.478 155.536C381.454 115.28 330.212 85.2381 270.472 84.1223C205.582 82.9206 156.571 122.661 119.92 167.381C83.7842 211.499 57.1759 262.141 42.2409 315.443C28.1642 365.827 21.04 428.486 44.1292 477.582C72.7117 538.524 171.077 611.053 290.643 608.135C350.812 606.676 409.608 586.934 455.958 551.656C473.553 538.266 488.488 522.816 501.621 505.65C520.676 480.586 521.963 447.197 519.903 417.499C513.723 332.524 489.69 240.596 433.298 171.243Z" fill="#EBA6C9"/>
<path d="M290.642 608.135C349.696 606.676 407.376 587.706 453.211 553.716C442.138 519.984 427.289 488.054 408.062 459.815C404.372 454.407 400.509 449.171 396.475 444.107C364.545 403.851 321.457 373.81 271.244 372.694C216.74 371.492 175.54 411.233 144.64 455.952C126.186 482.732 110.65 512.001 98.5474 542.73C144.983 580.411 213.392 610.023 290.642 608.135Z" fill="#F3D5E7"/>
<g opacity="0.15">
<path d="M218.285 352.695C237.941 359.304 258.884 362.136 279.57 362.051C289.698 361.965 299.826 361.278 309.783 359.647C320.083 358.016 331.07 356.3 340.254 351.15C343.258 349.433 342.142 343.854 338.366 344.283C328.581 345.313 319.225 348.575 309.611 350.377C299.655 352.266 289.612 353.553 279.484 354.154C259.141 355.27 238.971 353.381 218.971 349.691C217.169 349.347 216.396 352.094 218.285 352.695Z" fill="#322E2B"/>
</g>
<path d="M227.211 292.354C227.211 292.354 257.253 256.304 278.282 259.308C299.311 262.312 323.345 292.354 323.345 292.354C323.345 292.354 308.324 326.945 275.278 325.4C245.236 324.026 227.211 292.354 227.211 292.354Z" fill="#FFD992"/>
<path d="M227.211 292.354C227.211 292.354 258.712 301.882 276.48 300.251C294.333 298.62 323.345 292.354 323.345 292.354C323.345 292.354 294.591 305.487 275.278 306.517C255.88 307.632 227.211 292.354 227.211 292.354Z" fill="#FDB93C"/>
<path d="M132.451 308.147C148.522 308.147 161.549 303.344 161.549 297.418C161.549 291.493 148.522 286.689 132.451 286.689C116.381 286.689 103.354 291.493 103.354 297.418C103.354 303.344 116.381 308.147 132.451 308.147Z" fill="#DC71AC"/>
<path d="M408.578 310.207C424.648 310.207 437.675 305.404 437.675 299.478C437.675 293.553 424.648 288.749 408.578 288.749C392.507 288.749 379.48 293.553 379.48 299.478C379.48 305.404 392.507 310.207 408.578 310.207Z" fill="#DC71AC"/>
<path d="M176.312 292.182C187.263 292.182 196.14 278.809 196.14 262.312C196.14 245.816 187.263 232.442 176.312 232.442C165.362 232.442 156.485 245.816 156.485 262.312C156.485 278.809 165.362 292.182 176.312 292.182Z" fill="#302B26"/>
<path d="M195.368 260.51C206.982 260.51 216.397 256.59 216.397 251.755C216.397 246.92 206.982 243 195.368 243C183.753 243 174.338 246.92 174.338 251.755C174.338 256.59 183.753 260.51 195.368 260.51Z" fill="white"/>
<path d="M153.824 232.185C154.253 239.051 158.202 245.575 164.296 248.836C166.27 249.866 168.931 249.351 170.047 247.291C171.077 245.317 170.647 242.656 168.502 241.541C167.729 241.111 166.957 240.596 166.27 240.081C166.527 240.339 166.871 240.511 167.128 240.768C166.098 239.91 165.154 238.966 164.296 237.936C164.553 238.193 164.725 238.536 164.982 238.794C164.124 237.678 163.437 236.476 162.837 235.103C163.008 235.446 163.094 235.79 163.266 236.133C162.751 234.846 162.407 233.558 162.236 232.271C162.322 232.614 162.322 233.043 162.407 233.386C162.322 233.043 162.322 232.614 162.322 232.271C162.236 231.155 161.892 230.125 161.12 229.266C160.433 228.58 159.232 227.979 158.116 228.065C155.798 228.065 153.652 229.867 153.824 232.185Z" fill="#302B26"/>
<path d="M353.215 292.268C364.165 292.268 373.042 278.895 373.042 262.398C373.042 245.901 364.165 232.528 353.215 232.528C342.264 232.528 333.387 245.901 333.387 262.398C333.387 278.895 342.264 292.268 353.215 292.268Z" fill="#302B26"/>
<path d="M372.27 260.596C383.884 260.596 393.299 256.676 393.299 251.841C393.299 247.005 383.884 243.086 372.27 243.086C360.656 243.086 351.241 247.005 351.241 251.841C351.241 256.676 360.656 260.596 372.27 260.596Z" fill="white"/>
<path d="M330.641 232.356C331.07 239.223 335.018 245.746 341.112 249.008C343.086 250.038 345.747 249.523 346.863 247.463C347.893 245.489 347.464 242.828 345.318 241.712C344.546 241.283 343.773 240.768 343.086 240.253C343.344 240.511 343.687 240.682 343.945 240.94C342.915 240.081 341.971 239.137 341.112 238.107C341.37 238.365 341.541 238.708 341.799 238.966C340.941 237.85 340.254 236.648 339.653 235.275C339.825 235.618 339.911 235.961 340.082 236.305C339.567 235.017 339.224 233.73 339.052 232.442C339.138 232.786 339.138 233.215 339.224 233.558C339.138 233.215 339.138 232.786 339.138 232.442C339.052 231.326 338.709 230.296 337.936 229.438C337.25 228.751 336.048 228.151 334.932 228.236C332.701 228.236 330.469 229.953 330.641 232.356Z" fill="#302B26"/>
<path d="M151.678 201.113C152.794 199.911 153.996 198.796 155.197 197.766C155.798 197.251 156.313 196.821 156.914 196.306C157.172 196.135 157.086 196.135 156.742 196.392C156.914 196.221 157.086 196.135 157.257 195.963C157.515 195.791 157.858 195.534 158.116 195.362C160.691 193.56 163.352 191.929 166.184 190.641C166.527 190.47 166.785 190.384 167.128 190.212C167.3 190.126 168.673 189.526 167.729 189.955C168.33 189.697 169.017 189.44 169.703 189.182C171.248 188.581 172.793 188.152 174.338 187.723C175.797 187.294 177.257 187.036 178.716 186.693C179.145 186.607 179.488 186.521 179.917 186.521C180.175 186.521 181.377 186.178 180.347 186.436C181.119 186.264 181.977 186.264 182.75 186.178C184.896 186.006 187.042 184.376 186.956 181.972C186.87 179.826 185.067 177.595 182.75 177.766C168.759 178.882 155.541 184.976 145.756 195.105C144.211 196.65 144.039 199.482 145.756 201.027C147.387 202.572 150.047 202.744 151.678 201.113Z" fill="#302B26"/>
<path d="M341.284 184.376C343.859 184.976 346.434 185.749 349.009 186.693C349.61 186.951 350.297 187.122 350.897 187.38C351.155 187.466 351.498 187.637 351.756 187.723C351.842 187.723 352.957 188.238 352.099 187.895C353.301 188.41 354.588 189.011 355.79 189.611C358.193 190.813 360.511 192.101 362.828 193.56C363.944 194.246 364.974 194.933 366.004 195.706C366.519 196.135 367.12 196.478 367.635 196.907C368.579 197.68 367.034 196.392 367.978 197.165C368.236 197.422 368.579 197.594 368.837 197.851C370.553 199.225 373.128 199.654 374.759 197.851C376.132 196.306 376.562 193.388 374.759 191.929C365.661 184.547 355.103 179.14 343.602 176.307C341.456 175.792 338.967 176.994 338.452 179.226C337.851 181.371 338.967 183.775 341.284 184.376Z" fill="#302B26"/>
</svg>
