<svg width="610" height="725" viewBox="0 0 610 725" fill="none" xmlns="http://www.w3.org/2000/svg">
<path d="M336.42 123.701C336.42 123.701 324.449 85.0346 350.955 37.8177C377.461 -9.39915 400.642 -3.60392 409.193 8.55656C417.743 20.717 396.367 71.5441 396.367 71.5441C396.367 71.5441 420.878 38.3877 438.739 54.1584C450.994 64.9888 418.978 97.4801 418.978 97.4801C418.978 97.4801 458.024 82.6595 461.255 106.22C464.485 129.781 370.906 176.618 336.42 123.701Z" fill="#C4629D"/>
<path d="M207.216 643.371C207.216 643.371 235.527 708.259 233.722 709.589C231.917 710.919 213.201 707.309 204.08 711.869C194.96 716.429 194.96 722.794 197.715 723.744C200.47 724.694 254.337 725.074 255.762 719.184C257.188 713.294 220.136 643.371 220.136 643.371H207.216Z" fill="#C96A3C"/>
<path d="M402.163 643.371C402.163 643.371 373.852 708.259 375.657 709.589C377.462 710.919 396.178 707.309 405.298 711.869C414.419 716.429 414.419 722.794 411.664 723.744C408.908 724.694 355.041 725.074 353.616 719.184C352.191 713.294 389.243 643.371 389.243 643.371H402.163Z" fill="#C96A3C"/>
<path d="M38.7735 383.156C38.7735 383.156 -13.2886 474.74 3.24209 529.082C28.8931 613.635 149.548 628.646 149.548 628.646L38.7735 383.156Z" fill="#C4629D"/>
<path d="M565.474 396.362C565.474 396.362 623.331 491.936 606.8 546.183C581.149 630.737 450.329 643.372 450.329 643.372L565.474 396.362Z" fill="#C4629D"/>
<path d="M479.591 189.54C474.745 183.555 469.71 177.76 464.295 172.155C422.208 127.598 365.491 94.3465 299.368 93.1114C227.546 91.7814 173.298 135.768 132.732 185.265C92.7353 234.097 63.2842 290.149 46.7535 349.147C31.1729 404.914 23.2876 474.266 48.8436 528.609C80.4799 596.061 189.354 676.34 321.694 673.109C388.292 671.494 453.37 649.643 504.672 610.597C524.147 595.776 540.678 578.676 555.214 559.675C576.304 531.934 577.729 494.977 575.449 462.106C568.609 368.052 542.008 266.303 479.591 189.54Z" fill="#EBA6C9"/>
<path d="M321.694 673.11C387.056 671.495 450.899 650.499 501.631 612.878C489.375 575.541 472.94 540.2 451.659 508.944C447.574 502.958 443.298 497.163 438.833 491.558C403.492 447.001 355.8 413.75 300.223 412.515C239.895 411.185 194.294 455.171 160.092 504.668C139.666 534.31 122.471 566.706 109.075 600.717C160.472 642.424 236.19 675.2 321.694 673.11Z" fill="#F3D5E7"/>
<g opacity="0.15">
<path d="M241.606 390.383C263.362 397.698 286.542 400.834 309.438 400.739C320.649 400.644 331.859 399.884 342.88 398.079C354.28 396.273 366.441 394.373 376.606 388.673C379.931 386.773 378.696 380.598 374.516 381.073C363.685 382.213 353.33 385.823 342.69 387.818C331.669 389.908 320.554 391.333 309.343 391.998C286.827 393.233 264.502 391.143 242.366 387.058C240.371 386.678 239.516 389.718 241.606 390.383Z" fill="#322E2B"/>
</g>
<path d="M251.487 323.591C251.487 323.591 284.739 283.689 308.015 287.014C331.29 290.339 357.892 323.591 357.892 323.591C357.892 323.591 341.266 361.877 304.689 360.167C271.438 358.647 251.487 323.591 251.487 323.591Z" fill="#FFD992"/>
<path d="M251.487 323.592C251.487 323.592 286.354 334.137 306.019 332.332C325.78 330.527 357.892 323.592 357.892 323.592C357.892 323.592 326.065 338.127 304.689 339.267C283.219 340.502 251.487 323.592 251.487 323.592Z" fill="#FDB93C"/>
<path d="M146.602 341.068C164.389 341.068 178.808 335.752 178.808 329.193C178.808 322.634 164.389 317.317 146.602 317.317C128.815 317.317 114.396 322.634 114.396 329.193C114.396 335.752 128.815 341.068 146.602 341.068Z" fill="#DC71AC"/>
<path d="M452.229 343.349C470.016 343.349 484.435 338.032 484.435 331.473C484.435 324.914 470.016 319.598 452.229 319.598C434.442 319.598 420.022 324.914 420.022 331.473C420.022 338.032 434.442 343.349 452.229 343.349Z" fill="#DC71AC"/>
<path d="M195.149 323.395C207.269 323.395 217.095 308.593 217.095 290.334C217.095 272.074 207.269 257.272 195.149 257.272C183.029 257.272 173.203 272.074 173.203 290.334C173.203 308.593 183.029 323.395 195.149 323.395Z" fill="#302B26"/>
<path d="M216.241 288.338C229.096 288.338 239.517 283.999 239.517 278.647C239.517 273.296 229.096 268.957 216.241 268.957C203.386 268.957 192.965 273.296 192.965 278.647C192.965 283.999 203.386 288.338 216.241 288.338Z" fill="white"/>
<path d="M170.259 256.987C170.734 264.588 175.104 271.808 181.849 275.418C184.034 276.558 186.979 275.988 188.214 273.708C189.354 271.523 188.879 268.578 186.504 267.343C185.649 266.868 184.794 266.298 184.034 265.728C184.319 266.013 184.699 266.203 184.984 266.488C183.844 265.538 182.799 264.493 181.849 263.352C182.134 263.637 182.324 264.018 182.609 264.303C181.659 263.067 180.899 261.737 180.234 260.217C180.424 260.597 180.519 260.977 180.709 261.357C180.139 259.932 179.759 258.507 179.569 257.082C179.664 257.462 179.664 257.937 179.759 258.317C179.664 257.937 179.664 257.462 179.664 257.082C179.569 255.847 179.189 254.707 178.334 253.757C177.574 252.997 176.244 252.332 175.009 252.427C172.444 252.427 170.069 254.422 170.259 256.987Z" fill="#302B26"/>
<path d="M390.952 323.495C403.072 323.495 412.898 308.693 412.898 290.433C412.898 272.174 403.072 257.372 390.952 257.372C378.831 257.372 369.006 272.174 369.006 290.433C369.006 308.693 378.831 323.495 390.952 323.495Z" fill="#302B26"/>
<path d="M412.043 288.437C424.898 288.437 435.319 284.099 435.319 278.747C435.319 273.395 424.898 269.057 412.043 269.057C399.189 269.057 388.768 273.395 388.768 278.747C388.768 284.099 399.189 288.437 412.043 288.437Z" fill="white"/>
<path d="M365.966 257.182C366.441 264.782 370.812 272.002 377.557 275.612C379.742 276.752 382.687 276.182 383.922 273.902C385.062 271.717 384.587 268.772 382.212 267.537C381.357 267.062 380.502 266.492 379.742 265.922C380.027 266.207 380.407 266.397 380.692 266.682C379.552 265.732 378.507 264.687 377.557 263.547C377.842 263.832 378.032 264.212 378.317 264.497C377.367 263.262 376.607 261.932 375.942 260.412C376.132 260.792 376.227 261.172 376.417 261.552C375.847 260.127 375.467 258.702 375.277 257.277C375.372 257.657 375.372 258.132 375.467 258.512C375.372 258.132 375.372 257.657 375.372 257.277C375.277 256.042 374.897 254.901 374.042 253.951C373.282 253.191 371.952 252.526 370.717 252.621C368.246 252.621 365.776 254.521 365.966 257.182Z" fill="#302B26"/>
<path d="M167.883 222.6C169.118 221.27 170.448 220.035 171.778 218.895C172.443 218.325 173.013 217.85 173.678 217.28C173.963 217.09 173.868 217.09 173.488 217.375C173.678 217.185 173.868 217.09 174.058 216.9C174.343 216.71 174.723 216.425 175.008 216.235C177.858 214.24 180.803 212.435 183.938 211.01C184.318 210.82 184.603 210.725 184.983 210.535C185.173 210.44 186.693 209.775 185.648 210.25C186.313 209.965 187.073 209.68 187.833 209.395C189.544 208.73 191.254 208.255 192.964 207.78C194.579 207.305 196.194 207.02 197.809 206.64C198.284 206.545 198.664 206.45 199.139 206.45C199.424 206.45 200.754 206.07 199.614 206.355C200.469 206.165 201.419 206.165 202.274 206.07C204.649 205.88 207.024 204.075 206.929 201.415C206.834 199.039 204.839 196.569 202.274 196.759C186.788 197.994 172.158 204.74 161.327 215.95C159.617 217.66 159.427 220.795 161.327 222.505C163.132 224.215 166.078 224.405 167.883 222.6Z" fill="#302B26"/>
<path d="M377.747 204.071C380.598 204.736 383.448 205.591 386.298 206.636C386.963 206.921 387.723 207.111 388.388 207.396C388.673 207.491 389.053 207.681 389.338 207.776C389.433 207.776 390.668 208.346 389.718 207.966C391.048 208.536 392.473 209.201 393.803 209.866C396.463 211.196 399.028 212.621 401.593 214.236C402.828 214.996 403.968 215.757 405.109 216.612C405.679 217.087 406.344 217.467 406.914 217.942C407.959 218.797 406.249 217.372 407.294 218.227C407.579 218.512 407.959 218.702 408.244 218.987C410.144 220.507 412.994 220.982 414.799 218.987C416.319 217.277 416.794 214.046 414.799 212.431C404.728 204.261 393.043 198.276 380.313 195.141C377.937 194.571 375.182 195.901 374.612 198.371C373.947 200.746 375.182 203.406 377.747 204.071Z" fill="#302B26"/>
</svg>
